<svg width="262" height="542" viewBox="0 0 262 542" fill="none" xmlns="http://www.w3.org/2000/svg">
<path d="M0 69.8571C0 68.5144 1.0885 67.4259 2.43122 67.4259C2.8788 67.4259 3.24163 67.7887 3.24163 68.2363V86.7136C3.24163 87.1612 2.87879 87.524 2.43122 87.524C1.08849 87.524 0 86.4355 0 85.0928V69.8571Z" fill="#3D3460"/>
<path d="M0 105.029C0 103.955 0.870795 103.084 1.94498 103.084H2.5933C2.95136 103.084 3.24163 103.374 3.24163 103.732V137.445C3.24163 137.803 2.95136 138.093 2.5933 138.093H1.94498C0.870795 138.093 0 137.223 0 136.148V105.029Z" fill="#3D3460"/>
<path d="M0 151.708C0 150.634 0.870795 149.763 1.94498 149.763H2.5933C2.95136 149.763 3.24163 150.053 3.24163 150.412V184.124C3.24163 184.482 2.95136 184.773 2.5933 184.773H1.94498C0.870795 184.773 0 183.902 0 182.828V151.708Z" fill="#3D3460"/>
<path d="M258.682 119.292C258.682 118.934 258.972 118.644 259.33 118.644C260.404 118.644 261.275 119.514 261.275 120.589V174.4C261.275 175.474 260.404 176.345 259.33 176.345C258.972 176.345 258.682 176.054 258.682 175.696V119.292Z" fill="#3D3460"/>
<path fill-rule="evenodd" clip-rule="evenodd" d="M222.376 0H38.8997C18.1323 0 1.29688 16.8354 1.29688 37.6029V504.397C1.29688 525.165 18.1323 542 38.8997 542H222.376C243.143 542 259.979 525.165 259.979 504.397V37.6029C259.979 16.8354 243.143 0 222.376 0ZM9.07678 37.6029C9.07678 21.1321 22.4289 7.7799 38.8997 7.7799H57.7555C59.9897 8.56609 61.5911 10.6952 61.5911 13.1981C61.5911 21.1266 68.0184 27.5538 75.9469 27.5538H184.68C192.609 27.5538 199.036 21.1266 199.036 13.1981C199.036 10.6952 200.638 8.56609 202.872 7.7799H222.376C238.847 7.7799 252.199 21.1321 252.199 37.6029V504.397C252.199 520.868 238.847 534.22 222.376 534.22H38.8997C22.4289 534.22 9.07678 520.868 9.07678 504.397V37.6029Z" fill="#322953"/>
<rect x="116.05" y="14.2637" width="28.5263" height="2.5933" rx="1.29665" fill="#131125"/>
<circle cx="158.191" cy="15.5599" r="3.24163" fill="#131125"/>
</svg>
