<svg width="70" height="70" viewBox="0 0 70 70" fill="none" xmlns="http://www.w3.org/2000/svg">
<path d="M48.504 60.9971H67.6352V64.3732C67.6352 66.2345 66.1205 67.7493 64.2591 67.7493H5.74011C3.87875 67.7493 2.36401 66.2345 2.36401 64.3732V60.9971H21.4952V58.7463H0.113281V64.3732C0.113281 67.4758 2.63748 70 5.74011 70H64.2591C67.3618 70 69.886 67.4758 69.886 64.3732V58.7463H48.504V60.9971Z" fill="white"/>
<path d="M27.1222 65.4985H42.8773C44.7387 65.4985 46.2534 63.9838 46.2534 62.1224V58.7463H23.7461V62.1224C23.7461 63.9838 25.2608 65.4985 27.1222 65.4985ZM25.9968 60.9971H44.0027V62.1224C44.0027 62.7425 43.4985 63.2478 42.8773 63.2478H27.1222C26.501 63.2478 25.9968 62.7425 25.9968 62.1224V60.9971Z" fill="white"/>
<path d="M4.61499 21.6093C4.61499 19.7479 6.12973 18.2332 7.99109 18.2332H33.8745V15.9824H7.99109C4.88845 15.9824 2.36426 18.5066 2.36426 21.6093V56.4956H4.61499V21.6093Z" fill="white"/>
<path d="M67.6355 35.1136H65.3848V56.4956H67.6355V35.1136Z" fill="white"/>
<path d="M33.874 20.4839H9.11597C7.87469 20.4839 6.86523 21.4933 6.86523 22.7346V56.4956H9.11597V22.7346H33.874V20.4839Z" fill="white"/>
<path d="M63.1335 38.4897H60.8828V56.4956H63.1335V38.4897Z" fill="white"/>
<path d="M16.9933 56.4956H30.4977C32.359 56.4956 33.8738 54.9809 33.8738 53.1195V41.8658C33.8738 40.4006 32.9296 39.1627 31.623 38.6968V35.1136C31.623 30.7697 28.0883 27.2361 23.7455 27.2361C19.4027 27.2361 15.8679 30.7697 15.8679 35.1136V38.6968C14.5614 39.1627 13.6172 40.4006 13.6172 41.8658V53.1195C13.6172 54.9809 15.1319 56.4956 16.9933 56.4956ZM18.1187 35.1136C18.1187 32.011 20.6428 29.4868 23.7455 29.4868C26.8481 29.4868 29.3723 32.011 29.3723 35.1136V38.4897H18.1187V35.1136ZM15.8679 41.8658C15.8679 41.2458 16.3721 40.7405 16.9933 40.7405H30.4977C31.1189 40.7405 31.623 41.2458 31.623 41.8658V53.1195C31.623 53.7396 31.1189 54.2449 30.4977 54.2449H16.9933C16.3721 54.2449 15.8679 53.7396 15.8679 53.1195V41.8658Z" fill="white"/>
<path d="M22.6208 49.5363V51.9941H24.8716V49.5363C26.1781 49.0704 27.1223 47.8325 27.1223 46.3673C27.1223 44.506 25.6076 42.9912 23.7462 42.9912C21.8849 42.9912 20.3701 44.506 20.3701 46.3673C20.3701 47.8325 21.3143 49.0704 22.6208 49.5363ZM23.7462 45.2419C24.3674 45.2419 24.8716 45.7472 24.8716 46.3673C24.8716 46.9874 24.3674 47.4927 23.7462 47.4927C23.125 47.4927 22.6208 46.9874 22.6208 46.3673C22.6208 45.7472 23.125 45.2419 23.7462 45.2419Z" fill="white"/>
<path d="M11.3669 63.2478H9.11621V65.4985H11.3669V63.2478Z" fill="white"/>
<path d="M15.8679 63.2478H13.6172V65.4985H15.8679V63.2478Z" fill="white"/>
<path d="M20.3699 63.2478H18.1191V65.4985H20.3699V63.2478Z" fill="white"/>
<path d="M67.8727 4.72879C62.786 4.72879 57.8614 3.23768 53.6301 0.416385L53.0055 0L52.3809 0.416385C48.1507 3.23768 43.2249 4.72879 38.1383 4.72879H36.125V21.6093C36.125 30.9172 43.6976 38.4898 53.0055 38.4898C62.3134 38.4898 69.886 30.9172 69.886 21.6093V4.72879H67.8727ZM67.6352 21.6093C67.6352 29.6759 61.0721 36.239 53.0055 36.239C44.9389 36.239 38.3757 29.6759 38.3757 21.6093V6.97839C43.576 6.9345 48.6132 5.45802 53.0055 2.693C57.3978 5.45802 62.4349 6.9345 67.6352 6.97839V21.6093Z" fill="url(#paint0_linear)"/>
<path d="M52.4703 5.611C49.0886 7.43972 45.439 8.58984 41.6229 9.02986L40.627 9.14464V21.6092C40.627 28.4345 46.1806 33.9882 53.006 33.9882C59.8313 33.9882 65.385 28.4345 65.385 21.6092V9.14464L64.3879 9.02873C60.5718 8.58871 56.9222 7.43859 53.5405 5.60987L53.006 5.32178L52.4703 5.611ZM63.1343 11.1354V21.6092C63.1343 27.1933 58.5912 31.7375 53.006 31.7375C47.4208 31.7375 42.8777 27.1933 42.8777 21.6092V11.1354C46.4203 10.6166 49.8201 9.52164 53.006 7.87523C56.1919 9.52164 59.5916 10.6155 63.1343 11.1354Z" fill="url(#paint1_linear)"/>
<path d="M48.0536 20.709L46.7031 22.5096L52.1353 26.5834L60.679 14.3766L58.8357 13.0869L51.6244 23.3874L48.0536 20.709Z" fill="url(#paint2_linear)"/>
<defs>
<linearGradient id="paint0_linear" x1="36.125" y1="18.1593" x2="69.886" y2="18.1593" gradientUnits="userSpaceOnUse">
<stop stop-color="#854ACF"/>
<stop offset="1" stop-color="#CE5CB4"/>
</linearGradient>
<linearGradient id="paint1_linear" x1="40.627" y1="18.8464" x2="65.385" y2="18.8464" gradientUnits="userSpaceOnUse">
<stop stop-color="#854ACF"/>
<stop offset="1" stop-color="#CE5CB4"/>
</linearGradient>
<linearGradient id="paint2_linear" x1="46.7031" y1="19.4545" x2="60.679" y2="19.4545" gradientUnits="userSpaceOnUse">
<stop stop-color="#854ACF"/>
<stop offset="1" stop-color="#CE5CB4"/>
</linearGradient>
</defs>
</svg>
