<svg width="70" height="70" viewBox="0 0 70 70" fill="none" xmlns="http://www.w3.org/2000/svg">
<path d="M48.5045 60.9971H67.6357V64.3732C67.6357 66.2345 66.121 67.7493 64.2596 67.7493H5.7406C3.87924 67.7493 2.3645 66.2345 2.3645 64.3732V60.9971H21.4957V58.7463H0.11377V64.3732C0.11377 67.4758 2.63796 70 5.7406 70H64.2596C67.3623 70 69.8864 67.4758 69.8864 64.3732V58.7463H48.5045V60.9971Z" fill="#7B7791"/>
<path d="M27.1227 65.4985H42.8778C44.7392 65.4985 46.2539 63.9838 46.2539 62.1224V58.7463H23.7466V62.1224C23.7466 63.9838 25.2613 65.4985 27.1227 65.4985ZM25.9973 60.9971H44.0032V62.1224C44.0032 62.7425 43.499 63.2478 42.8778 63.2478H27.1227C26.5015 63.2478 25.9973 62.7425 25.9973 62.1224V60.9971Z" fill="#7B7791"/>
<path d="M4.61499 21.6093C4.61499 19.7479 6.12973 18.2332 7.99109 18.2332H33.8745V15.9824H7.99109C4.88845 15.9824 2.36426 18.5066 2.36426 21.6093V56.4956H4.61499V21.6093Z" fill="#7B7791"/>
<path d="M67.6355 35.1136H65.3848V56.4956H67.6355V35.1136Z" fill="#7B7791"/>
<path d="M33.8745 20.4839H9.11645C7.87518 20.4839 6.86572 21.4933 6.86572 22.7346V56.4956H9.11645V22.7346H33.8745V20.4839Z" fill="#7B7791"/>
<path d="M63.134 38.4897H60.8833V56.4956H63.134V38.4897Z" fill="#7B7791"/>
<path d="M16.9943 56.4956H30.4986C32.36 56.4956 33.8747 54.9809 33.8747 53.1195V41.8658C33.8747 40.4006 32.9306 39.1627 31.624 38.6968V35.1136C31.624 30.7697 28.0892 27.2361 23.7465 27.2361C19.4037 27.2361 15.8689 30.7697 15.8689 35.1136V38.6968C14.5623 39.1627 13.6182 40.4006 13.6182 41.8658V53.1195C13.6182 54.9809 15.1329 56.4956 16.9943 56.4956ZM18.1196 35.1136C18.1196 32.011 20.6438 29.4868 23.7465 29.4868C26.8491 29.4868 29.3733 32.011 29.3733 35.1136V38.4897H18.1196V35.1136ZM15.8689 41.8658C15.8689 41.2458 16.3731 40.7405 16.9943 40.7405H30.4986C31.1199 40.7405 31.624 41.2458 31.624 41.8658V53.1195C31.624 53.7396 31.1199 54.2449 30.4986 54.2449H16.9943C16.3731 54.2449 15.8689 53.7396 15.8689 53.1195V41.8658Z" fill="#7B7791"/>
<path d="M22.6208 49.5363V51.9941H24.8716V49.5363C26.1781 49.0704 27.1223 47.8325 27.1223 46.3673C27.1223 44.506 25.6076 42.9912 23.7462 42.9912C21.8849 42.9912 20.3701 44.506 20.3701 46.3673C20.3701 47.8325 21.3143 49.0704 22.6208 49.5363ZM23.7462 45.2419C24.3674 45.2419 24.8716 45.7472 24.8716 46.3673C24.8716 46.9874 24.3674 47.4927 23.7462 47.4927C23.125 47.4927 22.6208 46.9874 22.6208 46.3673C22.6208 45.7472 23.125 45.2419 23.7462 45.2419Z" fill="#7B7791"/>
<path d="M11.3674 63.2478H9.1167V65.4985H11.3674V63.2478Z" fill="#7B7791"/>
<path d="M15.8689 63.2478H13.6182V65.4985H15.8689V63.2478Z" fill="#7B7791"/>
<path d="M20.3704 63.2478H18.1196V65.4985H20.3704V63.2478Z" fill="#7B7791"/>
<path d="M67.8732 4.72879C62.7865 4.72879 57.8619 3.23768 53.6305 0.416385L53.006 0L52.3814 0.416385C48.1511 3.23768 43.2254 4.72879 38.1388 4.72879H36.1255V21.6093C36.1255 30.9172 43.6981 38.4898 53.006 38.4898C62.3139 38.4898 69.8865 30.9172 69.8865 21.6093V4.72879H67.8732ZM67.6357 21.6093C67.6357 29.6759 61.0726 36.239 53.006 36.239C44.9394 36.239 38.3762 29.6759 38.3762 21.6093V6.97839C43.5765 6.9345 48.6137 5.45802 53.006 2.693C57.3983 5.45802 62.4354 6.9345 67.6357 6.97839V21.6093Z" fill="url(#paint0_linear)"/>
<path d="M52.4703 5.611C49.0886 7.43972 45.439 8.58984 41.6229 9.02986L40.627 9.14464V21.6092C40.627 28.4345 46.1806 33.9882 53.006 33.9882C59.8313 33.9882 65.385 28.4345 65.385 21.6092V9.14464L64.3879 9.02873C60.5718 8.58871 56.9222 7.43859 53.5405 5.60987L53.006 5.32178L52.4703 5.611ZM63.1343 11.1354V21.6092C63.1343 27.1933 58.5912 31.7375 53.006 31.7375C47.4208 31.7375 42.8777 27.1933 42.8777 21.6092V11.1354C46.4203 10.6166 49.8201 9.52164 53.006 7.87523C56.1919 9.52164 59.5916 10.6155 63.1343 11.1354Z" fill="url(#paint1_linear)"/>
<path d="M48.0545 20.709L46.7041 22.5096L52.1362 26.5834L60.68 14.3766L58.8367 13.0869L51.6253 23.3874L48.0545 20.709Z" fill="url(#paint2_linear)"/>
<defs>
<linearGradient id="paint0_linear" x1="36.1255" y1="18.1593" x2="69.8865" y2="18.1593" gradientUnits="userSpaceOnUse">
<stop stop-color="#854ACF"/>
<stop offset="1" stop-color="#CE5CB4"/>
</linearGradient>
<linearGradient id="paint1_linear" x1="40.627" y1="18.8464" x2="65.385" y2="18.8464" gradientUnits="userSpaceOnUse">
<stop stop-color="#854ACF"/>
<stop offset="1" stop-color="#CE5CB4"/>
</linearGradient>
<linearGradient id="paint2_linear" x1="46.7041" y1="19.4545" x2="60.68" y2="19.4545" gradientUnits="userSpaceOnUse">
<stop stop-color="#854ACF"/>
<stop offset="1" stop-color="#CE5CB4"/>
</linearGradient>
</defs>
</svg>
