<svg width="70" height="70" viewBox="0 0 70 70" fill="none" xmlns="http://www.w3.org/2000/svg">
<g clip-path="url(#clip0)">
<path d="M68.5416 37.9172C69.3477 37.9172 70 37.2649 70 36.4588V29.1669C70 25.9497 67.3838 23.3334 64.1664 23.3334H53.1892C52.7704 22.4057 52.4993 21.438 52.4993 20.4167C52.4993 17.7761 53.9648 15.3351 56.3247 14.0462C56.6679 13.8582 56.9228 13.5392 57.0283 13.1617C57.135 12.7857 57.0853 12.3813 56.8915 12.0409L53.3381 5.8342C52.5619 4.48119 51.3086 3.51415 49.8089 3.11259C48.3163 2.71377 46.7554 2.92323 45.4195 3.70078L2.89032 28.4605C0.130153 30.067 -0.819661 33.636 0.771111 36.4133L4.44554 42.8364C4.64065 43.1782 4.96536 43.4261 5.34559 43.5242C5.72445 43.6225 6.12888 43.5642 6.46508 43.3618C7.64144 42.6525 8.90053 42.2922 10.2065 42.2922C13.39 42.2922 16.1709 44.3895 17.1176 47.4234C16.1735 50.3575 13.4501 52.5009 10.2065 52.5009C9.40038 52.5009 8.74808 53.1532 8.74808 53.9593V61.2512C8.74808 64.4684 11.3643 67.0847 14.5816 67.0847H64.1666C67.3838 67.0847 70.0001 64.4686 70.0001 61.2512V53.9593C70.0001 53.1532 69.3478 52.5009 68.5417 52.5009C64.5212 52.5009 61.2498 49.2295 61.2498 45.2091C61.2497 41.1886 64.5211 37.9172 68.5416 37.9172ZM46.8881 6.22168C47.5475 5.83707 48.3223 5.73029 49.0543 5.92977C49.7992 6.12911 50.4202 6.61052 50.8061 7.28415L53.6731 12.2916C51.1195 14.2071 49.5827 17.2052 49.5827 20.4167C49.5827 21.4057 49.7456 22.3863 50.0336 23.3334H17.4944L46.8881 6.22168ZM10.2064 39.3756C8.87195 39.3756 7.54027 39.652 6.28843 40.1846L3.30336 34.965C2.50435 33.572 2.97864 31.7848 4.35722 30.9815L8.82779 28.379C8.79224 28.6393 8.74808 28.8972 8.74808 29.1671V36.4589C8.74808 37.265 9.40038 37.9174 10.2065 37.9174C12.8898 37.9174 15.2136 39.3908 16.4798 41.5554C14.7334 40.1814 12.5457 39.3756 10.2064 39.3756ZM58.3329 45.2091C58.3329 50.3433 62.1427 54.6045 67.0831 55.3137V61.2512C67.0831 62.8591 65.7743 64.1679 64.1664 64.1679H29.1653V61.6157C29.1653 60.8096 28.513 60.1573 27.7069 60.1573C26.9008 60.1573 26.2485 60.8096 26.2485 61.6157V64.1679H14.5815C12.9736 64.1679 11.6648 62.8591 11.6648 61.2512V55.3137C16.6053 54.6044 20.4151 50.3433 20.4151 45.2091C20.4151 40.0748 16.6053 35.8136 11.6648 35.1044V29.1669C11.6648 27.5591 12.9736 26.2502 14.5815 26.2502H26.2485V29.5316C26.2485 30.3377 26.9008 30.99 27.7069 30.99C28.513 30.99 29.1653 30.3377 29.1653 29.5316V26.2502H64.1664C65.7743 26.2502 67.0831 27.5591 67.0831 29.1669V35.1044C62.1427 35.8136 58.3329 40.0748 58.3329 45.2091Z" fill="white"/>
<path d="M27.7074 36.8235C26.9013 36.8235 26.249 37.4758 26.249 38.2819V41.1986C26.249 42.0047 26.9013 42.657 27.7074 42.657C28.5136 42.657 29.1659 42.0047 29.1659 41.1986V38.2819C29.1659 37.4758 28.5136 36.8235 27.7074 36.8235Z" fill="white"/>
<path d="M27.7074 48.4905C26.9013 48.4905 26.249 49.1428 26.249 49.9489V52.8656C26.249 53.6717 26.9013 54.324 27.7074 54.324C28.5136 54.324 29.1659 53.6717 29.1659 52.8656V49.9489C29.1659 49.1428 28.5136 48.4905 27.7074 48.4905Z" fill="white"/>
<path d="M54.8318 32.3757C54.1895 31.8958 53.2737 32.0239 52.7909 32.6676L35.2904 56.0017C34.8061 56.6454 34.9372 57.5598 35.5823 58.0426C35.8444 58.2392 36.1505 58.3345 36.4553 58.3345C36.8996 58.3345 37.3368 58.1337 37.6231 57.7506L55.1237 34.4165C55.608 33.7728 55.477 32.8585 54.8318 32.3757Z" fill="url(#paint0_linear)"/>
<path d="M39.3732 43.7508C41.8271 43.7508 43.7483 41.1886 43.7483 37.9172C43.7483 34.6458 41.8271 32.0836 39.3732 32.0836C36.9193 32.0836 34.998 34.6458 34.998 37.9172C34.998 41.1886 36.9193 43.7508 39.3732 43.7508ZM39.3732 35.0005C39.9685 35.0005 40.8316 36.1371 40.8316 37.9172C40.8316 39.6975 39.9685 40.8339 39.3732 40.8339C38.7779 40.8339 37.9148 39.6973 37.9148 37.9172C37.9148 36.1369 38.7779 35.0005 39.3732 35.0005Z" fill="url(#paint1_linear)"/>
<path d="M51.0412 46.6675C48.5872 46.6675 46.666 49.2297 46.666 52.501C46.666 55.7724 48.5872 58.3346 51.0412 58.3346C53.4951 58.3346 55.4163 55.7724 55.4163 52.501C55.4163 49.2297 53.4951 46.6675 51.0412 46.6675ZM51.0412 55.4178C50.4459 55.4178 49.5827 54.2812 49.5827 52.501C49.5827 50.7209 50.4459 49.5843 51.0412 49.5843C51.6364 49.5843 52.4996 50.7209 52.4996 52.501C52.4996 54.2812 51.6364 55.4178 51.0412 55.4178Z" fill="url(#paint2_linear)"/>
</g>
<defs>
<linearGradient id="paint0_linear" x1="34.998" y1="44.4697" x2="55.416" y2="44.4697" gradientUnits="userSpaceOnUse">
<stop stop-color="#854ACF"/>
<stop offset="1" stop-color="#CE5CB4"/>
</linearGradient>
<linearGradient id="paint1_linear" x1="34.998" y1="37.5881" x2="43.7483" y2="37.5881" gradientUnits="userSpaceOnUse">
<stop stop-color="#854ACF"/>
<stop offset="1" stop-color="#CE5CB4"/>
</linearGradient>
<linearGradient id="paint2_linear" x1="46.666" y1="52.172" x2="55.4163" y2="52.172" gradientUnits="userSpaceOnUse">
<stop stop-color="#854ACF"/>
<stop offset="1" stop-color="#CE5CB4"/>
</linearGradient>
<clipPath id="clip0">
<rect width="70" height="70" fill="white"/>
</clipPath>
</defs>
</svg>
