<svg width="16" height="16" viewBox="0 0 16 16" fill="none" xmlns="http://www.w3.org/2000/svg">
<g opacity="0.5" clip-path="url(#clip0)">
<path d="M15.6462 3.95284L15.6662 4.08351C15.4729 3.39751 14.9509 2.86817 14.2875 2.67551L14.2735 2.67217C13.0262 2.33351 8.00686 2.33351 8.00686 2.33351C8.00686 2.33351 3.0002 2.32684 1.7402 2.67217C1.0642 2.86817 0.541529 3.39751 0.351529 4.06951L0.348196 4.08351C-0.117804 6.51751 -0.121137 9.44217 0.368863 12.0482L0.348196 11.9162C0.541529 12.6022 1.06353 13.1315 1.72686 13.3242L1.74086 13.3275C2.98686 13.6668 8.00753 13.6668 8.00753 13.6668C8.00753 13.6668 13.0135 13.6668 14.2742 13.3275C14.9509 13.1315 15.4735 12.6022 15.6635 11.9302L15.6669 11.9162C15.8789 10.7842 16.0002 9.4815 16.0002 8.15084C16.0002 8.10217 16.0002 8.05284 15.9995 8.00351C16.0002 7.95817 16.0002 7.90417 16.0002 7.85017C16.0002 6.51884 15.8789 5.21617 15.6462 3.95284ZM6.40553 10.4342V5.57217L10.5829 8.00684L6.40553 10.4342Z" fill="#7B7791"/>
</g>
<defs>
<clipPath id="clip0">
<rect width="16" height="16" fill="white"/>
</clipPath>
</defs>
</svg>
