<svg width="70" height="70" viewBox="0 0 70 70" fill="none" xmlns="http://www.w3.org/2000/svg">
<path d="M38.7858 11.9091V12.8182H36.9286C36.4158 12.8182 36 13.2252 36 13.7273C36 14.2293 36.4158 14.6364 36.9286 14.6364H37.8572V27.3636H36.9286C36.4158 27.3636 36 27.7707 36 28.2727C36 28.7748 36.4158 29.1818 36.9286 29.1818H38.7858V30.0909C38.7858 30.593 39.2015 31 39.7144 31C40.2272 31 40.6429 30.593 40.6429 30.0909V29.1818H42.5001V30.0909C42.5001 30.593 42.9159 31 43.4287 31C43.9415 31 44.3573 30.593 44.3573 30.0909V29.1818C46.9138 29.189 48.9922 27.1659 48.9997 24.6631C49.004 23.2175 48.3036 21.8567 47.1143 21C49.1734 19.5166 49.6143 16.6798 48.0989 14.664C47.2237 13.4997 45.8338 12.814 44.3573 12.8182V11.9091C44.3573 11.407 43.9415 11 43.4287 11C42.9159 11 42.5001 11.407 42.5001 11.9091V12.8182H40.6429V11.9091C40.6429 11.407 40.2272 11 39.7144 11C39.2015 11 38.7858 11.407 38.7858 11.9091ZM39.7144 14.6364H44.3573C45.8959 14.6364 47.1431 15.8574 47.1431 17.3636C47.1431 18.8699 45.8959 20.0909 44.3573 20.0909H39.7144V14.6364ZM39.7144 21.9091H44.3573C45.8959 21.9091 47.1431 23.1301 47.1431 24.6364C47.1431 26.1426 45.8959 27.3636 44.3573 27.3636H39.7144V21.9091Z" fill="url(#paint0_linear)"/>
<path d="M40.5031 36.0897C39.4495 35.9812 38.4101 35.7626 37.4021 35.4375C36.8265 35.2851 36.2286 35.5906 36.0147 36.1464C35.7832 36.7478 36.0832 37.4229 36.6846 37.6542C37.8485 38.0296 39.0486 38.2817 40.2651 38.4067C40.3039 38.4112 40.3429 38.4135 40.3818 38.4137L40.3865 38.423C41.0308 38.4553 41.5793 37.959 41.6115 37.3147C41.6437 36.6704 41.1474 36.1219 40.5031 36.0897Z" fill="url(#paint1_linear)"/>
<path d="M55.2531 12.5173C55.2518 12.5173 55.2505 12.517 55.249 12.517C55.248 12.517 55.2471 12.5173 55.2461 12.5173H55.2531Z" fill="url(#paint2_linear)"/>
<path d="M55.9066 14.7781C56.3416 15.7433 56.6737 16.7519 56.8971 17.7869C57.0129 18.3236 57.4873 18.7068 58.0363 18.7074C58.1197 18.7071 58.2029 18.6981 58.2844 18.6806C58.9137 18.5443 59.3137 17.924 59.1781 17.2946C58.9195 16.0993 58.5362 14.9344 58.0347 13.8191C57.7699 13.2315 57.0788 12.9697 56.4912 13.2346C55.9034 13.4994 55.6417 14.1905 55.9066 14.7781Z" fill="url(#paint3_linear)"/>
<path d="M52.1816 9.69274C52.9711 10.3996 53.6851 11.1867 54.3119 12.0412C54.5311 12.3398 54.8792 12.5161 55.2493 12.5169C55.4959 12.5162 55.7361 12.4375 55.9351 12.2916C56.4548 11.9109 56.5675 11.1808 56.1866 10.6611C55.4656 9.6767 54.6446 8.76961 53.7366 7.95441C53.7212 7.93968 53.7053 7.92553 53.6889 7.91168C53.1972 7.49547 52.461 7.55657 52.0447 8.04847C51.6285 8.54036 51.6897 9.27638 52.1816 9.69274Z" fill="url(#paint4_linear)"/>
<path d="M52.2363 32.27C51.4483 32.9801 50.588 33.6057 49.6697 34.1367C49.3105 34.3451 49.0891 34.7286 49.0884 35.1438C49.0872 35.7881 49.6087 36.3114 50.253 36.3125L50.2483 36.309C50.4573 36.3128 50.6634 36.2596 50.8445 36.155C51.902 35.5425 52.8924 34.8211 53.7997 34.0025C54.2782 33.5709 54.3159 32.8331 53.8843 32.3546C53.4526 31.8761 52.7147 31.8384 52.2363 32.27Z" fill="url(#paint5_linear)"/>
<path d="M46.7728 35.4282C45.7661 35.7555 44.7279 35.9764 43.6753 36.0874C43.0877 36.1518 42.6412 36.6455 42.6358 37.2365C42.63 37.8808 43.1475 38.4079 43.792 38.4137V38.4102C43.8316 38.4102 43.8725 38.4079 43.918 38.4055C45.1336 38.2778 46.3325 38.0229 47.495 37.6449C47.5259 37.6361 47.5565 37.6262 47.5867 37.615C48.1906 37.3902 48.4978 36.7185 48.2731 36.1146C48.0484 35.5107 47.3767 35.2035 46.7728 35.4282Z" fill="url(#paint6_linear)"/>
<path d="M57.2365 20.9999C57.2364 22.0595 57.1265 23.1164 56.9087 24.1534C56.9087 24.1534 56.9087 24.1534 56.9087 24.1536C56.7757 24.784 57.1789 25.4029 57.8093 25.5359C57.8888 25.5521 57.9697 25.5603 58.0508 25.5604H58.0532C58.6034 25.5591 59.0779 25.1735 59.1918 24.6353C59.4434 23.4399 59.57 22.2216 59.5698 20.9999V20.9323C59.5698 20.9247 59.5697 20.9172 59.5695 20.9098C59.5541 20.2811 59.0318 19.784 58.4032 19.7994C57.7526 19.8159 57.2343 20.3492 57.2365 20.9999Z" fill="url(#paint7_linear)"/>
<path d="M57.4719 26.5755C56.8833 26.313 56.1933 26.5772 55.9308 27.1658C55.4991 28.1337 54.9672 29.0538 54.3441 29.911C54.1994 30.1101 54.1212 30.3498 54.1211 30.596C54.1205 31.2403 54.6425 31.7631 55.2867 31.7637C55.6608 31.7638 56.0121 31.5846 56.2318 31.2818C56.9506 30.2935 57.5641 29.2326 58.0623 28.1167C58.3248 27.5281 58.0605 26.838 57.4719 26.5755Z" fill="url(#paint8_linear)"/>
<path d="M34.5027 34.1565C33.5847 33.6251 32.7246 32.9995 31.9361 32.2898C31.9273 32.2817 31.9183 32.2736 31.9092 32.2658C31.4232 31.8427 30.6863 31.8939 30.2632 32.38C29.8401 32.866 29.8913 33.6029 30.3774 34.026C31.2867 34.8421 32.2782 35.5615 33.3361 36.1726C33.5132 36.2754 33.7145 36.3294 33.9194 36.329V36.3336C34.3362 36.3336 34.7213 36.1112 34.9297 35.7503C35.2519 35.1922 35.0607 34.4786 34.5027 34.1565Z" fill="url(#paint9_linear)"/>
<path d="M26.0958 25.5967C26.1782 25.5968 26.2603 25.5881 26.341 25.5709C26.9711 25.4363 27.3727 24.8162 27.238 24.1862C27.0172 23.1506 26.9051 22.0949 26.9032 21.0362C26.9032 20.3919 26.3808 19.8695 25.7365 19.8695C25.0922 19.8695 24.5698 20.3919 24.5698 21.0362C24.5716 22.2577 24.7011 23.4757 24.956 24.6703C25.0705 25.2086 25.5454 25.5938 26.0958 25.5943V25.5967Z" fill="url(#paint10_linear)"/>
<path d="M29.559 31.5634C30.0792 31.1832 30.1928 30.4533 29.8126 29.9331C29.1878 29.0781 28.6545 28.1599 28.2213 27.1938C27.9537 26.6294 27.2891 26.3758 26.7135 26.6186C26.1198 26.869 25.8416 27.5534 26.0921 28.1469C26.5917 29.2624 27.2067 30.3225 27.9273 31.3098C28.1473 31.6109 28.4981 31.7887 28.8711 31.7881C29.1186 31.788 29.3593 31.7094 29.559 31.5634Z" fill="url(#paint11_linear)"/>
<path d="M25.8449 18.7809C25.9236 18.7971 26.0037 18.8053 26.0841 18.8054H26.0864C26.6373 18.804 27.1122 18.4172 27.2251 17.8779C27.4423 16.8419 27.7677 15.8315 28.1957 14.8633C28.1999 14.8539 28.2042 14.8446 28.2083 14.8351C28.4617 14.2427 28.187 13.557 27.5947 13.3036C27.0024 13.0501 26.3167 13.3249 26.0632 13.9172C25.5681 15.0359 25.192 16.2036 24.9409 17.4009C24.8092 18.0316 25.214 18.6495 25.8449 18.7809Z" fill="url(#paint12_linear)"/>
<path d="M46.7075 6.55316C47.7156 6.87764 48.6866 7.30785 49.6043 7.83649C49.7817 7.93887 49.9829 7.99239 50.1877 7.99166L50.1842 7.98816C50.6025 7.98889 50.9892 7.76562 51.1977 7.40279C51.5188 6.8441 51.3262 6.13097 50.7675 5.80999C49.7067 5.20187 48.5852 4.70604 47.4215 4.33066C46.8078 4.13349 46.1504 4.47124 45.9532 5.08491C45.7561 5.69858 46.0937 6.35599 46.7075 6.55316Z" fill="url(#paint13_linear)"/>
<path d="M40.3115 5.92668C40.3563 5.92697 40.4012 5.92464 40.4457 5.91968C41.4992 5.80929 42.5613 5.80608 43.6155 5.91035C44.2566 5.97481 44.8285 5.50727 44.893 4.86618C44.9575 4.2251 44.4899 3.65314 43.8488 3.58868C42.6336 3.46779 41.4092 3.47172 40.1948 3.60035C39.6073 3.66481 39.1607 4.15845 39.1553 4.74952C39.1495 5.39381 39.6672 5.92085 40.3115 5.92668Z" fill="url(#paint14_linear)"/>
<path d="M28.8306 12.5999C29.2051 12.6005 29.557 12.4213 29.7768 12.1181C30.3982 11.2594 31.1073 10.4681 31.8931 9.75677C31.8945 9.75546 31.896 9.75414 31.8975 9.75283C32.3739 9.31898 32.4083 8.58106 31.9745 8.10477C31.5406 7.62833 30.8027 7.59392 30.3264 8.02777C29.4209 8.84794 28.6034 9.76012 27.8869 10.7496C27.7434 10.9481 27.666 11.1868 27.6655 11.4318C27.6645 12.0761 28.1862 12.5991 28.8306 12.5999Z" fill="url(#paint15_linear)"/>
<path d="M33.8648 8.04184C34.0722 8.04242 34.2759 7.98759 34.4552 7.88317C35.3708 7.35059 36.3398 6.91542 37.3462 6.58467C37.3553 6.58176 37.3647 6.57869 37.3739 6.57563C37.9835 6.36694 38.3085 5.70355 38.0998 5.09397C37.8911 4.48438 37.2277 4.15932 36.6182 4.36801C35.4566 4.74922 34.3382 5.25132 33.2815 5.86601C32.9223 6.0744 32.7009 6.45794 32.7002 6.87313C32.699 7.51742 33.2204 8.04067 33.8648 8.04184Z" fill="url(#paint16_linear)"/>
<path d="M42.0698 42C53.6623 41.9864 63.0563 32.5924 63.0698 21C63.0698 9.40202 53.6678 0 42.0698 0C30.4718 0 21.0698 9.40202 21.0698 21C21.0698 32.598 30.4718 42 42.0698 42ZM42.0698 2.33333C52.3741 2.34558 60.7242 10.6957 60.7365 21C60.7365 31.3092 52.3791 39.6667 42.0698 39.6667C31.7606 39.6667 23.4032 31.3092 23.4032 21C23.4032 10.6907 31.7604 2.33333 42.0698 2.33333Z" fill="url(#paint17_linear)"/>
<path d="M69.3057 47.7167C68.006 45.4983 65.1644 44.737 62.9298 46.0087L50.6752 53.0833C50.4372 51.1493 49.0383 49.5588 47.1507 49.0758L36.17 47.1333C34.5992 46.7753 33.0859 46.2004 31.6737 45.4253C28.7609 43.9097 25.5199 43.134 22.2365 43.1667C19.0092 43.1207 15.8201 43.8687 12.9498 45.3448C11.8415 45.9282 10.6423 46.3194 9.40316 46.5022V43.1667C9.40316 42.5224 8.88078 42 8.23649 42H1.23649C0.592199 42 0.0698242 42.5224 0.0698242 43.1667V68.8333C0.0698242 69.4776 0.592199 70 1.23649 70H8.23649C8.88078 70 9.40316 69.4776 9.40316 68.8333V65.3333H12.3548C13.4038 65.3348 14.4506 65.43 15.4827 65.618L38.6993 69.8308C39.5125 69.9735 40.35 69.8269 41.0665 69.4167L67.5965 54.0983C69.0478 53.2712 69.9399 51.7252 69.9298 50.0547C69.9298 49.2342 69.7146 48.428 69.3057 47.7167ZM7.06982 67.6667H2.40316V44.3333H7.06982V67.6667ZM66.4298 52.073L39.894 67.3948C39.6542 67.5299 39.3756 67.5789 39.1042 67.5337L15.8992 63.322C14.7297 63.1094 13.5435 63.0016 12.3548 63H9.40316V48.8448C11.0263 48.6494 12.6004 48.1609 14.0488 47.4028C16.5846 46.1172 19.3938 45.4643 22.2365 45.5C25.1278 45.4649 27.9833 46.1404 30.5525 47.467C32.1705 48.3541 33.9052 49.0092 35.7057 49.413L46.6432 51.352C47.8881 51.6848 48.6277 52.9638 48.2949 54.2087C48.2941 54.2112 48.2936 54.2137 48.2928 54.2162C48.2409 54.4093 48.1625 54.5942 48.0595 54.7657V54.775H48.0537C47.5079 55.664 46.4526 56.1014 45.438 55.8588C45.3942 55.847 45.3499 55.838 45.305 55.832L30.57 53.6737C29.9355 53.5617 29.3303 53.9852 29.2183 54.6197C29.1063 55.2542 29.5298 55.8594 30.1643 55.9714C30.1866 55.9754 30.2092 55.9787 30.2317 55.9813L44.9048 58.1315C45.2729 58.2221 45.6505 58.2679 46.0295 58.268H46.0458C47.5839 58.2676 49.0221 57.5057 49.8865 56.2333L64.0918 48.0293C65.2063 47.3824 66.6343 47.7614 67.2812 48.876C67.4881 49.2326 67.5969 49.6377 67.5965 50.05C67.6019 50.8856 67.1558 51.6591 66.4298 52.073Z" fill="#7B7791"/>
<defs>
<linearGradient id="paint0_linear" x1="36" y1="20.4359" x2="49" y2="20.4359" gradientUnits="userSpaceOnUse">
<stop stop-color="#854ACF"/>
<stop offset="1" stop-color="#CE5CB4"/>
</linearGradient>
<linearGradient id="paint1_linear" x1="35.9365" y1="36.8261" x2="41.613" y2="36.8261" gradientUnits="userSpaceOnUse">
<stop stop-color="#854ACF"/>
<stop offset="1" stop-color="#CE5CB4"/>
</linearGradient>
<linearGradient id="paint2_linear" x1="55.2461" y1="12.5171" x2="55.2531" y2="12.5171" gradientUnits="userSpaceOnUse">
<stop stop-color="#854ACF"/>
<stop offset="1" stop-color="#CE5CB4"/>
</linearGradient>
<linearGradient id="paint3_linear" x1="55.8032" y1="15.762" x2="59.2045" y2="15.762" gradientUnits="userSpaceOnUse">
<stop stop-color="#854ACF"/>
<stop offset="1" stop-color="#CE5CB4"/>
</linearGradient>
<linearGradient id="paint4_linear" x1="51.7686" y1="9.93854" x2="56.4123" y2="9.93854" gradientUnits="userSpaceOnUse">
<stop stop-color="#854ACF"/>
<stop offset="1" stop-color="#CE5CB4"/>
</linearGradient>
<linearGradient id="paint5_linear" x1="49.0884" y1="34.0185" x2="54.1848" y2="34.0185" gradientUnits="userSpaceOnUse">
<stop stop-color="#854ACF"/>
<stop offset="1" stop-color="#CE5CB4"/>
</linearGradient>
<linearGradient id="paint6_linear" x1="42.6357" y1="36.7979" x2="48.3467" y2="36.7979" gradientUnits="userSpaceOnUse">
<stop stop-color="#854ACF"/>
<stop offset="1" stop-color="#CE5CB4"/>
</linearGradient>
<linearGradient id="paint7_linear" x1="56.8833" y1="22.5172" x2="59.5698" y2="22.5172" gradientUnits="userSpaceOnUse">
<stop stop-color="#854ACF"/>
<stop offset="1" stop-color="#CE5CB4"/>
</linearGradient>
<linearGradient id="paint8_linear" x1="54.1211" y1="28.9696" x2="58.1638" y2="28.9696" gradientUnits="userSpaceOnUse">
<stop stop-color="#854ACF"/>
<stop offset="1" stop-color="#CE5CB4"/>
</linearGradient>
<linearGradient id="paint9_linear" x1="29.9766" y1="34.0336" x2="35.0862" y2="34.0336" gradientUnits="userSpaceOnUse">
<stop stop-color="#854ACF"/>
<stop offset="1" stop-color="#CE5CB4"/>
</linearGradient>
<linearGradient id="paint10_linear" x1="24.5698" y1="22.5716" x2="27.264" y2="22.5716" gradientUnits="userSpaceOnUse">
<stop stop-color="#854ACF"/>
<stop offset="1" stop-color="#CE5CB4"/>
</linearGradient>
<linearGradient id="paint11_linear" x1="26" y1="29.009" x2="30.0374" y2="29.009" gradientUnits="userSpaceOnUse">
<stop stop-color="#854ACF"/>
<stop offset="1" stop-color="#CE5CB4"/>
</linearGradient>
<linearGradient id="paint12_linear" x1="24.916" y1="15.8495" x2="28.3026" y2="15.8495" gradientUnits="userSpaceOnUse">
<stop stop-color="#854ACF"/>
<stop offset="1" stop-color="#CE5CB4"/>
</linearGradient>
<linearGradient id="paint13_linear" x1="45.897" y1="6.02819" x2="51.3531" y2="6.02819" gradientUnits="userSpaceOnUse">
<stop stop-color="#854ACF"/>
<stop offset="1" stop-color="#CE5CB4"/>
</linearGradient>
<linearGradient id="paint14_linear" x1="39.1553" y1="4.64536" x2="44.8989" y2="4.64536" gradientUnits="userSpaceOnUse">
<stop stop-color="#854ACF"/>
<stop offset="1" stop-color="#CE5CB4"/>
</linearGradient>
<linearGradient id="paint15_linear" x1="27.6655" y1="10.0242" x2="32.2786" y2="10.0242" gradientUnits="userSpaceOnUse">
<stop stop-color="#854ACF"/>
<stop offset="1" stop-color="#CE5CB4"/>
</linearGradient>
<linearGradient id="paint16_linear" x1="32.7002" y1="6.06792" x2="38.163" y2="6.06792" gradientUnits="userSpaceOnUse">
<stop stop-color="#854ACF"/>
<stop offset="1" stop-color="#CE5CB4"/>
</linearGradient>
<linearGradient id="paint17_linear" x1="21.0698" y1="19.8154" x2="63.0698" y2="19.8154" gradientUnits="userSpaceOnUse">
<stop stop-color="#854ACF"/>
<stop offset="1" stop-color="#CE5CB4"/>
</linearGradient>
</defs>
</svg>
