<svg width="70" height="70" viewBox="0 0 70 70" fill="none" xmlns="http://www.w3.org/2000/svg">
<g clip-path="url(#clip0)">
<path d="M24.7917 61.25H7.29167C3.2725 61.25 0 57.9775 0 53.9583V16.0417C0 12.0225 3.2725 8.75 7.29167 8.75H62.7083C66.7275 8.75 70 12.0225 70 16.0417V30.625C70 31.43 69.3467 32.0833 68.5417 32.0833C67.7367 32.0833 67.0833 31.43 67.0833 30.625V16.0417C67.0833 13.6296 65.1204 11.6667 62.7083 11.6667H7.29167C4.87958 11.6667 2.91667 13.6296 2.91667 16.0417V53.9583C2.91667 56.3704 4.87958 58.3333 7.29167 58.3333H24.7917C25.5967 58.3333 26.25 58.9867 26.25 59.7917C26.25 60.5967 25.5967 61.25 24.7917 61.25Z" fill="#7B7791"/>
<path d="M21.875 46.6667H1.45833C0.653333 46.6667 0 46.0134 0 45.2084V24.7917C0 23.9867 0.653333 23.3334 1.45833 23.3334H21.875C25.8942 23.3334 29.1667 26.6059 29.1667 30.625V32.5792C29.1667 33.3842 28.5133 34.0375 27.7083 34.0375C26.9033 34.0375 26.25 33.3842 26.25 32.5792V30.625C26.25 28.213 24.2871 26.25 21.875 26.25H2.91667V43.75H21.875C22.6683 43.5575 23.45 44.0475 23.6396 44.8292C23.8292 45.6109 23.3538 46.4071 22.5721 46.5967C22.2833 46.6667 22.0383 46.6667 21.875 46.6667Z" fill="#7B7791"/>
<path d="M14.5833 40.8333C11.3662 40.8333 8.75 38.217 8.75 35C8.75 31.7829 11.3662 29.1666 14.5833 29.1666C17.8004 29.1666 20.4167 31.7829 20.4167 35C20.4167 38.217 17.8004 40.8333 14.5833 40.8333ZM14.5833 32.0833C12.9762 32.0833 11.6667 33.3929 11.6667 35C11.6667 36.607 12.9762 37.9166 14.5833 37.9166C16.1904 37.9166 17.5 36.607 17.5 35C17.5 33.3929 16.1904 32.0833 14.5833 32.0833Z" fill="#7B7791"/>
<path d="M51.771 59.7916H46.6668C45.8618 59.7916 45.2085 59.1383 45.2085 58.3333C45.2085 57.5283 45.8618 56.875 46.6668 56.875H51.771C52.9785 56.875 53.9585 55.895 53.9585 54.6875C53.9585 53.48 52.9785 52.5 51.771 52.5H50.3127C47.4981 52.5 45.2085 50.2104 45.2085 47.3958C45.2085 44.5812 47.4981 42.2916 50.3127 42.2916H55.4168C56.2218 42.2916 56.8752 42.945 56.8752 43.75C56.8752 44.555 56.2218 45.2083 55.4168 45.2083H50.3127C49.1052 45.2083 48.1252 46.1883 48.1252 47.3958C48.1252 48.6033 49.1052 49.5833 50.3127 49.5833H51.771C54.5856 49.5833 56.8752 51.8729 56.8752 54.6875C56.8752 57.502 54.5856 59.7916 51.771 59.7916Z" fill="url(#paint0_linear)"/>
<path d="M51.0418 70C40.5885 70 32.0835 61.495 32.0835 51.0417C32.0835 40.5884 40.5885 32.0834 51.0418 32.0834C61.4952 32.0834 70.0002 40.5884 70.0002 51.0417C70.0002 61.495 61.4952 70 51.0418 70ZM51.0418 35C42.1956 35 35.0002 42.1955 35.0002 51.0417C35.0002 59.888 42.1956 67.0834 51.0418 67.0834C59.8881 67.0834 67.0835 59.888 67.0835 51.0417C67.0835 42.1955 59.8881 35 51.0418 35Z" fill="url(#paint1_linear)"/>
<path d="M51.0418 62.7083C50.2368 62.7083 49.5835 62.055 49.5835 61.25V59.0625C49.5835 58.2575 50.2368 57.6041 51.0418 57.6041C51.8468 57.6041 52.5002 58.2575 52.5002 59.0625V61.25C52.5002 62.055 51.8468 62.7083 51.0418 62.7083Z" fill="url(#paint2_linear)"/>
<path d="M51.0418 44.4792C50.2368 44.4792 49.5835 43.8258 49.5835 43.0208V40.8333C49.5835 40.0283 50.2368 39.375 51.0418 39.375C51.8468 39.375 52.5002 40.0283 52.5002 40.8333V43.0208C52.5002 43.8258 51.8468 44.4792 51.0418 44.4792Z" fill="url(#paint3_linear)"/>
</g>
<defs>
<linearGradient id="paint0_linear" x1="45.2085" y1="50.548" x2="56.8752" y2="50.548" gradientUnits="userSpaceOnUse">
<stop stop-color="#854ACF"/>
<stop offset="1" stop-color="#CE5CB4"/>
</linearGradient>
<linearGradient id="paint1_linear" x1="32.0835" y1="49.9722" x2="70.0002" y2="49.9722" gradientUnits="userSpaceOnUse">
<stop stop-color="#854ACF"/>
<stop offset="1" stop-color="#CE5CB4"/>
</linearGradient>
<linearGradient id="paint2_linear" x1="49.5835" y1="60.0122" x2="52.5002" y2="60.0122" gradientUnits="userSpaceOnUse">
<stop stop-color="#854ACF"/>
<stop offset="1" stop-color="#CE5CB4"/>
</linearGradient>
<linearGradient id="paint3_linear" x1="49.5835" y1="41.7831" x2="52.5002" y2="41.7831" gradientUnits="userSpaceOnUse">
<stop stop-color="#854ACF"/>
<stop offset="1" stop-color="#CE5CB4"/>
</linearGradient>
<clipPath id="clip0">
<rect width="70" height="70" fill="white"/>
</clipPath>
</defs>
</svg>
