<svg width="16" height="16" viewBox="0 0 16 16" fill="none" xmlns="http://www.w3.org/2000/svg">
<g clip-path="url(#clip0)">
<path d="M15.753 1.58936C15.5575 1.35034 15.2648 1.21875 14.9286 1.21875C14.7459 1.21875 14.5523 1.2572 14.3533 1.33325L0.809595 6.5033C0.0908454 6.77759 -0.00595632 7.18921 0.000269252 7.41016C0.00649483 7.6311 0.12649 8.03662 0.859644 8.2699C0.864039 8.27124 0.868433 8.27258 0.872828 8.2738L3.68215 9.07776L5.20144 13.4222C5.40859 14.0145 5.87356 14.3824 6.41506 14.3824C6.75649 14.3824 7.09231 14.2394 7.38625 13.9689L9.12393 12.3689L11.6443 14.3983C11.6446 14.3986 11.6449 14.3987 11.6452 14.3989L11.6691 14.4182C11.6713 14.4199 11.6736 14.4218 11.6758 14.4235C11.956 14.6407 12.2617 14.7555 12.5604 14.7556H12.5606C13.1442 14.7556 13.6089 14.3236 13.7443 13.6552L15.9634 2.69763C16.0525 2.25781 15.9778 1.86426 15.753 1.58936ZM4.62197 8.92505L10.042 6.15613L6.66714 9.74219C6.61184 9.8009 6.57266 9.8728 6.55337 9.95105L5.90261 12.587L4.62197 8.92505ZM6.75112 13.2792C6.72866 13.2998 6.70608 13.3182 6.6835 13.3352L7.28726 10.8899L8.38552 11.7743L6.75112 13.2792ZM15.0446 2.51147L12.8255 13.4691C12.8041 13.574 12.7359 13.818 12.5604 13.818C12.4738 13.818 12.3649 13.7708 12.2534 13.6849L9.39748 11.3854C9.39712 11.385 9.39663 11.3846 9.39614 11.3844L7.6968 10.016L12.5773 4.83008C12.7335 4.66406 12.7477 4.40979 12.6109 4.22742C12.4739 4.04504 12.2257 3.98767 12.0227 4.09143L3.99563 8.19226L1.1481 7.37756L14.6876 2.20911C14.802 2.16541 14.8819 2.15625 14.9286 2.15625C14.9573 2.15625 15.0083 2.15967 15.0272 2.18298C15.0521 2.21338 15.0839 2.31702 15.0446 2.51147Z" fill="#7B7791"/>
</g>
<defs>
<clipPath id="clip0">
<rect width="16" height="16" fill="white"/>
</clipPath>
</defs>
</svg>
