<svg width="690" height="361" viewBox="0 0 690 361" fill="none" xmlns="http://www.w3.org/2000/svg">
<path opacity="0.3" d="M671.089 294.75C671.061 294.704 671.023 294.666 670.983 294.632L689.88 261.892L671.086 229.333C671.048 229.264 670.992 229.218 670.93 229.177C671.058 229.093 671.148 228.957 671.148 228.792C671.148 228.534 670.94 228.326 670.682 228.326H633.357C633.348 228.326 633.339 228.332 633.329 228.332L615.234 196.984C615.206 196.938 615.172 196.9 615.131 196.869L634.028 164.126L633.863 163.84H670.685C670.943 163.84 671.151 163.632 671.151 163.375C671.151 163.117 670.943 162.909 670.685 162.909H633.36C633.351 162.909 633.342 162.915 633.332 162.915L615.237 131.566C615.209 131.52 615.172 131.483 615.131 131.448L634.028 98.7086L633.863 98.4228H670.334C670.21 98.5688 670.179 98.78 670.281 98.9571L688.939 131.284C689.026 131.433 689.181 131.517 689.343 131.517C690.319 131.517 692.78 136.075 671.089 98.4912C671.051 98.4259 670.999 98.3762 670.94 98.339C671.064 98.2551 671.151 98.1184 671.151 97.9569C671.151 97.6991 670.943 97.4909 670.685 97.4909H633.36C633.351 97.4909 633.342 97.4972 633.332 97.4972L615.237 66.1489C615.209 66.1023 615.172 66.065 615.131 66.0308L633.894 33.5146C634.022 33.291 633.947 33.0083 633.724 32.8778C633.5 32.7474 633.217 32.825 633.087 33.0487L614.563 65.1487H577.505C577.248 65.1487 577.039 65.3568 577.039 65.6146C577.039 65.6457 577.052 65.6736 577.058 65.7016L558.711 97.4878H521.654C521.644 97.4878 521.635 97.494 521.626 97.494L503.53 66.1458C503.502 66.0992 503.465 66.0619 503.424 66.0277L522.07 33.7165C522.094 33.7196 522.119 33.732 522.144 33.732H559.463C559.72 33.732 559.928 33.5239 559.928 33.2661C559.928 33.0083 559.72 32.8002 559.463 32.8002H522.144C522.113 32.8002 522.085 32.8126 522.054 32.8188L503.527 0.721921C503.4 0.498271 503.114 0.420614 502.89 0.551077C502.667 0.678433 502.592 0.964209 502.719 1.18786L521.244 33.2816L502.853 65.1487H466.19L447.538 32.8375H410.357L391.683 0.488953H354.095C353.837 0.488953 353.629 0.697071 353.629 0.95489C353.629 1.21271 353.837 1.42083 354.095 1.42083H391.146L409.493 33.2102C409.487 33.2413 409.475 33.2692 409.475 33.3034C409.475 33.3251 409.484 33.3407 409.487 33.3624L391.146 65.1487H354.095C353.837 65.1487 353.629 65.3568 353.629 65.6146C353.629 65.6395 353.638 65.6612 353.645 65.6829L335.294 97.4878H298.246C297.988 97.4878 297.78 97.696 297.78 97.9538C297.78 98.2116 297.988 98.4197 298.246 98.4197H335.214C335.089 98.5657 335.058 98.7769 335.161 98.954L353.645 130.973C353.641 130.995 353.632 131.01 353.632 131.032C353.632 131.057 353.641 131.079 353.648 131.104L335.297 162.909H298.249C298.237 162.909 298.224 162.915 298.212 162.915L280.119 131.563C279.992 131.34 279.706 131.265 279.483 131.393C279.259 131.52 279.185 131.806 279.312 132.029L297.616 163.735L297.836 164.12L279.312 196.223C279.191 196.434 279.256 196.698 279.455 196.835C279.256 196.972 279.191 197.236 279.312 197.447L297.616 229.152L297.836 229.538L279.446 261.408H242.789L224.271 229.33C224.243 229.28 224.205 229.243 224.165 229.208L242.931 196.705C243.059 196.481 242.984 196.198 242.761 196.068C242.54 195.94 242.254 196.015 242.124 196.239L223.6 228.326H186.552C186.539 228.326 186.527 228.332 186.514 228.332L168.419 196.981C168.382 196.919 168.332 196.869 168.276 196.832C168.397 196.748 168.481 196.615 168.481 196.456C168.481 196.198 168.273 195.99 168.015 195.99H131.082L112.57 163.912C112.542 163.862 112.505 163.825 112.461 163.791L131.094 131.495H167.661C167.537 131.641 167.506 131.852 167.608 132.029L186.269 164.356C186.356 164.505 186.511 164.589 186.673 164.589C186.753 164.589 186.831 164.57 186.906 164.527C187.129 164.4 187.204 164.114 187.076 163.89L168.419 131.563C168.391 131.517 168.354 131.48 168.313 131.445L187.21 98.7055L187.045 98.4197H223.516C223.392 98.5657 223.361 98.7769 223.463 98.954L242.124 131.281C242.211 131.43 242.366 131.514 242.528 131.514C242.605 131.514 242.686 131.495 242.761 131.452C242.984 131.324 243.059 131.038 242.931 130.815L224.271 98.488C224.243 98.4415 224.205 98.4042 224.165 98.37L242.804 66.0805H279.719C279.977 66.0805 280.185 65.8724 280.185 65.6146C280.185 65.3568 279.977 65.1487 279.719 65.1487H242.789L224.156 32.8685L242.733 0.70018C242.86 0.47653 242.785 0.19386 242.562 0.0633979C242.338 -0.0670646 242.056 0.0105926 241.925 0.234243L223.258 32.561C223.209 32.648 223.196 32.7443 223.205 32.8375H186.549C186.291 32.8375 186.083 33.0456 186.083 33.3034C186.083 33.322 186.092 33.3344 186.092 33.3531L167.745 65.1487H130.697C130.439 65.1487 130.231 65.3568 130.231 65.6146C130.231 65.6426 130.243 65.6674 130.246 65.6954L111.899 97.4909H74.8448C74.8324 97.4909 74.82 97.4972 74.8075 97.4972L56.7213 66.1458C56.6933 66.0992 56.6561 66.0619 56.6157 66.0277L75.3727 33.5115C75.5001 33.2878 75.4255 33.0052 75.2019 32.8747C74.9783 32.7443 74.6957 32.8219 74.5653 33.0456L56.0474 65.1456H18.9898C18.7321 65.1456 18.524 65.3537 18.524 65.6115C18.524 65.8693 18.7321 66.0774 18.9898 66.0774H55.9667C55.8424 66.2234 55.8114 66.4347 55.9139 66.6117L74.2113 98.3172L74.4318 98.7024L56.0474 130.563H18.9898C18.7321 130.563 18.524 130.771 18.524 131.029C18.524 131.057 18.5364 131.082 18.5395 131.11L0.0620019 163.138C-0.0653223 163.362 0.00920983 163.645 0.232804 163.775C0.307335 163.819 0.384972 163.837 0.465714 163.837C0.627198 163.837 0.782473 163.753 0.869426 163.604L19.3967 131.495H55.9698C55.8455 131.641 55.8145 131.852 55.917 132.029L74.2144 163.735L74.4349 164.12L55.917 196.223C55.9108 196.236 55.9108 196.251 55.9046 196.264H19.7289C19.4712 196.264 19.2631 196.472 19.2631 196.729C19.2631 196.987 19.4712 197.195 19.7289 197.195H55.8611C55.858 197.282 55.8673 197.369 55.9139 197.447L74.2113 229.152L74.4318 229.538L55.9139 261.641C55.7865 261.864 55.8611 262.147 56.0847 262.278C56.1592 262.321 56.2368 262.34 56.3176 262.34C56.4791 262.34 56.6343 262.256 56.7213 262.107L75.5063 229.541L75.3417 229.255H111.828C111.697 229.401 111.663 229.615 111.766 229.795L130.24 261.818C130.237 261.836 130.228 261.855 130.228 261.877C130.228 261.905 130.24 261.93 130.243 261.958L111.896 293.753H74.8448C74.5871 293.753 74.379 293.961 74.379 294.219C74.379 294.477 74.5871 294.685 74.8448 294.685H112.44L131.1 262.343H167.664C167.54 262.489 167.509 262.7 167.611 262.874L185.915 294.579L186.269 295.198C186.356 295.347 186.511 295.434 186.673 295.434C186.75 295.434 186.831 295.415 186.903 295.372C187.126 295.244 187.204 294.958 187.076 294.735L187.045 294.682H223.516C223.392 294.828 223.361 295.039 223.463 295.213L241.987 327.307L223.463 359.401C223.336 359.624 223.41 359.907 223.634 360.037C223.709 360.081 223.786 360.1 223.867 360.1C224.028 360.1 224.184 360.016 224.271 359.867L243.065 327.307L224.271 294.747C224.243 294.701 224.205 294.663 224.165 294.629L242.804 262.34H279.371C279.247 262.486 279.216 262.697 279.318 262.871L297.622 294.576L297.976 295.194C298.063 295.344 298.218 295.431 298.38 295.431C298.457 295.431 298.538 295.412 298.609 295.368C298.833 295.241 298.911 294.955 298.783 294.732L298.752 294.679H335.223C335.099 294.825 335.068 295.036 335.17 295.21L353.654 327.229C353.651 327.251 353.641 327.267 353.641 327.288C353.641 327.546 353.849 327.754 354.107 327.754H354.179C354.194 327.757 354.21 327.76 354.225 327.76C354.238 327.76 354.247 327.754 354.259 327.754H390.941L409.608 360.096H447.197C447.454 360.096 447.663 359.888 447.663 359.63C447.663 359.373 447.454 359.165 447.197 359.165H410.148L391.857 327.475L410.624 294.962L410.459 294.679H446.927C446.802 294.825 446.771 295.036 446.874 295.21L465.351 327.22C465.348 327.245 465.336 327.263 465.336 327.288C465.336 327.546 465.544 327.754 465.802 327.754H503.126C503.384 327.754 503.592 327.546 503.592 327.288C503.592 327.03 503.384 326.822 503.126 326.822H466.193L447.675 294.744C447.647 294.697 447.61 294.66 447.569 294.626L466.205 262.337H502.772C502.648 262.483 502.617 262.694 502.719 262.868L521.377 295.194C521.464 295.344 521.619 295.427 521.781 295.427C521.858 295.427 521.939 295.409 522.014 295.365C522.237 295.238 522.312 294.952 522.185 294.729L503.527 262.402C503.499 262.355 503.462 262.318 503.421 262.284L522.321 229.535L522.157 229.252H558.633C558.503 229.398 558.469 229.612 558.571 229.792L577.049 261.802C577.046 261.827 577.033 261.846 577.033 261.871C577.033 262.128 577.241 262.337 577.499 262.337H614.473C614.349 262.483 614.318 262.694 614.42 262.868L632.721 294.576L632.944 294.962L614.557 326.822H577.893L559.376 294.744C559.248 294.523 558.963 294.443 558.739 294.573C558.515 294.701 558.441 294.986 558.568 295.21L577.046 327.22C577.043 327.245 577.03 327.263 577.03 327.288C577.03 327.546 577.238 327.754 577.496 327.754H615.091L615.286 327.412L633.674 359.28C633.761 359.429 633.916 359.512 634.078 359.512C634.155 359.512 634.236 359.494 634.311 359.45C634.534 359.323 634.609 359.037 634.481 358.814L615.83 326.487C615.83 326.484 615.827 326.484 615.827 326.481L634.022 294.958L633.857 294.676H670.325C670.2 294.822 670.169 295.033 670.272 295.207L688.93 327.534C689.017 327.683 689.172 327.767 689.333 327.767C689.411 327.767 689.492 327.748 689.566 327.704C689.79 327.577 689.864 327.291 689.737 327.068L671.089 294.75ZM632.953 164.123L614.563 195.99H577.9L559.382 163.912C559.354 163.862 559.317 163.825 559.273 163.791L577.912 131.498H614.479C614.355 131.644 614.324 131.855 614.426 132.032L632.953 164.123ZM632.953 98.7055L614.563 130.566H577.9L559.382 98.488C559.354 98.4415 559.317 98.4042 559.276 98.37L577.915 66.0805H614.482C614.358 66.2265 614.327 66.4378 614.429 66.6148L632.953 98.7055ZM558.63 98.4197C558.506 98.5657 558.475 98.7769 558.578 98.954L577.055 130.964C577.052 130.986 577.043 131.007 577.043 131.032C577.043 131.063 577.055 131.091 577.061 131.119L558.714 162.905H521.657C521.647 162.905 521.638 162.912 521.629 162.912L503.533 131.563C503.505 131.517 503.468 131.48 503.427 131.445L522.327 98.7024L522.163 98.4166H558.63V98.4197ZM502.859 195.993H466.196L447.678 163.915C447.65 163.865 447.613 163.828 447.569 163.794L466.208 131.501H502.775C502.651 131.647 502.62 131.858 502.723 132.036L521.023 163.744L521.247 164.129L502.859 195.993ZM447.007 228.326H409.95C409.94 228.326 409.931 228.332 409.922 228.332L391.826 196.984C391.798 196.938 391.764 196.9 391.724 196.869L410.621 164.123L410.456 163.837H446.933C446.802 163.983 446.768 164.198 446.871 164.378L465.348 196.388C465.345 196.409 465.336 196.431 465.336 196.456C465.336 196.487 465.348 196.515 465.354 196.543L447.007 228.326ZM391.155 261.411H354.492L335.974 229.333C335.946 229.283 335.909 229.246 335.869 229.212L354.502 196.925H391.065C390.947 197.071 390.919 197.279 391.019 197.45L409.319 229.159L409.543 229.544L391.155 261.411ZM354.502 131.498H391.075C390.951 131.644 390.919 131.855 391.022 132.032L409.322 163.741L409.546 164.126L391.159 195.993H354.495L335.977 163.915C335.95 163.865 335.912 163.828 335.872 163.794L354.502 131.498ZM410.621 98.7024L410.456 98.4166H446.923C446.799 98.5626 446.768 98.7738 446.871 98.9509L465.348 130.961C465.345 130.983 465.336 131.004 465.336 131.029C465.336 131.06 465.348 131.088 465.354 131.116L447.007 162.902H409.95C409.94 162.902 409.931 162.909 409.922 162.909L391.826 131.56C391.798 131.514 391.761 131.476 391.721 131.442L410.621 98.7024ZM521.023 98.3203L521.247 98.7055L502.859 130.566H466.196L447.678 98.488C447.65 98.4415 447.613 98.4042 447.573 98.37L466.212 66.0805H502.778C502.654 66.2265 502.623 66.4378 502.726 66.6148L521.023 98.3203ZM465.351 65.5432C465.348 65.5649 465.339 65.5866 465.339 65.6115C465.339 65.6426 465.351 65.6705 465.358 65.6985L447.01 97.4847H409.953C409.944 97.4847 409.934 97.4909 409.925 97.4909L391.829 66.1427C391.801 66.0961 391.764 66.0588 391.724 66.0246L410.338 33.7631H447.007L465.351 65.5432ZM335.869 98.3669L354.499 66.0774H391.072C390.947 66.2234 390.916 66.4347 391.019 66.6117L409.319 98.3203L409.543 98.7055L391.155 130.566H354.492L335.974 98.488C335.946 98.4383 335.909 98.4011 335.869 98.3669ZM280.123 196.984C280.085 196.922 280.036 196.872 279.98 196.835C280.036 196.798 280.088 196.754 280.123 196.692L298.917 164.126L298.752 163.84H335.232C335.102 163.986 335.068 164.201 335.17 164.381L353.654 196.4C353.651 196.422 353.641 196.437 353.641 196.459C353.641 196.484 353.651 196.506 353.657 196.531L335.307 228.329H298.258C298.246 228.329 298.234 228.336 298.221 228.336L280.123 196.984ZM167.745 130.566H131.082L112.573 98.488C112.545 98.4415 112.508 98.4042 112.468 98.37L131.097 66.0805H167.664C167.54 66.2265 167.509 66.4378 167.611 66.6148L185.915 98.3203L186.135 98.7055L167.745 130.566ZM168.419 66.1458C168.391 66.0992 168.354 66.0619 168.313 66.0277L186.927 33.7662H223.597L241.947 65.5525C241.944 65.5711 241.935 65.5898 241.935 65.6115C241.935 65.6395 241.947 65.6643 241.95 65.6891L223.597 97.4847H186.549C186.536 97.4847 186.524 97.4909 186.511 97.4909L168.419 66.1458ZM56.7213 131.563C56.6933 131.517 56.6561 131.48 56.6157 131.445L75.5063 98.7055L75.3417 98.4197H111.822C111.697 98.5657 111.666 98.7769 111.769 98.954L130.246 130.973C130.243 130.995 130.234 131.01 130.234 131.032C130.234 131.06 130.246 131.085 130.249 131.113L111.902 162.909H74.8448C74.8324 162.909 74.82 162.915 74.8075 162.915L56.7213 131.563ZM56.8424 197.195H57.0443C57.302 197.195 57.5101 196.987 57.5101 196.729C57.5101 196.472 57.302 196.264 57.0443 196.264H56.9635L75.5032 164.123L75.3386 163.837H111.825C111.694 163.983 111.66 164.198 111.763 164.378L130.24 196.397C130.237 196.419 130.228 196.434 130.228 196.456C130.228 196.484 130.24 196.509 130.243 196.537L111.896 228.326H74.8448C74.8324 228.326 74.82 228.332 74.8075 228.332L56.8424 197.195ZM112.464 229.212L131.097 196.925H167.655C167.537 197.071 167.509 197.279 167.611 197.45L185.915 229.156L186.135 229.541L167.745 261.411H131.082L112.573 229.333C112.545 229.283 112.505 229.246 112.464 229.212ZM168.419 262.411C168.391 262.365 168.354 262.327 168.313 262.293L187.21 229.547L187.045 229.261H223.525C223.395 229.407 223.361 229.622 223.463 229.802L241.947 261.824C241.944 261.843 241.935 261.861 241.935 261.883C241.935 261.911 241.947 261.936 241.95 261.964L223.597 293.759H186.549C186.536 293.759 186.527 293.766 186.514 293.766L168.419 262.411ZM280.123 262.411C280.095 262.365 280.057 262.327 280.017 262.293L298.914 229.547L298.749 229.261H335.229C335.099 229.407 335.064 229.622 335.167 229.802L353.651 261.821C353.648 261.84 353.638 261.858 353.638 261.88C353.638 261.905 353.648 261.927 353.654 261.948L335.304 293.753H298.255C298.243 293.753 298.234 293.759 298.221 293.759L280.123 262.411ZM391.155 326.832H354.492L335.974 294.753C335.946 294.707 335.909 294.67 335.869 294.635L354.499 262.346H391.072C390.947 262.492 390.916 262.703 391.019 262.877L409.319 294.586L409.543 294.971L391.155 326.832ZM391.826 262.411C391.798 262.365 391.761 262.327 391.721 262.293L410.621 229.544L410.456 229.261H446.933C446.802 229.407 446.768 229.622 446.871 229.802L465.348 261.815C465.345 261.836 465.336 261.858 465.336 261.883C465.336 261.914 465.348 261.942 465.354 261.97L447.007 293.756H409.95C409.94 293.756 409.931 293.762 409.922 293.762L391.826 262.411ZM502.859 261.411H466.196L447.678 229.333C447.65 229.283 447.613 229.246 447.569 229.212L466.208 196.925H502.766C502.648 197.071 502.62 197.279 502.719 197.45L521.02 229.159L521.244 229.544L502.859 261.411ZM503.533 196.984C503.505 196.938 503.471 196.9 503.431 196.869L522.327 164.123L522.163 163.837H558.64C558.509 163.983 558.475 164.198 558.578 164.378L577.055 196.388C577.052 196.409 577.043 196.431 577.043 196.456C577.043 196.487 577.055 196.515 577.061 196.543L558.714 228.323H521.657C521.647 228.323 521.638 228.329 521.629 228.329L503.533 196.984ZM559.276 229.212L577.915 196.925H614.473C614.355 197.071 614.327 197.279 614.426 197.45L632.727 229.159L632.95 229.544L614.563 261.411H577.9L559.382 229.333C559.357 229.283 559.32 229.246 559.276 229.212ZM615.237 262.411C615.209 262.365 615.172 262.327 615.131 262.293L634.031 229.544L633.867 229.261H670.343C670.213 229.407 670.179 229.622 670.281 229.802L688.805 261.895L670.415 293.756H633.357C633.348 293.756 633.339 293.762 633.329 293.762L615.237 262.411Z" fill="#7B7791"/>
<g opacity="0.6">
<path opacity="0.6" d="M223.875 104.46C220.568 104.46 217.878 101.77 217.878 98.4616C217.878 95.1534 220.568 92.4634 223.875 92.4634C227.182 92.4634 229.872 95.1534 229.872 98.4616C229.872 101.77 227.182 104.46 223.875 104.46ZM223.875 93.8426C221.329 93.8426 219.257 95.9145 219.257 98.4616C219.257 101.009 221.329 103.081 223.875 103.081C226.422 103.081 228.493 101.009 228.493 98.4616C228.493 95.9145 226.422 93.8426 223.875 93.8426Z" fill="#865EEA"/>
</g>
<g opacity="0.4">
<path opacity="0.4" d="M223.881 108.858C219.335 108.858 215.146 105.845 213.866 101.254C212.326 95.7312 215.565 89.9878 221.084 88.4471C226.602 86.9064 232.347 90.1462 233.887 95.666C235.428 101.189 232.189 106.932 226.67 108.473C225.739 108.734 224.801 108.858 223.881 108.858ZM223.891 89.0963C223.046 89.0963 222.198 89.2112 221.363 89.4442C216.394 90.8296 213.478 96.0046 214.863 100.975C216.248 105.948 221.422 108.861 226.394 107.476C231.363 106.091 234.279 100.916 232.894 95.9456C232.223 93.5382 230.651 91.5347 228.474 90.3077C227.049 89.5032 225.481 89.0963 223.891 89.0963Z" fill="#865EEA"/>
</g>
<g opacity="0.2">
<path opacity="0.2" d="M223.866 113.226C216.338 113.226 209.888 107.47 209.177 99.8252C208.422 91.7179 214.403 84.5084 222.509 83.7566C230.611 83.0018 237.819 88.9844 238.573 97.0917C238.94 101.018 237.753 104.854 235.235 107.889C232.716 110.924 229.167 112.797 225.242 113.16C224.782 113.204 224.322 113.226 223.866 113.226ZM223.9 84.5549C223.465 84.5549 223.027 84.5767 222.586 84.617C214.956 85.3284 209.323 92.1155 210.034 99.7476C210.379 103.444 212.14 106.789 215 109.159C217.857 111.533 221.468 112.651 225.164 112.303C228.859 111.958 232.201 110.197 234.573 107.339C236.946 104.481 238.061 100.872 237.716 97.1725C237.371 93.4761 235.611 90.1307 232.754 87.7606C230.235 85.6701 227.133 84.5549 223.9 84.5549Z" fill="#865EEA"/>
</g>
<path d="M225.624 98.4616C225.624 99.4276 224.841 100.21 223.875 100.21C222.91 100.21 222.127 99.4276 222.127 98.4616C222.127 97.4955 222.91 96.7128 223.875 96.7128C224.841 96.7128 225.624 97.4955 225.624 98.4616Z" fill="#865EEA"/>
<path d="M225.624 98.4616C225.624 99.4276 224.841 100.21 223.875 100.21C222.91 100.21 222.127 99.4276 222.127 98.4616C222.127 97.4955 222.91 96.7128 223.875 96.7128C224.841 96.7128 225.624 97.4955 225.624 98.4616Z" fill="#865EEA"/>
<g opacity="0.6">
<path opacity="0.6" d="M615.762 333.767C612.455 333.767 609.766 331.077 609.766 327.769C609.766 324.461 612.455 321.771 615.762 321.771C619.07 321.771 621.759 324.461 621.759 327.769C621.759 331.077 619.07 333.767 615.762 333.767ZM615.762 323.15C613.216 323.15 611.144 325.222 611.144 327.769C611.144 330.316 613.216 332.388 615.762 332.388C618.309 332.388 620.38 330.316 620.38 327.769C620.38 325.222 618.309 323.15 615.762 323.15Z" fill="#865EEA"/>
</g>
<g opacity="0.4">
<path opacity="0.4" d="M615.769 338.166C611.222 338.166 607.033 335.153 605.754 330.562C604.213 325.039 607.452 319.295 612.971 317.755C618.489 316.214 624.234 319.454 625.775 324.974C627.315 330.497 624.076 336.24 618.557 337.781C617.626 338.042 616.688 338.166 615.769 338.166ZM615.778 318.404C614.933 318.404 614.086 318.519 613.25 318.752C608.281 320.137 605.365 325.312 606.75 330.282C608.135 335.255 613.309 338.169 618.281 336.784C623.25 335.398 626.166 330.223 624.781 325.253C624.11 322.846 622.539 320.842 620.362 319.615C618.936 318.811 617.368 318.404 615.778 318.404Z" fill="#865EEA"/>
</g>
<g opacity="0.2">
<path opacity="0.2" d="M615.753 342.533C608.225 342.533 601.775 336.777 601.064 329.133C600.31 321.026 606.291 313.816 614.396 313.064C622.498 312.309 629.706 318.292 630.46 326.399C630.827 330.326 629.641 334.162 627.122 337.197C624.604 340.231 621.054 342.105 617.129 342.468C616.669 342.511 616.21 342.533 615.753 342.533ZM615.787 313.863C615.352 313.863 614.915 313.884 614.474 313.925C606.843 314.636 601.21 321.423 601.921 329.055C602.266 332.752 604.027 336.097 606.887 338.467C609.744 340.84 613.356 341.959 617.051 341.611C620.747 341.266 624.088 339.505 626.461 336.647C628.833 333.789 629.948 330.18 629.603 326.48C629.259 322.784 627.498 319.438 624.641 317.068C622.122 314.978 619.02 313.863 615.787 313.863Z" fill="#865EEA"/>
</g>
<path d="M617.511 327.769C617.511 328.735 616.728 329.518 615.763 329.518C614.797 329.518 614.014 328.735 614.014 327.769C614.014 326.803 614.797 326.02 615.763 326.02C616.728 326.02 617.511 326.803 617.511 327.769Z" fill="#865EEA"/>
<path d="M617.511 327.769C617.511 328.735 616.728 329.518 615.763 329.518C614.797 329.518 614.014 328.735 614.014 327.769C614.014 326.803 614.797 326.02 615.763 326.02C616.728 326.02 617.511 326.803 617.511 327.769Z" fill="#865EEA"/>
<g opacity="0.6">
<path opacity="0.6" d="M74.7623 169.767C71.455 169.767 68.7656 167.077 68.7656 163.769C68.7656 160.461 71.455 157.771 74.7623 157.771C78.0697 157.771 80.759 160.461 80.759 163.769C80.759 167.077 78.0697 169.767 74.7623 169.767ZM74.7623 159.15C72.2158 159.15 70.1444 161.222 70.1444 163.769C70.1444 166.316 72.2158 168.388 74.7623 168.388C77.3088 168.388 79.3802 166.316 79.3802 163.769C79.3802 161.222 77.3088 159.15 74.7623 159.15Z" fill="#865EEA"/>
</g>
<g opacity="0.4">
<path opacity="0.4" d="M74.7687 174.166C70.2223 174.166 66.0331 171.153 64.7536 166.562C63.2133 161.039 66.4523 155.295 71.9707 153.755C77.4891 152.214 83.2342 155.454 84.7745 160.974C86.3148 166.497 83.0758 172.24 77.5574 173.781C76.6258 174.042 75.6879 174.166 74.7687 174.166ZM74.778 154.404C73.9333 154.404 73.0856 154.519 72.2502 154.752C67.2815 156.137 64.3654 161.312 65.7505 166.282C67.1355 171.255 72.3092 174.169 77.281 172.784C82.2497 171.398 85.1657 166.223 83.7807 161.253C83.1099 158.846 81.5386 156.842 79.3617 155.615C77.9363 154.811 76.368 154.404 74.778 154.404Z" fill="#865EEA"/>
</g>
<g opacity="0.2">
<path opacity="0.2" d="M74.7531 178.533C67.2254 178.533 60.7754 172.777 60.0642 165.133C59.3096 157.026 65.2907 149.816 73.3959 149.064C81.4981 148.309 88.7058 154.292 89.4605 162.399C89.8269 166.326 88.6406 170.162 86.1221 173.197C83.6036 176.231 80.0541 178.105 76.1288 178.468C75.6692 178.511 75.2096 178.533 74.7531 178.533ZM74.7872 149.863C74.3524 149.863 73.9146 149.884 73.4736 149.925C65.8435 150.636 60.2102 157.423 60.9214 165.055C61.2661 168.752 63.0268 172.097 65.887 174.467C68.744 176.84 72.3556 177.959 76.0511 177.611C79.7466 177.266 83.0881 175.505 85.4607 172.647C87.8332 169.789 88.9481 166.18 88.6034 162.48C88.2587 158.784 86.4979 155.438 83.6408 153.068C81.1223 150.978 78.02 149.863 74.7872 149.863Z" fill="#865EEA"/>
</g>
<path d="M76.511 163.769C76.511 164.735 75.7284 165.518 74.7626 165.518C73.7968 165.518 73.0142 164.735 73.0142 163.769C73.0142 162.803 73.7968 162.02 74.7626 162.02C75.7284 162.02 76.511 162.803 76.511 163.769Z" fill="#865EEA"/>
<path d="M76.511 163.769C76.511 164.735 75.7284 165.518 74.7626 165.518C73.7968 165.518 73.0142 164.735 73.0142 163.769C73.0142 162.803 73.7968 162.02 74.7626 162.02C75.7284 162.02 76.511 162.803 76.511 163.769Z" fill="#865EEA"/>
<circle cx="111.168" cy="293.146" r="5" fill="#865EEA"/>
<circle cx="111.168" cy="293.146" r="9.5" stroke="#865EEA"/>
<circle cx="670" cy="99" r="5" fill="#865EEA"/>
<circle cx="670" cy="99" r="9.5" stroke="#865EEA"/>
<g filter="url(#filter0_f)">
<path d="M166.584 131.393H132.092C130.865 131.393 129.723 130.734 129.111 129.672L111.866 99.7931C111.254 98.7307 111.254 97.4106 111.866 96.3513L129.111 66.4723C129.726 65.41 130.865 64.7515 132.092 64.7515H166.584C167.811 64.7515 168.951 65.41 169.566 66.4723L186.81 96.3513C187.053 96.7707 186.91 97.3081 186.487 97.5504C186.065 97.7926 185.531 97.6497 185.289 97.2273L168.044 67.3483C167.743 66.8295 167.184 66.5065 166.584 66.5065H132.092C131.493 66.5065 130.931 66.8295 130.629 67.3483L113.385 97.2273C113.083 97.746 113.083 98.3952 113.385 98.914L130.629 128.79C130.931 129.309 131.49 129.632 132.089 129.632H166.581C167.066 129.632 167.46 130.026 167.46 130.511C167.463 130.998 167.069 131.393 166.584 131.393Z" fill="url(#paint0_linear)"/>
</g>
<path d="M166.584 131.393H132.092C130.865 131.393 129.723 130.734 129.111 129.672L111.866 99.7931C111.254 98.7307 111.254 97.4106 111.866 96.3513L129.111 66.4723C129.726 65.41 130.865 64.7515 132.092 64.7515H166.584C167.811 64.7515 168.951 65.41 169.566 66.4723L186.81 96.3513C187.053 96.7707 186.91 97.3081 186.487 97.5504C186.065 97.7926 185.531 97.6497 185.289 97.2273L168.044 67.3483C167.743 66.8295 167.184 66.5065 166.584 66.5065H132.092C131.493 66.5065 130.931 66.8295 130.629 67.3483L113.385 97.2273C113.083 97.746 113.083 98.3952 113.385 98.914L130.629 128.79C130.931 129.309 131.49 129.632 132.089 129.632H166.581C167.066 129.632 167.46 130.026 167.46 130.511C167.463 130.998 167.069 131.393 166.584 131.393Z" fill="url(#paint1_linear)"/>
<g filter="url(#filter1_f)">
<path d="M612.584 262.393H578.092C576.865 262.393 575.723 261.734 575.111 260.672L557.866 230.793C557.254 229.731 557.254 228.411 557.866 227.351L575.111 197.472C575.726 196.41 576.865 195.751 578.092 195.751H612.584C613.811 195.751 614.951 196.41 615.566 197.472L632.81 227.351C633.053 227.771 632.91 228.308 632.487 228.55C632.065 228.793 631.531 228.65 631.289 228.227L614.044 198.348C613.743 197.83 613.184 197.506 612.584 197.506H578.092C577.493 197.506 576.931 197.83 576.629 198.348L559.385 228.227C559.083 228.746 559.083 229.395 559.385 229.914L576.629 259.79C576.931 260.309 577.49 260.632 578.089 260.632H612.581C613.066 260.632 613.46 261.026 613.46 261.511C613.463 261.998 613.069 262.393 612.584 262.393Z" fill="url(#paint2_linear)"/>
</g>
<path d="M612.584 262.393H578.092C576.865 262.393 575.723 261.734 575.111 260.672L557.866 230.793C557.254 229.731 557.254 228.411 557.866 227.351L575.111 197.472C575.726 196.41 576.865 195.751 578.092 195.751H612.584C613.811 195.751 614.951 196.41 615.566 197.472L632.81 227.351C633.053 227.771 632.91 228.308 632.487 228.55C632.065 228.793 631.531 228.65 631.289 228.227L614.044 198.348C613.743 197.83 613.184 197.506 612.584 197.506H578.092C577.493 197.506 576.931 197.83 576.629 198.348L559.385 228.227C559.083 228.746 559.083 229.395 559.385 229.914L576.629 259.79C576.931 260.309 577.49 260.632 578.089 260.632H612.581C613.066 260.632 613.46 261.026 613.46 261.511C613.463 261.998 613.069 262.393 612.584 262.393Z" fill="url(#paint3_linear)"/>
<path d="M594.379 97.975C594.713 97.975 594.984 97.704 594.984 97.3697C594.984 97.0354 594.713 96.7644 594.379 96.7644C594.044 96.7644 593.773 97.0354 593.773 97.3697C593.773 97.704 594.044 97.975 594.379 97.975Z" fill="#865EEA"/>
<path d="M592.108 97.8237C592.358 97.8237 592.562 97.6205 592.562 97.3698C592.562 97.119 592.358 96.9158 592.108 96.9158C591.857 96.9158 591.653 97.119 591.653 97.3698C591.653 97.6205 591.857 97.8237 592.108 97.8237Z" fill="#865EEA"/>
<path d="M596.65 97.8237C596.9 97.8237 597.104 97.6205 597.104 97.3698C597.104 97.119 596.9 96.9158 596.65 96.9158C596.399 96.9158 596.195 97.119 596.195 97.3698C596.195 97.6205 596.399 97.8237 596.65 97.8237Z" fill="#865EEA"/>
<path d="M596.234 82.7629C596.389 82.8015 596.553 82.7773 596.69 82.6955C596.828 82.6138 596.927 82.4811 596.967 82.3265C597.007 82.1718 596.984 82.0077 596.903 81.8698C596.822 81.732 596.691 81.6316 596.536 81.5906C595.076 81.2156 593.54 81.2667 592.108 81.7379C590.676 82.2091 589.41 83.0806 588.459 84.2492C588.357 84.3737 588.31 84.5334 588.326 84.6932C588.342 84.8529 588.422 84.9995 588.546 85.1009C588.671 85.2022 588.831 85.2499 588.99 85.2335C589.15 85.2171 589.297 85.1379 589.398 85.0134C590.203 84.0245 591.275 83.287 592.486 82.8882C593.698 82.4894 594.998 82.4459 596.234 82.7631L596.234 82.7629Z" fill="#865EEA"/>
<path d="M599.738 85.0132C599.788 85.0749 599.85 85.1261 599.92 85.1638C599.99 85.2016 600.067 85.2252 600.146 85.2333C600.225 85.2415 600.305 85.2339 600.381 85.2112C600.457 85.1884 600.528 85.1509 600.59 85.1007C600.652 85.0505 600.703 84.9887 600.741 84.9187C600.779 84.8488 600.802 84.7721 600.81 84.693C600.818 84.6139 600.811 84.534 600.788 84.4578C600.765 84.3816 600.728 84.3107 600.678 84.249C600.072 83.5041 599.336 82.876 598.505 82.3958C598.366 82.3154 598.201 82.2935 598.046 82.335C597.89 82.3764 597.758 82.4777 597.678 82.6167C597.597 82.7557 597.575 82.9209 597.617 83.076C597.658 83.2311 597.76 83.3634 597.899 83.4438C598.602 83.8506 599.226 84.3824 599.738 85.0132Z" fill="#865EEA"/>
<path d="M590.427 86.6278C590.551 86.7291 590.711 86.7767 590.871 86.7603C591.03 86.7439 591.177 86.6647 591.278 86.5402C591.851 85.8384 592.632 85.3368 593.508 85.1078C593.586 85.0884 593.658 85.0538 593.722 85.0061C593.786 84.9584 593.84 84.8986 593.881 84.83C593.922 84.7614 593.949 84.6855 593.96 84.6065C593.971 84.5275 593.967 84.4471 593.947 84.3698C593.927 84.2926 593.892 84.22 593.844 84.1563C593.796 84.0927 593.736 84.0391 593.667 83.9987C593.598 83.9584 593.522 83.932 593.443 83.9212C593.364 83.9103 593.283 83.9152 593.206 83.9355C592.079 84.2295 591.075 84.8742 590.339 85.7762C590.238 85.9008 590.19 86.0605 590.206 86.2201C590.223 86.3798 590.302 86.5265 590.427 86.6278Z" fill="#865EEA"/>
<path d="M597.858 86.5401C597.959 86.6647 598.106 86.7438 598.266 86.7602C598.426 86.7766 598.585 86.7289 598.71 86.6276C598.835 86.5263 598.914 86.3796 598.93 86.2199C598.947 86.0602 598.899 85.9005 598.797 85.7759C597.914 84.6848 596.642 83.9785 595.249 83.8058C595.17 83.796 595.09 83.8017 595.013 83.8228C594.937 83.8439 594.865 83.8799 594.802 83.9287C594.675 84.0273 594.593 84.1722 594.573 84.3315C594.553 84.4908 594.597 84.6515 594.696 84.7782C594.795 84.9049 594.94 84.9872 595.099 85.0071C596.182 85.1418 597.172 85.6913 597.858 86.5401Z" fill="#865EEA"/>
<path d="M592.306 88.1544C592.431 88.2557 592.591 88.3033 592.751 88.2869C592.91 88.2705 593.057 88.1913 593.158 88.0668C593.328 87.8568 593.543 87.6875 593.787 87.5714C594.031 87.4552 594.298 87.3952 594.568 87.3955C594.729 87.3955 594.883 87.3318 594.997 87.2183C595.11 87.1047 595.174 86.9508 595.174 86.7902C595.174 86.6297 595.11 86.4757 594.997 86.3622C594.883 86.2487 594.729 86.1849 594.568 86.1849C594.118 86.1842 593.673 86.2843 593.267 86.4777C592.86 86.6711 592.502 86.9531 592.219 87.3029C592.117 87.4274 592.07 87.5871 592.086 87.7468C592.103 87.9065 592.182 88.0531 592.306 88.1544Z" fill="#865EEA"/>
<path d="M596.57 86.9417C596.45 86.8355 596.292 86.7814 596.132 86.7915C595.972 86.8015 595.822 86.8748 595.715 86.9952C595.609 87.1156 595.555 87.2732 595.565 87.4335C595.575 87.5937 595.648 87.7434 595.769 87.8497C595.844 87.9164 595.914 87.9891 595.978 88.0672C596.028 88.1289 596.09 88.18 596.16 88.2178C596.23 88.2555 596.307 88.2792 596.386 88.2873C596.465 88.2954 596.545 88.2878 596.621 88.2651C596.697 88.2423 596.768 88.2048 596.83 88.1546C596.892 88.1044 596.943 88.0426 596.981 87.9726C597.018 87.9027 597.042 87.826 597.05 87.7469C597.058 87.6678 597.051 87.5879 597.028 87.5118C597.005 87.4356 596.968 87.3647 596.917 87.303C596.812 87.1733 596.696 87.0524 596.57 86.9417Z" fill="#865EEA"/>
<path d="M611.941 105.844H607.096C606.935 105.844 606.781 105.908 606.668 106.021C606.554 106.135 606.49 106.289 606.49 106.449V107.66H598.618V106.732C598.999 106.392 599.304 105.976 599.512 105.51C599.721 105.043 599.829 104.539 599.829 104.028V102.817H602.251C602.412 102.817 602.566 102.754 602.679 102.64C602.793 102.527 602.857 102.373 602.857 102.212V101.572C604.189 101.424 605.42 100.789 606.313 99.7906C607.207 98.7919 607.701 97.499 607.701 96.1591C607.701 94.8192 607.207 93.5262 606.313 92.5276C605.42 91.5289 604.189 90.8945 602.857 90.7458V90.106C602.857 89.9455 602.793 89.7915 602.679 89.678C602.566 89.5645 602.412 89.5007 602.251 89.5007H576.817C576.656 89.5007 576.502 89.5645 576.388 89.678C576.275 89.7915 576.211 89.9455 576.211 90.106C576.21 91.1123 576.452 92.1039 576.917 92.9965C577.382 93.8891 578.055 94.6563 578.881 95.2327C578.716 95.7266 578.632 96.2438 578.633 96.7644C578.636 97.6139 578.861 98.4478 579.286 99.1835C579.711 99.9191 580.321 100.531 581.056 100.958V102.212C581.056 102.373 581.119 102.527 581.233 102.64C581.347 102.754 581.501 102.817 581.661 102.817H592.562V104.028C592.562 104.539 592.669 105.043 592.878 105.51C593.087 105.976 593.392 106.392 593.773 106.732V109.324C593.774 110.167 594.109 110.975 594.705 111.571C595.301 112.166 596.109 112.501 596.952 112.502H606.49V113.713C606.49 113.873 606.554 114.027 606.668 114.141C606.781 114.254 606.935 114.318 607.096 114.318H611.941C612.101 114.318 612.255 114.254 612.369 114.141C612.482 114.027 612.546 113.873 612.546 113.713V106.449C612.546 106.289 612.482 106.135 612.369 106.021C612.255 105.908 612.101 105.844 611.941 105.844ZM606.49 96.1591C606.489 97.1777 606.121 98.1618 605.454 98.9318C604.787 99.7018 603.865 100.206 602.857 100.353V91.9651C603.865 92.1119 604.787 92.6164 605.454 93.3864C606.121 94.1564 606.489 95.1405 606.49 96.1591ZM577.458 90.7113H585.9V97.975H583.897C583.232 97.9766 582.59 97.7317 582.096 97.2877C582.08 97.2712 582.063 97.2556 582.046 97.2411C581.761 96.972 581.538 96.6443 581.393 96.2808C581.116 95.5849 580.643 94.984 580.032 94.5504C579.992 94.5144 579.948 94.4839 579.9 94.4596L579.672 94.3078C579.064 93.9041 578.552 93.3734 578.17 92.7525C577.788 92.1316 577.545 91.4352 577.458 90.7113ZM579.844 96.7644C579.845 96.5401 579.866 96.3164 579.907 96.0959C580.056 96.29 580.177 96.5034 580.268 96.7303C580.451 97.1878 580.718 97.6069 581.056 97.9655V99.4695C580.676 99.1283 580.372 98.7112 580.163 98.2453C579.955 97.7793 579.846 97.2749 579.844 96.7644ZM582.267 98.8326C582.778 99.0659 583.334 99.1863 583.897 99.1856H585.9V101.607H582.267V98.8326ZM587.111 98.5803V90.7113H601.646V101.607H587.111V98.5803ZM598.618 102.817V104.028C598.618 104.67 598.362 105.286 597.908 105.74C597.454 106.194 596.838 106.449 596.195 106.449C595.553 106.449 594.937 106.194 594.482 105.74C594.028 105.286 593.773 104.67 593.773 104.028V102.817H598.618ZM594.984 109.324V107.452C595.768 107.729 596.623 107.729 597.406 107.452V111.292H596.952C596.43 111.291 595.93 111.084 595.561 110.715C595.192 110.346 594.985 109.846 594.984 109.324ZM598.618 111.292V108.871H606.49V111.292H598.618ZM611.335 113.108H607.701V107.055H611.335V113.108Z" fill="#865EEA"/>
<path d="M40.1597 86.6723C40.2373 86.6724 40.3141 86.6572 40.3858 86.6275C40.4575 86.5978 40.5227 86.5543 40.5775 86.4994L41.8308 85.2467C41.9416 85.1359 42.0039 84.9857 42.0039 84.8291C42.0039 84.6724 41.9416 84.5222 41.8308 84.4114C41.72 84.3006 41.5697 84.2384 41.413 84.2384C41.2563 84.2384 41.106 84.3006 40.9952 84.4114L39.7418 85.6641C39.6592 85.7467 39.603 85.852 39.5802 85.9665C39.5574 86.0811 39.5691 86.1998 39.6138 86.3077C39.6586 86.4156 39.7343 86.5078 39.8315 86.5727C39.9286 86.6376 40.0428 86.6722 40.1597 86.6722V86.6723Z" fill="#D03EB7"/>
<path d="M38.9062 86.1535C39.0629 86.1535 39.2132 86.0913 39.324 85.9805C39.4348 85.8698 39.4971 85.7196 39.4971 85.563V83.7913C39.4971 83.6347 39.4348 83.4845 39.324 83.3738C39.2132 83.263 39.0629 83.2008 38.9062 83.2008C38.7496 83.2008 38.5993 83.263 38.4885 83.3738C38.3777 83.4845 38.3154 83.6347 38.3154 83.7913V85.563C38.3154 85.7196 38.3777 85.8698 38.4885 85.9805C38.5993 86.0913 38.7496 86.1535 38.9062 86.1535Z" fill="#D03EB7"/>
<path d="M37.2351 86.4993C37.3459 86.6101 37.4962 86.6723 37.6529 86.6723C37.8095 86.6723 37.9598 86.6101 38.0706 86.4994C38.1815 86.3886 38.2437 86.2384 38.2437 86.0818C38.2437 85.9252 38.1815 85.775 38.0707 85.6642L36.8174 84.4113C36.7066 84.3005 36.5563 84.2383 36.3995 84.2383C36.2428 84.2383 36.0925 84.3005 35.9817 84.4113C35.8709 84.5221 35.8086 84.6723 35.8086 84.8289C35.8086 84.9856 35.8709 85.1358 35.9817 85.2466L37.2351 86.4993Z" fill="#D03EB7"/>
<path d="M35.3613 87.9251H37.1338C37.2905 87.9251 37.4407 87.8629 37.5515 87.7521C37.6623 87.6414 37.7246 87.4912 37.7246 87.3346C37.7246 87.1779 37.6623 87.0277 37.5515 86.917C37.4407 86.8062 37.2905 86.744 37.1338 86.744H35.3613C35.2046 86.744 35.0544 86.8062 34.9436 86.917C34.8328 87.0277 34.7705 87.1779 34.7705 87.3346C34.7705 87.4912 34.8328 87.6414 34.9436 87.7521C35.0544 87.8629 35.2046 87.9251 35.3613 87.9251Z" fill="#D03EB7"/>
<path d="M37.2351 88.1697L35.9817 89.4224C35.9268 89.4772 35.8833 89.5423 35.8536 89.614C35.8239 89.6857 35.8086 89.7625 35.8086 89.84C35.8086 89.9176 35.8239 89.9944 35.8536 90.0661C35.8833 90.1377 35.9268 90.2028 35.9817 90.2577C36.0365 90.3125 36.1017 90.356 36.1734 90.3857C36.2451 90.4154 36.3219 90.4307 36.3995 90.4307C36.4771 90.4307 36.554 90.4154 36.6257 90.3857C36.6974 90.356 36.7625 90.3125 36.8174 90.2577L38.0707 89.0049C38.1815 88.8942 38.2437 88.744 38.2437 88.5873C38.2437 88.4307 38.1815 88.2805 38.0706 88.1698C38.0158 88.1149 37.9506 88.0714 37.879 88.0418C37.8073 88.0121 37.7304 87.9968 37.6529 87.9968C37.4962 87.9968 37.3459 88.0591 37.2351 88.1698V88.1697Z" fill="#D03EB7"/>
<path d="M38.9062 91.2656C39.0629 91.2656 39.2132 91.2034 39.324 91.0927C39.4348 90.9819 39.4971 90.8317 39.4971 90.6751V89.8399C39.4971 89.6833 39.4348 89.5331 39.324 89.4224C39.2132 89.3116 39.0629 89.2494 38.9062 89.2494C38.7496 89.2494 38.5993 89.3116 38.4885 89.4224C38.3777 89.5331 38.3154 89.6833 38.3154 89.8399V90.6751C38.3154 90.8317 38.3777 90.9819 38.4885 91.0927C38.5993 91.2034 38.7496 91.2656 38.9062 91.2656Z" fill="#D03EB7"/>
<path d="M40.9951 90.2577C41.1059 90.3685 41.2563 90.4307 41.413 90.4307C41.5697 90.4307 41.72 90.3685 41.8308 90.2577C41.9417 90.1469 42.0039 89.9967 42.0039 89.8401C42.0039 89.6834 41.9417 89.5332 41.8308 89.4224L40.5775 88.1697C40.4667 88.059 40.3164 87.9967 40.1597 87.9967C40.003 87.9967 39.8527 88.0589 39.7419 88.1696C39.6311 88.2804 39.5689 88.4306 39.5688 88.5872C39.5688 88.7438 39.6311 88.894 39.7419 89.0048L40.9951 90.2577Z" fill="#D03EB7"/>
<path d="M40.0879 87.3346C40.0879 87.4912 40.1501 87.6414 40.2609 87.7521C40.3717 87.8629 40.522 87.9251 40.6787 87.9251H42.4511C42.6078 87.9251 42.7581 87.8629 42.8689 87.7521C42.9797 87.6414 43.042 87.4912 43.042 87.3346C43.042 87.1779 42.9797 87.0277 42.8689 86.917C42.7581 86.8062 42.6078 86.744 42.4511 86.744H40.6787C40.522 86.744 40.3717 86.8062 40.2609 86.917C40.1501 87.0277 40.0879 87.1779 40.0879 87.3346Z" fill="#D03EB7"/>
<path d="M38.9063 98.2595C38.2853 98.2578 37.6702 98.3793 37.0965 98.6168C36.5228 98.8543 36.002 99.2032 35.5641 99.6433C35.5093 99.6982 35.4658 99.7633 35.4361 99.8349C35.4064 99.9066 35.3911 99.9834 35.3911 100.061C35.3911 100.138 35.4064 100.215 35.4361 100.287C35.4658 100.359 35.5093 100.424 35.5642 100.479C35.6191 100.533 35.6842 100.577 35.7559 100.607C35.8276 100.636 35.9044 100.651 35.982 100.651C36.0596 100.651 36.1364 100.636 36.2081 100.606C36.2798 100.577 36.3449 100.533 36.3998 100.478C37.0645 99.814 37.9662 99.4407 38.9063 99.4407C39.8464 99.4407 40.748 99.814 41.4128 100.478C41.4677 100.533 41.5328 100.577 41.6045 100.606C41.6762 100.636 41.753 100.651 41.8306 100.651C41.9082 100.651 41.985 100.636 42.0567 100.607C42.1284 100.577 42.1935 100.533 42.2484 100.479C42.3032 100.424 42.3468 100.359 42.3765 100.287C42.4062 100.215 42.4215 100.138 42.4215 100.061C42.4215 99.9834 42.4062 99.9066 42.3765 99.8349C42.3468 99.7633 42.3033 99.6982 42.2484 99.6433C41.8106 99.2032 41.2897 98.8543 40.716 98.6168C40.1424 98.3793 39.5272 98.2578 38.9063 98.2595Z" fill="#D03EB7"/>
<path d="M38.9059 100.061C38.5178 100.06 38.1334 100.136 37.7748 100.284C37.4163 100.432 37.0908 100.65 36.8171 100.926C36.7063 101.036 36.644 101.186 36.644 101.343C36.644 101.5 36.7063 101.65 36.8171 101.761C36.9279 101.871 37.0782 101.934 37.2349 101.934C37.3916 101.934 37.5419 101.871 37.6527 101.761C37.9851 101.428 38.4359 101.242 38.9059 101.242C39.376 101.242 39.8268 101.428 40.1592 101.761C40.27 101.871 40.4203 101.934 40.577 101.934C40.7337 101.934 40.884 101.871 40.9948 101.761C41.1056 101.65 41.1678 101.5 41.1678 101.343C41.1678 101.186 41.1056 101.036 40.9948 100.926C40.7211 100.65 40.3956 100.432 40.037 100.284C39.6785 100.136 39.294 100.06 38.9059 100.061Z" fill="#D03EB7"/>
<path d="M38.906 103.899C39.477 103.899 39.9399 103.437 39.9399 102.866C39.9399 102.295 39.477 101.832 38.906 101.832C38.335 101.832 37.8721 102.295 37.8721 102.866C37.8721 103.437 38.335 103.899 38.906 103.899Z" fill="#D03EB7"/>
<path d="M48.697 83.969C47.4824 81.8043 45.5839 80.1031 43.2988 79.1319C41.0137 78.1607 38.4709 77.9742 36.0685 78.6016C33.666 79.229 31.5395 80.6349 30.0217 82.5993C28.504 84.5636 27.6807 86.9756 27.6807 89.4575C27.6841 92.994 28.908 96.4209 31.1458 99.1601C32.3959 100.692 33.2939 102.479 33.7762 104.396L34.1796 106.009V108.891C34.1796 108.894 34.1796 108.897 34.1796 108.9C34.1806 109.698 34.3848 110.482 34.7729 111.178C34.7809 111.272 34.8113 111.362 34.8618 111.442C34.9122 111.521 34.9811 111.587 35.0626 111.634C35.6441 112.449 36.4696 113.058 37.42 113.374C38.3704 113.689 39.3965 113.694 40.3501 113.389C41.3038 113.083 42.1356 112.483 42.7256 111.674C43.3156 110.865 43.6333 109.89 43.6327 108.889V106.009L44.036 104.396C44.5184 102.479 45.4164 100.692 46.6665 99.1601C48.9043 96.4209 50.1282 92.994 50.1316 89.4575C50.1305 87.5355 49.6366 85.6459 48.697 83.969ZM30.146 84.5468C31.2328 82.6099 32.9314 81.0879 34.9759 80.2189C37.0205 79.35 39.2956 79.1831 41.4451 79.7445C43.5947 80.3058 45.4973 81.5637 46.8553 83.3213C48.2133 85.0788 48.95 87.2368 48.95 89.4575C48.9483 91.4754 48.5155 93.4697 47.6805 95.3068H39.497V92.6494C39.497 92.4928 39.4347 92.3426 39.3239 92.2318C39.2131 92.1211 39.0628 92.0589 38.9061 92.0589C38.7494 92.0589 38.5992 92.1211 38.4884 92.2318C38.3776 92.3426 38.3153 92.4928 38.3153 92.6494V95.3068H30.1318C29.2968 93.4697 28.8639 91.4754 28.8623 89.4575C28.8633 87.7379 29.3052 86.0471 30.146 84.5468ZM35.7218 110.444C35.5545 110.103 35.4437 109.737 35.3937 109.36L42.451 107.848V108.889C42.451 108.927 42.4493 108.965 42.4481 109.003L35.7218 110.444ZM42.451 106.64L35.3613 108.159V106.527H42.451V106.64ZM38.9061 112.433C38.0122 112.433 37.1513 112.095 36.4972 111.486L42.1704 110.27C41.8984 110.911 41.4439 111.458 40.8635 111.842C40.2831 112.226 39.6024 112.432 38.9061 112.433ZM45.7522 98.4124C44.392 100.079 43.4148 102.024 42.8899 104.11L42.5806 105.346H35.2317L34.9226 104.11C34.3976 102.024 33.4204 100.079 32.0601 98.4124C31.5664 97.8087 31.1238 97.165 30.7367 96.4879H47.0756C46.6885 97.165 46.2459 97.8087 45.7522 98.4124Z" fill="#D03EB7"/>
<path d="M47.1676 91.7939C47.0189 91.7443 46.8567 91.7559 46.7165 91.8259C46.5764 91.8959 46.4698 92.0187 46.4203 92.1673L46.0264 93.3484C46.0019 93.422 45.9921 93.4996 45.9976 93.577C46.0031 93.6544 46.0238 93.7299 46.0585 93.7993C46.0932 93.8686 46.1412 93.9305 46.1998 93.9813C46.2584 94.0321 46.3265 94.0709 46.4001 94.0954C46.5488 94.1449 46.711 94.1334 46.8512 94.0634C46.9206 94.0287 46.9825 93.9807 47.0333 93.9221C47.0842 93.8635 47.1229 93.7955 47.1475 93.7219L47.5413 92.5408C47.5659 92.4672 47.5757 92.3896 47.5701 92.3122C47.5646 92.2348 47.5439 92.1593 47.5092 92.09C47.4745 92.0206 47.4265 91.9587 47.3679 91.9079C47.3092 91.8571 47.2412 91.8184 47.1676 91.7939Z" fill="#D03EB7"/>
<path d="M45.6369 85.3794C46.1793 86.1024 46.57 86.9276 46.7855 87.8053C47.001 88.683 47.0368 89.5952 46.8908 90.4871C46.8773 90.564 46.8793 90.6429 46.8965 90.719C46.9137 90.7952 46.9459 90.8672 46.9912 90.9309C47.0364 90.9945 47.0938 91.0486 47.1601 91.0899C47.2264 91.1312 47.3003 91.159 47.3774 91.1716C47.4545 91.1842 47.5333 91.1814 47.6093 91.1634C47.6853 91.1453 47.757 91.1124 47.8202 91.0665C47.8834 91.0206 47.9369 90.9626 47.9775 90.8959C48.0181 90.8291 48.0451 90.755 48.0569 90.6778C48.2286 89.6289 48.1866 88.5561 47.9331 87.5238C47.6797 86.4915 47.2202 85.521 46.5822 84.6707L45.8779 83.7322C45.8314 83.6701 45.773 83.6179 45.7063 83.5784C45.6395 83.5389 45.5656 83.5129 45.4888 83.5019C45.412 83.4909 45.3338 83.4952 45.2586 83.5144C45.1835 83.5337 45.1128 83.5675 45.0508 83.6141C44.9887 83.6606 44.9364 83.7189 44.8969 83.7856C44.8574 83.8524 44.8314 83.9262 44.8204 84.003C44.8094 84.0798 44.8137 84.158 44.8329 84.2331C44.8522 84.3082 44.8861 84.3788 44.9326 84.4408L45.6369 85.3794Z" fill="#D03EB7"/>
<path d="M201.771 265.209C201.771 265.452 201.97 265.651 202.213 265.651C202.457 265.651 202.655 265.452 202.655 265.209C202.655 264.965 202.457 264.767 202.213 264.767C201.97 264.767 201.771 264.965 201.771 265.209Z" fill="#D03EB7"/>
<path d="M198.219 259.245C199.425 258.495 200.806 258.099 202.214 258.099C203.621 258.099 205.002 258.495 206.208 259.245C206.281 259.29 206.361 259.312 206.441 259.312C206.588 259.312 206.733 259.238 206.816 259.104C206.945 258.897 206.882 258.624 206.675 258.495C205.329 257.658 203.786 257.215 202.213 257.215C200.641 257.215 199.098 257.658 197.752 258.495C197.545 258.624 197.482 258.896 197.611 259.104C197.74 259.311 198.012 259.374 198.219 259.245Z" fill="#D03EB7"/>
<path d="M205.131 261.275C205.281 261.275 205.427 261.199 205.51 261.062C205.636 260.853 205.569 260.582 205.36 260.456C204.406 259.88 203.318 259.575 202.213 259.575C201.109 259.575 200.021 259.88 199.067 260.456C198.858 260.582 198.791 260.853 198.917 261.062C199.043 261.271 199.315 261.338 199.524 261.212C200.34 260.719 201.27 260.459 202.213 260.459C203.157 260.459 204.087 260.719 204.903 261.212C204.975 261.255 205.054 261.275 205.131 261.275Z" fill="#D03EB7"/>
<path d="M203.817 263.245C203.972 263.245 204.122 263.164 204.203 263.019C204.322 262.807 204.246 262.537 204.033 262.418C203.461 262.098 202.849 261.936 202.213 261.936C201.578 261.936 200.965 262.098 200.393 262.418C200.18 262.537 200.104 262.807 200.223 263.019C200.343 263.232 200.612 263.308 200.825 263.189C201.264 262.943 201.731 262.819 202.213 262.819C202.696 262.819 203.163 262.943 203.602 263.189C203.67 263.227 203.744 263.245 203.817 263.245Z" fill="#D03EB7"/>
<path d="M216.58 268.038C216.369 267.916 216.098 267.988 215.976 268.199C215.854 268.41 215.926 268.68 216.137 268.802C216.874 269.229 217.332 270.022 217.332 270.873C217.332 272.191 216.259 273.263 214.941 273.263C213.622 273.263 212.549 272.191 212.549 270.873C212.549 269.844 213.194 268.956 214.131 268.622L214.296 269.647C213.856 269.879 213.555 270.341 213.555 270.873C213.555 271.637 214.177 272.258 214.941 272.258C215.705 272.258 216.327 271.637 216.327 270.873C216.327 270.186 215.825 269.615 215.169 269.506L214.701 266.601C214.781 266.597 214.86 266.594 214.941 266.594C215.38 266.594 215.812 266.66 216.226 266.791C216.459 266.864 216.707 266.735 216.78 266.502C216.853 266.269 216.724 266.021 216.491 265.948C215.991 265.791 215.47 265.711 214.941 265.711C214.813 265.711 214.686 265.716 214.561 265.725L211.255 245.166C211.146 244.49 210.571 244 209.886 244H207.858C207.093 244 206.472 244.622 206.472 245.386C206.472 246.15 207.094 246.771 207.858 246.771H210.618L211.614 252.968H211.352C210.945 252.968 210.561 253.145 210.297 253.455C210.033 253.764 209.919 254.172 209.984 254.573L211.931 266.681C210.99 267.358 210.285 268.343 209.966 269.487H209.274C209.031 269.487 208.833 269.685 208.833 269.929C208.833 270.173 209.031 270.37 209.274 270.37H209.777V270.873C209.777 271.15 209.551 271.375 209.274 271.375H193.567C193.627 271.219 193.661 271.05 193.661 270.873C193.661 270.696 193.627 270.526 193.567 270.37H207.386C207.63 270.37 207.828 270.173 207.828 269.929C207.828 269.685 207.63 269.487 207.386 269.487H197.249C196.635 267.279 194.599 265.711 192.275 265.711C191.367 265.711 190.474 265.95 189.693 266.402C189.481 266.524 189.409 266.795 189.532 267.006C189.653 267.217 189.924 267.289 190.135 267.167C190.782 266.792 191.522 266.594 192.275 266.594C194.118 266.594 195.742 267.783 196.326 269.487H195.242C194.709 268.346 193.554 267.599 192.275 267.599C190.469 267.599 189 269.068 189 270.873C189 272.678 190.469 274.146 192.275 274.146C193.554 274.146 194.709 273.399 195.242 272.258H209.274C210.039 272.258 210.661 271.637 210.661 270.873C210.661 268.898 212.006 267.232 213.829 266.742L213.989 267.74C212.621 268.151 211.666 269.408 211.666 270.873C211.666 272.678 213.135 274.146 214.941 274.146C216.747 274.146 218.216 272.678 218.216 270.873C218.216 269.708 217.589 268.622 216.58 268.038ZM207.858 244.883C208.135 244.883 208.36 245.109 208.36 245.386C208.36 245.662 208.135 245.888 207.858 245.888C207.581 245.888 207.355 245.662 207.355 245.386C207.355 245.109 207.581 244.883 207.858 244.883ZM209.149 245.888C209.21 245.732 209.244 245.563 209.244 245.386C209.244 245.208 209.21 245.039 209.149 244.883H209.886C210.134 244.883 210.343 245.061 210.382 245.306L210.476 245.888H209.149ZM192.778 270.873C192.778 271.15 192.552 271.375 192.275 271.375C191.998 271.375 191.773 271.15 191.773 270.873C191.773 270.596 191.998 270.37 192.275 270.37C192.552 270.37 192.778 270.596 192.778 270.873ZM192.275 273.263C190.956 273.263 189.884 272.191 189.884 270.873C189.884 269.555 190.956 268.482 192.275 268.482C193.061 268.482 193.782 268.868 194.224 269.487H192.275C191.511 269.487 190.889 270.109 190.889 270.873C190.889 271.637 191.511 272.258 192.275 272.258H194.224C193.782 272.877 193.061 273.263 192.275 273.263ZM212.748 266.201L210.856 254.433C210.832 254.285 210.873 254.141 210.97 254.028C211.067 253.914 211.203 253.851 211.352 253.851H211.756L213.688 265.865C213.361 265.947 213.047 266.06 212.748 266.201ZM215.443 270.873C215.443 271.15 215.218 271.375 214.941 271.375C214.664 271.375 214.438 271.15 214.438 270.873C214.438 270.596 214.664 270.37 214.941 270.37C215.218 270.37 215.443 270.596 215.443 270.873Z" fill="#D03EB7"/>
<g clip-path="url(#clip0)">
<path d="M667.906 251.691H654C653.741 251.691 653.531 251.901 653.531 252.16C653.531 252.419 653.741 252.628 654 252.628H667.906C667.992 252.628 668.062 252.698 668.062 252.785V262.91H667C666.741 262.91 666.531 263.12 666.531 263.379C666.531 263.638 666.741 263.847 667 263.847H668.062V265.285C668.062 265.371 667.992 265.441 667.906 265.441H650.433V263.847H664.75C665.009 263.847 665.219 263.638 665.219 263.379C665.219 263.12 665.009 262.91 664.75 262.91H650.433V254.54C650.433 253.876 650.336 253.235 650.155 252.628H651.812C652.071 252.628 652.281 252.418 652.281 252.16C652.281 251.901 652.071 251.691 651.812 251.691H649.798C648.724 249.408 646.402 247.824 643.717 247.824C640.013 247.824 637 250.837 637 254.54V269.46C637 273.163 640.013 276.176 643.717 276.176C646.653 276.176 649.154 274.282 650.064 271.651H650.688C650.946 271.651 651.156 271.441 651.156 271.182C651.156 270.924 650.946 270.714 650.688 270.714H643.578C643.078 270.714 642.672 270.307 642.672 269.807V269.225C642.672 268.726 643.078 268.319 643.578 268.319H654.005C654.505 268.319 654.911 268.726 654.911 269.225V269.807C654.911 270.307 654.505 270.714 654.005 270.714H652.875C652.616 270.714 652.406 270.924 652.406 271.182C652.406 271.441 652.616 271.651 652.875 271.651H654.005C655.022 271.651 655.849 270.824 655.849 269.807V269.225C655.849 268.209 655.022 267.382 654.005 267.382H650.433V266.378H667.906C668.509 266.378 669 265.888 669 265.285V252.785C669 252.181 668.509 251.691 667.906 251.691ZM643.717 275.239C640.588 275.239 638.033 272.74 637.94 269.634H639.502C639.565 271.905 641.431 273.734 643.717 273.734C645.263 273.734 646.617 272.896 647.351 271.651H649.063C648.198 273.754 646.128 275.239 643.717 275.239ZM641.734 269.225V269.807C641.734 270.824 642.561 271.651 643.578 271.651H646.203C645.601 272.352 644.71 272.796 643.717 272.796C641.908 272.796 640.437 271.325 640.437 269.516C640.437 267.708 641.908 266.236 643.717 266.236C644.71 266.236 645.601 266.681 646.203 267.381H643.578C642.561 267.382 641.734 268.209 641.734 269.225ZM647.351 267.382C646.617 266.137 645.263 265.299 643.717 265.299C641.672 265.299 639.962 266.762 639.58 268.697H637.938V254.54C637.938 251.354 640.53 248.761 643.717 248.761C646.903 248.761 649.496 251.354 649.496 254.54V267.381H647.351V267.382Z" fill="#865EEA"/>
<path d="M641.335 256.547H640.457C640.198 256.547 639.988 256.757 639.988 257.016C639.988 257.275 640.198 257.484 640.457 257.484H641.335C641.593 257.484 641.803 257.275 641.803 257.016C641.803 256.757 641.593 256.547 641.335 256.547Z" fill="#865EEA"/>
<path d="M641.335 258.739H640.457C640.198 258.739 639.988 258.948 639.988 259.207C639.988 259.466 640.198 259.676 640.457 259.676H641.335C641.593 259.676 641.803 259.466 641.803 259.207C641.803 258.948 641.593 258.739 641.335 258.739Z" fill="#865EEA"/>
<path d="M641.335 260.93H640.457C640.198 260.93 639.988 261.14 639.988 261.399C639.988 261.658 640.198 261.868 640.457 261.868H641.335C641.593 261.868 641.803 261.658 641.803 261.399C641.803 261.14 641.593 260.93 641.335 260.93Z" fill="#865EEA"/>
<path d="M644.155 256.547H643.278C643.019 256.547 642.809 256.757 642.809 257.016C642.809 257.275 643.019 257.484 643.278 257.484H644.155C644.414 257.484 644.624 257.275 644.624 257.016C644.624 256.757 644.414 256.547 644.155 256.547Z" fill="#865EEA"/>
<path d="M644.155 258.739H643.278C643.019 258.739 642.809 258.948 642.809 259.207C642.809 259.466 643.019 259.676 643.278 259.676H644.155C644.414 259.676 644.624 259.466 644.624 259.207C644.624 258.948 644.414 258.739 644.155 258.739Z" fill="#865EEA"/>
<path d="M644.155 260.93H643.278C643.019 260.93 642.809 261.14 642.809 261.399C642.809 261.658 643.019 261.868 643.278 261.868H644.155C644.414 261.868 644.624 261.658 644.624 261.399C644.624 261.14 644.414 260.93 644.155 260.93Z" fill="#865EEA"/>
<path d="M644.155 263.122H643.278C643.019 263.122 642.809 263.331 642.809 263.59C642.809 263.849 643.019 264.059 643.278 264.059H644.155C644.414 264.059 644.624 263.849 644.624 263.59C644.624 263.331 644.414 263.122 644.155 263.122Z" fill="#865EEA"/>
<path d="M646.976 256.547H646.099C645.84 256.547 645.63 256.757 645.63 257.016C645.63 257.275 645.84 257.484 646.099 257.484H646.976C647.235 257.484 647.445 257.275 647.445 257.016C647.445 256.757 647.235 256.547 646.976 256.547Z" fill="#865EEA"/>
<path d="M646.976 258.739H646.099C645.84 258.739 645.63 258.948 645.63 259.207C645.63 259.466 645.84 259.676 646.099 259.676H646.976C647.235 259.676 647.445 259.466 647.445 259.207C647.445 258.948 647.235 258.739 646.976 258.739Z" fill="#865EEA"/>
<path d="M646.976 260.93H646.099C645.84 260.93 645.63 261.14 645.63 261.399C645.63 261.658 645.84 261.868 646.099 261.868H646.976C647.235 261.868 647.445 261.658 647.445 261.399C647.445 261.14 647.235 260.93 646.976 260.93Z" fill="#865EEA"/>
<path d="M643.716 250.712C642.542 250.712 641.586 251.667 641.586 252.841C641.586 254.016 642.542 254.971 643.716 254.971C644.891 254.971 645.846 254.016 645.846 252.841C645.846 251.667 644.891 250.712 643.716 250.712ZM643.716 254.034C643.059 254.034 642.524 253.499 642.524 252.841C642.524 252.184 643.059 251.649 643.716 251.649C644.374 251.649 644.909 252.184 644.909 252.841C644.909 253.499 644.374 254.034 643.716 254.034Z" fill="#865EEA"/>
<path d="M643.716 252.273C643.403 252.273 643.148 252.528 643.148 252.841C643.148 253.155 643.403 253.409 643.716 253.409C644.03 253.409 644.284 253.155 644.284 252.841C644.284 252.528 644.03 252.273 643.716 252.273Z" fill="#865EEA"/>
<path d="M655.683 260.478C655.683 260.737 655.893 260.947 656.151 260.947C656.41 260.947 656.62 260.737 656.62 260.478C656.62 258.023 654.623 256.026 652.167 256.026C651.909 256.026 651.699 256.235 651.699 256.494C651.699 256.753 651.909 256.963 652.167 256.963C654.106 256.963 655.683 258.54 655.683 260.478Z" fill="#865EEA"/>
<path d="M653.552 260.478C653.552 260.737 653.762 260.947 654.02 260.947C654.279 260.947 654.489 260.737 654.489 260.478C654.489 259.198 653.448 258.156 652.167 258.156C651.909 258.156 651.699 258.366 651.699 258.625C651.699 258.884 651.909 259.094 652.167 259.094C652.931 259.094 653.552 259.715 653.552 260.478Z" fill="#865EEA"/>
<path d="M651.897 261.273C652.186 261.273 652.421 261.038 652.421 260.749C652.421 260.459 652.186 260.225 651.897 260.225C651.608 260.225 651.373 260.459 651.373 260.749C651.373 261.038 651.608 261.273 651.897 261.273Z" fill="#865EEA"/>
<path d="M664.485 253.323C663.586 253.323 662.856 254.054 662.856 254.952V255.444C662.7 255.455 662.56 255.522 662.454 255.625L661.354 254.736C661.183 254.597 660.937 254.597 660.765 254.736L657.088 257.708C656.887 257.871 656.856 258.166 657.018 258.367C657.181 258.569 657.476 258.6 657.678 258.437L658.046 258.139V260.96C658.046 261.391 658.396 261.742 658.827 261.742H663.292C663.723 261.742 664.074 261.391 664.074 260.96V259.18H666.065C666.42 259.18 666.709 258.891 666.709 258.536V256.085C666.709 255.747 666.446 255.469 666.114 255.444V254.952C666.114 254.054 665.383 253.323 664.485 253.323ZM663.793 254.952C663.793 254.571 664.103 254.261 664.485 254.261C664.866 254.261 665.176 254.571 665.176 254.952V255.441H663.793V254.952H663.793ZM663.136 260.804H658.983V257.382L661.06 255.703L662.26 256.673V258.536C662.26 258.891 662.549 259.18 662.904 259.18H663.136V260.804H663.136ZM665.772 258.242H663.198V256.379H665.772V258.242Z" fill="#865EEA"/>
</g>
<g clip-path="url(#clip1)">
<path d="M603.743 228.137H603.491V227.021C603.491 226.439 603.092 225.949 602.554 225.806V212.339C602.554 211.049 601.505 210 600.214 210C598.924 210 597.874 211.049 597.874 212.339V225.806C597.336 225.949 596.938 226.439 596.938 227.021V228.137H595.93V227.021C595.93 226.439 595.532 225.949 594.994 225.806V212.339C594.994 211.049 593.944 210 592.654 210C591.363 210 590.314 211.049 590.314 212.339V213.958C590.314 214.257 590.555 214.498 590.854 214.498C591.152 214.498 591.394 214.257 591.394 213.958V212.339C591.394 211.645 591.959 211.08 592.654 211.08C593.348 211.08 593.914 211.645 593.914 212.339V225.762H591.394V216.478C591.394 216.179 591.152 215.938 590.854 215.938C590.555 215.938 590.314 216.179 590.314 216.478V225.806C589.776 225.949 589.377 226.439 589.377 227.021V228.137H589.125C588.47 228.137 587.937 228.67 587.937 229.325V234.456C587.886 236.983 589.349 239.486 591.466 240.89V242.927C591.466 244.001 592.325 244.877 593.392 244.905L593.562 245.82C593.672 246.417 594.193 246.85 594.801 246.85H598.067C598.675 246.85 599.196 246.416 599.306 245.82L599.476 244.905C600.543 244.877 601.402 244.001 601.402 242.927V240.89C601.977 240.459 602.586 239.988 603.1 239.387C603.294 239.161 603.269 238.82 603.043 238.626C602.817 238.431 602.476 238.457 602.281 238.683C601.931 239.121 601.187 239.707 600.679 240.084H596.517C596.218 240.084 595.977 240.326 595.977 240.624C595.977 240.922 596.218 241.164 596.517 241.164H600.322V241.956H592.546V241.164H593.975C594.274 241.164 594.515 240.922 594.515 240.624C594.515 240.326 594.274 240.084 593.975 240.084H592.189C590.307 238.841 589.001 236.793 589.017 234.456V229.325C589.017 229.265 589.066 229.217 589.125 229.217H603.743C603.802 229.217 603.851 229.265 603.851 229.325V234.456C603.848 235.131 603.737 235.902 603.466 236.655C603.364 236.936 603.51 237.245 603.79 237.347C604.071 237.448 604.38 237.303 604.481 237.022C604.75 236.285 604.93 235.366 604.931 234.456V229.325C604.931 228.67 604.398 228.137 603.743 228.137ZM598.244 245.623C598.228 245.708 598.154 245.77 598.067 245.77H594.801C594.714 245.77 594.64 245.708 594.624 245.623L594.491 244.907H598.377L598.244 245.623ZM600.315 243.035C600.262 243.481 599.882 243.827 599.422 243.827C599.32 243.827 593.47 243.827 593.446 243.827C592.986 243.827 592.606 243.481 592.553 243.035H600.315ZM594.85 228.137H590.458V227.021C590.458 226.922 590.538 226.842 590.638 226.842H594.67C594.769 226.842 594.85 226.922 594.85 227.021V228.137ZM598.954 212.339C598.954 211.645 599.52 211.08 600.214 211.08C600.909 211.08 601.474 211.645 601.474 212.339V225.762H598.954V212.339ZM602.41 228.137H598.018V227.021C598.018 226.922 598.099 226.842 598.198 226.842H602.23C602.33 226.842 602.41 226.922 602.41 227.021V228.137Z" fill="#D03EB7"/>
<path d="M598.534 230.43C597.877 230.102 597.171 229.936 596.434 229.936C593.834 229.936 591.718 232.051 591.718 234.65C591.718 237.25 593.834 239.365 596.434 239.365C599.035 239.365 601.15 237.25 601.15 234.65C601.15 233.878 600.958 233.111 600.595 232.432C600.454 232.17 600.127 232.071 599.864 232.211C599.601 232.352 599.502 232.679 599.643 232.942C599.923 233.464 600.07 234.055 600.07 234.65C600.07 236.655 598.439 238.285 596.434 238.285C594.429 238.285 592.798 236.655 592.798 234.65C592.798 232.646 594.429 231.016 596.434 231.016C597.002 231.016 597.546 231.144 598.052 231.396C598.318 231.529 598.643 231.42 598.776 231.154C598.909 230.887 598.801 230.563 598.534 230.43Z" fill="#D03EB7"/>
<path d="M597.505 235.787C597.685 235.787 597.86 235.697 597.963 235.534C598.122 235.282 598.046 234.949 597.793 234.79C597.386 234.534 596.916 234.399 596.434 234.399C595.952 234.399 595.482 234.534 595.075 234.79C594.822 234.949 594.746 235.282 594.905 235.534C595.064 235.787 595.398 235.862 595.65 235.704C596.047 235.462 596.679 235.368 597.218 235.704C597.307 235.76 597.407 235.787 597.505 235.787Z" fill="#D03EB7"/>
<path d="M598.571 234.305C598.748 234.305 598.922 234.217 599.025 234.057C599.187 233.806 599.114 233.472 598.863 233.311C597.482 232.4 595.463 232.348 594.004 233.311C593.754 233.472 593.681 233.806 593.842 234.057C594.003 234.307 594.338 234.38 594.588 234.219C595.624 233.537 597.163 233.483 598.279 234.219C598.369 234.277 598.471 234.305 598.571 234.305Z" fill="#D03EB7"/>
<path d="M596.434 237.277C596.732 237.277 596.974 237.036 596.974 236.738C596.974 236.44 596.732 236.198 596.434 236.198C596.136 236.198 595.894 236.44 595.894 236.738C595.894 237.036 596.136 237.277 596.434 237.277Z" fill="#D03EB7"/>
</g>
<path d="M149 82.75C142.108 82.75 136.5 88.3575 136.5 95.25C136.5 102.142 142.108 107.75 149 107.75C155.892 107.75 161.5 102.142 161.5 95.25C161.5 88.3575 155.892 82.75 149 82.75ZM149 84C155.203 84 160.25 89.0469 160.25 95.25C160.25 96.0912 160.156 96.9298 159.97 97.75H151.798C151.72 97.0623 151.392 96.4272 150.876 95.9661C150.36 95.5049 149.692 95.25 149 95.25C148.308 95.25 147.64 95.5049 147.124 95.9661C146.608 96.4272 146.28 97.0623 146.202 97.75H138.03C137.844 96.9298 137.75 96.0912 137.75 95.25C137.75 89.0469 142.797 84 149 84ZM149 98.375C149.166 98.375 149.325 98.3092 149.442 98.1919C149.559 98.0747 149.625 97.9158 149.625 97.75V96.631C149.955 96.7747 150.225 97.0276 150.391 97.3472C150.556 97.6668 150.606 98.0337 150.533 98.386C150.46 98.7384 150.267 99.0547 149.988 99.2817C149.709 99.5088 149.36 99.6328 149 99.6328C148.64 99.6328 148.291 99.5088 148.012 99.2817C147.733 99.0547 147.54 98.7384 147.467 98.386C147.394 98.0337 147.444 97.6668 147.609 97.3472C147.775 97.0276 148.045 96.7747 148.375 96.631V97.75C148.375 97.9158 148.441 98.0747 148.558 98.1919C148.675 98.3092 148.834 98.375 149 98.375ZM149 106.5C144.111 106.5 139.941 103.365 138.394 99H146.344C146.537 99.5503 146.896 100.027 147.372 100.364C147.848 100.701 148.417 100.883 149 100.883C149.583 100.883 150.152 100.701 150.628 100.364C151.104 100.027 151.463 99.5503 151.656 99H159.606C158.059 103.365 153.889 106.5 149 106.5Z" fill="#865EEA"/>
<path d="M164 95.25C164 86.979 157.271 80.25 149 80.25C140.729 80.25 134 86.979 134 95.25C133.999 97.2735 134.409 99.2762 135.204 101.137C135.999 102.998 137.164 104.678 138.627 106.075L137.902 105.894C137.741 105.855 137.572 105.881 137.431 105.966C137.29 106.052 137.188 106.189 137.148 106.35C137.108 106.51 137.133 106.679 137.217 106.821C137.302 106.963 137.439 107.065 137.598 107.106L138.728 107.389L138.028 107.855C137.96 107.9 137.9 107.959 137.854 108.027C137.808 108.095 137.776 108.172 137.76 108.253C137.743 108.333 137.743 108.417 137.759 108.497C137.775 108.578 137.807 108.655 137.852 108.724C137.898 108.792 137.957 108.851 138.025 108.897C138.094 108.942 138.171 108.974 138.251 108.99C138.332 109.006 138.415 109.006 138.496 108.989C138.577 108.973 138.653 108.941 138.722 108.895L139.625 108.293V109.625C139.625 109.791 139.691 109.95 139.808 110.067C139.925 110.184 140.084 110.25 140.25 110.25C140.416 110.25 140.575 110.184 140.692 110.067C140.809 109.95 140.875 109.791 140.875 109.625V107.853C143.296 109.418 146.117 110.25 149 110.25C151.883 110.25 154.704 109.418 157.125 107.853V109.625C157.125 109.791 157.191 109.95 157.308 110.067C157.425 110.184 157.584 110.25 157.75 110.25C157.916 110.25 158.075 110.184 158.192 110.067C158.309 109.95 158.375 109.791 158.375 109.625V108.293L159.278 108.895C159.416 108.986 159.585 109.019 159.746 108.986C159.908 108.953 160.051 108.857 160.142 108.72C160.234 108.582 160.267 108.414 160.235 108.252C160.203 108.09 160.109 107.947 159.972 107.855L159.272 107.389L160.402 107.106C160.561 107.065 160.698 106.963 160.783 106.821C160.867 106.679 160.892 106.51 160.852 106.35C160.812 106.189 160.71 106.052 160.569 105.966C160.428 105.881 160.259 105.855 160.098 105.894L159.373 106.075C160.836 104.678 162.001 102.998 162.796 101.137C163.592 99.2762 164.001 97.2735 164 95.25ZM135.25 95.25C135.25 87.6682 141.418 81.5 149 81.5C156.582 81.5 162.75 87.6682 162.75 95.25C162.75 102.832 156.582 109 149 109C141.418 109 135.25 102.832 135.25 95.25Z" fill="#865EEA"/>
<path d="M149 104C149.345 104 149.625 103.72 149.625 103.375C149.625 103.03 149.345 102.75 149 102.75C148.655 102.75 148.375 103.03 148.375 103.375C148.375 103.72 148.655 104 149 104Z" fill="#865EEA"/>
<path d="M146.656 103.844C146.915 103.844 147.125 103.634 147.125 103.375C147.125 103.116 146.915 102.906 146.656 102.906C146.397 102.906 146.188 103.116 146.188 103.375C146.188 103.634 146.397 103.844 146.656 103.844Z" fill="#865EEA"/>
<path d="M151.344 103.844C151.603 103.844 151.812 103.634 151.812 103.375C151.812 103.116 151.603 102.906 151.344 102.906C151.085 102.906 150.875 103.116 150.875 103.375C150.875 103.634 151.085 103.844 151.344 103.844Z" fill="#865EEA"/>
<path d="M139.859 114.887L139.234 115.387C139.105 115.491 139.022 115.641 139.004 115.806C138.986 115.971 139.033 116.136 139.137 116.266C139.241 116.395 139.391 116.478 139.556 116.496C139.721 116.515 139.886 116.467 140.016 116.363L140.641 115.863C140.77 115.759 140.853 115.609 140.871 115.444C140.89 115.279 140.842 115.114 140.738 114.984C140.635 114.855 140.484 114.772 140.319 114.754C140.154 114.735 139.989 114.783 139.859 114.887Z" fill="#865EEA"/>
<path d="M143.526 110.269C143.366 110.229 143.195 110.254 143.053 110.339C142.911 110.424 142.809 110.563 142.769 110.724C142.503 111.782 141.995 112.764 141.284 113.593C141.23 113.655 141.189 113.727 141.163 113.805C141.137 113.883 141.127 113.966 141.133 114.048C141.139 114.13 141.161 114.21 141.198 114.284C141.235 114.357 141.286 114.423 141.349 114.476C141.411 114.53 141.484 114.571 141.562 114.596C141.64 114.622 141.723 114.632 141.805 114.625C141.887 114.619 141.967 114.596 142.04 114.559C142.114 114.522 142.179 114.47 142.232 114.408C143.069 113.431 143.668 112.274 143.982 111.027C144.002 110.947 144.006 110.864 143.993 110.783C143.981 110.702 143.953 110.624 143.911 110.553C143.869 110.483 143.813 110.422 143.747 110.373C143.681 110.324 143.606 110.289 143.526 110.269Z" fill="#865EEA"/>
<path d="M149 115.875C148.834 115.875 148.675 115.941 148.558 116.058C148.441 116.175 148.375 116.334 148.375 116.5V117.125C148.375 117.291 148.441 117.45 148.558 117.567C148.675 117.684 148.834 117.75 149 117.75C149.166 117.75 149.325 117.684 149.442 117.567C149.559 117.45 149.625 117.291 149.625 117.125V116.5C149.625 116.334 149.559 116.175 149.442 116.058C149.325 115.941 149.166 115.875 149 115.875Z" fill="#865EEA"/>
<path d="M149.625 112.125C149.625 111.959 149.559 111.8 149.442 111.683C149.325 111.566 149.166 111.5 149 111.5C148.834 111.5 148.675 111.566 148.558 111.683C148.441 111.8 148.375 111.959 148.375 112.125V114C148.375 114.166 148.441 114.325 148.558 114.442C148.675 114.559 148.834 114.625 149 114.625C149.166 114.625 149.325 114.559 149.442 114.442C149.559 114.325 149.625 114.166 149.625 114V112.125Z" fill="#865EEA"/>
<path d="M143.625 117.078C143.758 117.178 143.924 117.22 144.088 117.197C144.252 117.173 144.401 117.086 144.5 116.953L144.875 116.453C145.07 116.193 145.249 115.922 145.411 115.641C145.494 115.497 145.517 115.326 145.474 115.166C145.431 115.006 145.326 114.87 145.183 114.787C145.039 114.704 144.869 114.682 144.708 114.724C144.548 114.767 144.412 114.872 144.329 115.016C144.191 115.254 144.04 115.483 143.875 115.703L143.5 116.203C143.401 116.336 143.358 116.502 143.381 116.667C143.405 116.831 143.492 116.979 143.625 117.078Z" fill="#865EEA"/>
<path d="M146.242 113.609C146.413 112.946 146.5 112.263 146.5 111.578C146.5 111.412 146.434 111.253 146.317 111.136C146.2 111.019 146.041 110.953 145.875 110.953C145.709 110.953 145.55 111.019 145.433 111.136C145.316 111.253 145.25 111.412 145.25 111.578C145.25 112.158 145.176 112.735 145.032 113.297C145.011 113.376 145.006 113.459 145.018 113.54C145.029 113.622 145.057 113.7 145.098 113.771C145.14 113.841 145.195 113.903 145.261 113.952C145.326 114.002 145.401 114.038 145.48 114.058C145.56 114.079 145.643 114.083 145.724 114.072C145.805 114.061 145.883 114.033 145.954 113.992C146.025 113.95 146.087 113.895 146.136 113.829C146.185 113.763 146.221 113.689 146.242 113.609H146.242Z" fill="#865EEA"/>
<path d="M158.141 114.887C158.011 114.783 157.846 114.735 157.681 114.754C157.516 114.772 157.366 114.855 157.262 114.984C157.158 115.114 157.111 115.279 157.129 115.444C157.147 115.609 157.23 115.759 157.359 115.863L157.984 116.363C158.114 116.467 158.279 116.515 158.444 116.496C158.609 116.478 158.76 116.395 158.863 116.266C158.967 116.136 159.015 115.971 158.996 115.806C158.978 115.641 158.895 115.491 158.766 115.387L158.141 114.887Z" fill="#865EEA"/>
<path d="M156.242 114.625C156.362 114.625 156.479 114.591 156.579 114.526C156.68 114.461 156.76 114.369 156.81 114.261C156.86 114.152 156.877 114.031 156.861 113.913C156.844 113.794 156.794 113.683 156.716 113.593C156.005 112.764 155.497 111.782 155.231 110.723C155.212 110.643 155.177 110.568 155.128 110.501C155.079 110.435 155.018 110.379 154.948 110.336C154.877 110.293 154.799 110.265 154.717 110.253C154.636 110.24 154.552 110.244 154.472 110.264C154.392 110.284 154.317 110.32 154.251 110.369C154.185 110.418 154.129 110.48 154.087 110.551C154.045 110.622 154.017 110.7 154.005 110.782C153.994 110.864 153.998 110.947 154.019 111.027C154.332 112.274 154.931 113.431 155.768 114.407C155.827 114.476 155.9 114.531 155.981 114.568C156.063 114.606 156.152 114.625 156.242 114.625Z" fill="#865EEA"/>
<path d="M153.125 116.453L153.5 116.953C153.549 117.019 153.611 117.074 153.682 117.116C153.752 117.158 153.831 117.185 153.912 117.197C153.993 117.208 154.076 117.204 154.155 117.184C154.235 117.163 154.31 117.127 154.375 117.078C154.441 117.029 154.496 116.967 154.538 116.897C154.58 116.826 154.607 116.748 154.619 116.667C154.631 116.585 154.626 116.503 154.606 116.423C154.585 116.344 154.549 116.269 154.5 116.203L154.125 115.703C153.96 115.483 153.809 115.254 153.671 115.016C153.588 114.872 153.452 114.767 153.292 114.724C153.132 114.682 152.961 114.704 152.817 114.787C152.674 114.87 152.569 115.006 152.526 115.166C152.483 115.326 152.506 115.497 152.589 115.641C152.751 115.922 152.93 116.193 153.125 116.453Z" fill="#865EEA"/>
<path d="M152.968 113.297C152.823 112.735 152.75 112.158 152.75 111.578C152.75 111.412 152.684 111.253 152.567 111.136C152.45 111.019 152.291 110.953 152.125 110.953C151.959 110.953 151.8 111.019 151.683 111.136C151.566 111.253 151.5 111.412 151.5 111.578C151.5 112.263 151.587 112.946 151.758 113.609C151.778 113.689 151.814 113.763 151.864 113.829C151.913 113.895 151.975 113.95 152.046 113.992C152.116 114.033 152.194 114.061 152.276 114.072C152.357 114.083 152.44 114.079 152.519 114.058C152.599 114.038 152.673 114.002 152.739 113.952C152.804 113.903 152.86 113.841 152.901 113.771C152.943 113.7 152.97 113.622 152.982 113.54C152.993 113.459 152.989 113.376 152.968 113.297H152.968Z" fill="#865EEA"/>
<path d="M142.785 90.6999C142.914 90.8044 143.079 90.8536 143.243 90.8367C143.408 90.8197 143.56 90.7379 143.664 90.6093C144.495 89.5882 145.601 88.8267 146.851 88.4149C148.102 88.003 149.444 87.9583 150.719 88.2858C150.798 88.3063 150.881 88.311 150.962 88.2996C151.044 88.2881 151.122 88.2608 151.193 88.2191C151.263 88.1774 151.325 88.1222 151.374 88.0566C151.424 87.991 151.46 87.9164 151.48 87.8369C151.501 87.7574 151.505 87.6747 151.494 87.5934C151.483 87.5122 151.455 87.4339 151.414 87.3632C151.372 87.2925 151.317 87.2307 151.251 87.1814C151.186 87.132 151.111 87.096 151.031 87.0755C149.525 86.6882 147.939 86.741 146.461 87.2275C144.984 87.7141 143.677 88.614 142.695 89.8207C142.59 89.9492 142.541 90.1141 142.558 90.2789C142.575 90.4438 142.657 90.5952 142.785 90.6999Z" fill="#865EEA"/>
<path d="M152.437 88.989C153.164 89.4089 153.807 89.958 154.336 90.6093C154.441 90.7379 154.592 90.8197 154.757 90.8366C154.922 90.8535 155.087 90.8043 155.215 90.6996C155.344 90.595 155.426 90.4436 155.443 90.2786C155.46 90.1137 155.41 89.9488 155.306 89.8203C154.681 89.0511 153.921 88.4026 153.063 87.9067C152.92 87.8236 152.749 87.801 152.589 87.8438C152.429 87.8865 152.293 87.9912 152.21 88.1346C152.127 88.2781 152.104 88.4487 152.147 88.6088C152.189 88.769 152.294 88.9056 152.437 88.9886L152.437 88.989Z" fill="#865EEA"/>
<path d="M148.355 89.9461C148.335 89.8666 148.299 89.7919 148.25 89.7262C148.2 89.6606 148.138 89.6054 148.068 89.5636C147.997 89.5219 147.919 89.4945 147.837 89.4831C147.756 89.4716 147.673 89.4762 147.594 89.4968C146.431 89.8003 145.395 90.466 144.635 91.3974C144.53 91.526 144.481 91.6909 144.498 91.8558C144.515 92.0207 144.597 92.1722 144.725 92.2768C144.854 92.3814 145.019 92.4307 145.184 92.4138C145.349 92.3968 145.5 92.3151 145.605 92.1865C146.195 91.4616 147.002 90.9436 147.906 90.7072C148.067 90.6658 148.204 90.5624 148.289 90.4196C148.373 90.2769 148.397 90.1065 148.355 89.9461Z" fill="#865EEA"/>
<path d="M149.702 89.363C149.539 89.3442 149.374 89.3907 149.245 89.4925C149.115 89.5943 149.031 89.743 149.011 89.9065C148.99 90.0699 149.035 90.2348 149.136 90.3653C149.236 90.4958 149.384 90.5813 149.547 90.6033C150.666 90.7423 151.687 91.3097 152.395 92.1862C152.447 92.2499 152.511 92.3027 152.583 92.3417C152.655 92.3807 152.734 92.4051 152.816 92.4135C152.898 92.4219 152.98 92.4141 153.059 92.3906C153.138 92.3671 153.211 92.3283 153.275 92.2765C153.338 92.2247 153.391 92.1608 153.43 92.0886C153.469 92.0164 153.493 91.9372 153.502 91.8555C153.51 91.7739 153.502 91.6913 153.479 91.6127C153.455 91.534 153.417 91.4608 153.365 91.3971C152.453 90.2704 151.14 89.5412 149.702 89.363Z" fill="#865EEA"/>
<path d="M149 91.8193C148.536 91.8186 148.077 91.9219 147.657 92.1217C147.237 92.3214 146.868 92.6125 146.575 92.9736C146.523 93.0373 146.485 93.1106 146.461 93.1892C146.438 93.2679 146.43 93.3504 146.438 93.4321C146.447 93.5137 146.471 93.5929 146.51 93.6652C146.549 93.7374 146.602 93.8012 146.666 93.8531C146.729 93.9049 146.803 93.9436 146.881 93.9671C146.96 93.9906 147.042 93.9984 147.124 93.99C147.206 93.9816 147.285 93.9572 147.357 93.9182C147.429 93.8792 147.493 93.8264 147.545 93.7627C147.72 93.5459 147.942 93.371 148.194 93.2511C148.446 93.1311 148.721 93.069 149 93.0693C149.166 93.0693 149.325 93.0035 149.442 92.8863C149.559 92.7691 149.625 92.6101 149.625 92.4443C149.625 92.2786 149.559 92.1196 149.442 92.0024C149.325 91.8852 149.166 91.8193 149 91.8193Z" fill="#865EEA"/>
<path d="M151.067 92.6008C150.942 92.4911 150.779 92.4353 150.614 92.4457C150.448 92.456 150.294 92.5317 150.184 92.656C150.075 92.7803 150.019 92.9431 150.029 93.1086C150.039 93.2741 150.115 93.4286 150.239 93.5383C150.317 93.6072 150.389 93.6823 150.455 93.7629C150.507 93.8266 150.571 93.8794 150.643 93.9184C150.715 93.9574 150.794 93.9818 150.876 93.9902C150.958 93.9985 151.04 93.9908 151.119 93.9673C151.198 93.9438 151.271 93.905 151.334 93.8532C151.398 93.8014 151.451 93.7375 151.49 93.6653C151.529 93.5931 151.553 93.5139 151.562 93.4322C151.57 93.3506 151.562 93.2681 151.539 93.1894C151.515 93.1108 151.476 93.0375 151.425 92.9739C151.316 92.8399 151.196 92.7152 151.067 92.6008Z" fill="#865EEA"/>
<path d="M86.4549 190.419C86.5674 190.51 86.7116 190.554 86.8559 190.539C87.0002 190.524 87.1327 190.452 87.2242 190.34C87.9512 189.446 88.919 188.78 90.013 188.42C91.107 188.059 92.2814 188.02 93.397 188.307C93.4668 188.325 93.5395 188.33 93.611 188.32C93.6826 188.31 93.7515 188.287 93.8138 188.25C93.8761 188.214 93.9305 188.165 93.974 188.108C94.0175 188.05 94.0492 187.984 94.0672 187.915C94.0852 187.845 94.0892 187.772 94.0789 187.7C94.0686 187.629 94.0443 187.56 94.0074 187.498C93.9705 187.436 93.9216 187.382 93.8637 187.339C93.8057 187.296 93.7398 187.265 93.6698 187.248C92.3515 186.909 90.9638 186.955 89.6709 187.381C88.3781 187.806 87.2345 188.594 86.3754 189.65C86.3301 189.705 86.2963 189.769 86.2757 189.838C86.2552 189.907 86.2484 189.979 86.2558 190.051C86.2632 190.122 86.2846 190.191 86.3187 190.255C86.3529 190.318 86.3991 190.374 86.4549 190.419Z" fill="#865EEA"/>
<path d="M94.9004 188.922C95.536 189.289 96.0991 189.77 96.5619 190.34C96.6534 190.452 96.7859 190.524 96.9302 190.539C97.0745 190.553 97.2188 190.51 97.3313 190.419C97.4438 190.327 97.5154 190.195 97.5302 190.05C97.545 189.906 97.5019 189.762 97.4104 189.649C96.8639 188.976 96.199 188.409 95.4485 187.975C95.3863 187.938 95.3174 187.914 95.2458 187.904C95.1742 187.894 95.1014 187.898 95.0315 187.916C94.9616 187.935 94.896 187.967 94.8385 188.011C94.781 188.054 94.7328 188.109 94.6966 188.172C94.6604 188.234 94.6369 188.303 94.6276 188.375C94.6183 188.447 94.6233 188.519 94.6422 188.589C94.6612 188.659 94.6938 188.724 94.7382 188.781C94.7826 188.838 94.8378 188.886 94.9007 188.922L94.9004 188.922Z" fill="#865EEA"/>
<path d="M91.329 189.759C91.2928 189.619 91.2023 189.499 91.0775 189.425C90.9526 189.351 90.8035 189.33 90.6631 189.366C89.6454 189.632 88.7386 190.214 88.0739 191.029C88.0285 191.085 87.9946 191.149 87.9741 191.218C87.9535 191.287 87.9467 191.359 87.954 191.43C87.9614 191.502 87.9827 191.571 88.0168 191.634C88.051 191.698 88.0972 191.753 88.1529 191.799C88.2086 191.844 88.2727 191.878 88.3415 191.899C88.4104 191.919 88.4825 191.926 88.554 191.919C88.6983 191.904 88.8308 191.832 88.9224 191.72C89.4392 191.086 90.1444 190.632 90.9359 190.426C91.0055 190.408 91.0708 190.376 91.1283 190.333C91.1857 190.29 91.234 190.236 91.2705 190.174C91.307 190.112 91.331 190.044 91.341 189.972C91.3511 189.901 91.347 189.829 91.329 189.759Z" fill="#865EEA"/>
<path d="M94.864 191.72C94.9555 191.832 95.088 191.904 95.2323 191.919C95.3766 191.933 95.5209 191.89 95.6334 191.799C95.7459 191.707 95.8175 191.575 95.8323 191.43C95.8471 191.286 95.804 191.142 95.7124 191.029C94.915 190.043 93.7661 189.405 92.5077 189.249C92.3638 189.231 92.2186 189.271 92.1041 189.36C91.9897 189.449 91.9152 189.58 91.8973 189.724C91.8793 189.868 91.9193 190.013 92.0083 190.128C92.0974 190.242 92.2283 190.316 92.3722 190.334C93.3508 190.456 94.2441 190.953 94.864 191.72Z" fill="#865EEA"/>
<path d="M91.8934 191.398C91.4868 191.398 91.0852 191.488 90.718 191.663C90.3509 191.838 90.0275 192.092 89.7716 192.408C89.7263 192.464 89.6924 192.528 89.6718 192.597C89.6513 192.666 89.6444 192.738 89.6518 192.81C89.6591 192.881 89.6805 192.95 89.7146 193.014C89.7487 193.077 89.7949 193.133 89.8507 193.178C89.9064 193.223 89.9705 193.257 90.0393 193.278C90.1081 193.298 90.1803 193.305 90.2518 193.298C90.3961 193.283 90.5286 193.211 90.6201 193.099C90.7736 192.909 90.9676 192.756 91.188 192.651C91.4083 192.546 91.6493 192.492 91.8934 192.492C92.0384 192.492 92.1775 192.435 92.2801 192.332C92.3826 192.229 92.4402 192.09 92.4402 191.945C92.4402 191.8 92.3826 191.661 92.2801 191.559C92.1775 191.456 92.0384 191.398 91.8934 191.398Z" fill="#865EEA"/>
<path d="M93.7014 192.082C93.5926 191.986 93.4501 191.937 93.3053 191.946C93.1606 191.955 93.0253 192.022 92.9293 192.13C92.8333 192.239 92.7845 192.382 92.7935 192.526C92.8026 192.671 92.8688 192.806 92.9776 192.902C93.0458 192.963 93.1089 193.028 93.1664 193.099C93.2579 193.211 93.3904 193.283 93.5347 193.298C93.679 193.312 93.8233 193.269 93.9358 193.178C94.0483 193.086 94.1198 192.954 94.1346 192.809C94.1494 192.665 94.1063 192.521 94.0147 192.408C93.9194 192.291 93.8146 192.182 93.7014 192.082Z" fill="#865EEA"/>
<path d="M97.2701 191.745C97.2079 191.781 97.1534 191.829 97.1098 191.886C97.0661 191.943 97.0341 192.008 97.0156 192.078C96.997 192.147 96.9923 192.219 97.0018 192.29C97.0112 192.362 97.0346 192.43 97.0705 192.492C97.598 193.407 97.8754 194.444 97.875 195.5C97.8746 196.556 97.5964 197.593 97.0683 198.507C96.5402 199.421 95.7809 200.18 94.8665 200.708C93.9522 201.236 92.9151 201.513 91.8594 201.513C90.8037 201.513 89.7665 201.236 88.8522 200.708C87.9379 200.18 87.1785 199.421 86.6504 198.507C86.1224 197.593 85.8441 196.556 85.8438 195.5C85.8434 194.444 86.1208 193.407 86.6482 192.492C86.7208 192.367 86.7406 192.218 86.7032 192.078C86.6658 191.937 86.5742 191.818 86.4487 191.745C86.3231 191.673 86.1739 191.653 86.0337 191.69C85.8936 191.728 85.7741 191.819 85.7014 191.945C85.0779 193.026 84.7497 194.251 84.75 195.499C84.7503 196.747 85.079 197.973 85.703 199.053C86.327 200.134 87.2245 201.031 88.3051 201.655C89.3858 202.279 90.6116 202.607 91.8594 202.607C93.1072 202.607 94.333 202.279 95.4136 201.655C96.4943 201.031 97.3917 200.134 98.0158 199.053C98.6398 197.973 98.9685 196.747 98.9688 195.499C98.969 194.251 98.6409 193.026 98.0173 191.945C97.9814 191.883 97.9335 191.828 97.8765 191.784C97.8195 191.741 97.7544 191.709 97.685 191.69C97.6156 191.672 97.5433 191.667 97.4721 191.676C97.4009 191.686 97.3323 191.709 97.2701 191.745Z" fill="#865EEA"/>
<path d="M91.8594 193.859C91.7143 193.859 91.5752 193.917 91.4727 194.02C91.3701 194.122 91.3125 194.261 91.3125 194.406V197.687C91.3125 197.833 91.3701 197.972 91.4727 198.074C91.5752 198.177 91.7143 198.234 91.8594 198.234C92.0044 198.234 92.1435 198.177 92.2461 198.074C92.3486 197.972 92.4062 197.833 92.4062 197.687V194.406C92.4062 194.261 92.3486 194.122 92.2461 194.02C92.1435 193.917 92.0044 193.859 91.8594 193.859Z" fill="#865EEA"/>
<path d="M91.8594 204.797C92.1614 204.797 92.4062 204.552 92.4062 204.25C92.4062 203.948 92.1614 203.703 91.8594 203.703C91.5573 203.703 91.3125 203.948 91.3125 204.25C91.3125 204.552 91.5573 204.797 91.8594 204.797Z" fill="#865EEA"/>
<path d="M89.8086 204.66C90.0351 204.66 90.2188 204.477 90.2188 204.25C90.2188 204.023 90.0351 203.84 89.8086 203.84C89.5821 203.84 89.3984 204.023 89.3984 204.25C89.3984 204.477 89.5821 204.66 89.8086 204.66Z" fill="#865EEA"/>
<path d="M93.9102 204.66C94.1367 204.66 94.3203 204.477 94.3203 204.25C94.3203 204.023 94.1367 203.84 93.9102 203.84C93.6836 203.84 93.5 204.023 93.5 204.25C93.5 204.477 93.6836 204.66 93.9102 204.66Z" fill="#865EEA"/>
<path d="M108.266 196.047H103.344V190.578H106.078C106.193 190.578 106.306 190.542 106.399 190.474C106.493 190.406 106.562 190.311 106.598 190.201C106.634 190.091 106.634 189.973 106.599 189.863C106.563 189.754 106.494 189.658 106.401 189.59L92.182 179.199C92.0883 179.131 91.9754 179.094 91.8594 179.094C91.7434 179.094 91.6304 179.131 91.5367 179.199L87.4844 182.16V181.281C87.4844 181.136 87.4267 180.997 87.3242 180.895C87.2216 180.792 87.0825 180.734 86.9375 180.734H82.5625C82.4174 180.734 82.2783 180.792 82.1758 180.895C82.0732 180.997 82.0156 181.136 82.0156 181.281V186.157L77.3179 189.59C77.2248 189.658 77.1556 189.754 77.1202 189.863C77.0847 189.973 77.085 190.091 77.1207 190.201C77.1565 190.311 77.2261 190.406 77.3195 190.474C77.4128 190.542 77.5252 190.578 77.6406 190.578H80.375V207.531C80.375 207.676 80.4326 207.815 80.5352 207.918C80.6377 208.02 80.7768 208.078 80.9219 208.078H100.062V210.266C100.063 210.701 100.236 211.118 100.544 211.425C100.851 211.733 101.268 211.906 101.703 211.906H108.266C108.701 211.906 109.118 211.733 109.425 211.425C109.733 211.118 109.906 210.701 109.906 210.266V197.687C109.906 197.253 109.733 196.836 109.425 196.528C109.118 196.22 108.701 196.047 108.266 196.047ZM108.812 197.687V198.234H101.156V197.687C101.156 197.542 101.214 197.403 101.317 197.301C101.419 197.198 101.558 197.141 101.703 197.141H108.266C108.411 197.141 108.55 197.198 108.652 197.301C108.755 197.403 108.812 197.542 108.812 197.687ZM108.812 208.078H101.156V199.328H108.812V208.078ZM104.984 210.812C104.876 210.812 104.77 210.78 104.681 210.72C104.591 210.66 104.52 210.575 104.479 210.475C104.438 210.375 104.427 210.265 104.448 210.159C104.469 210.053 104.521 209.955 104.598 209.879C104.674 209.802 104.772 209.75 104.878 209.729C104.984 209.708 105.094 209.719 105.194 209.76C105.294 209.802 105.379 209.872 105.439 209.962C105.499 210.052 105.531 210.157 105.531 210.266C105.531 210.411 105.473 210.55 105.371 210.652C105.268 210.755 105.129 210.812 104.984 210.812ZM81.4687 206.984V190.031C81.4687 189.886 81.4111 189.747 81.3086 189.645C81.206 189.542 81.0669 189.484 80.9219 189.484H79.3158L82.8851 186.876C82.9546 186.825 83.0111 186.759 83.0501 186.682C83.089 186.605 83.1094 186.521 83.1094 186.435V181.828H86.3906V183.237C86.3906 183.338 86.4186 183.437 86.4714 183.523C86.5242 183.609 86.5998 183.679 86.6899 183.725C86.7799 183.771 86.8809 183.791 86.9815 183.782C87.0822 183.774 87.1786 183.738 87.2601 183.679L91.8594 180.318L104.403 189.484H102.797C102.652 189.484 102.513 189.542 102.41 189.645C102.308 189.747 102.25 189.886 102.25 190.031V196.047H101.703C101.268 196.047 100.851 196.22 100.544 196.528C100.236 196.836 100.063 197.253 100.062 197.687V206.984H81.4687ZM101.156 210.266V209.172H103.763C103.566 209.391 103.432 209.659 103.375 209.948C103.318 210.236 103.339 210.535 103.438 210.812H101.703C101.558 210.812 101.419 210.755 101.317 210.652C101.214 210.55 101.156 210.411 101.156 210.266ZM108.266 210.812H106.531C106.629 210.535 106.651 210.236 106.594 209.948C106.537 209.659 106.403 209.391 106.206 209.172H108.812V210.266C108.812 210.411 108.755 210.55 108.652 210.652C108.55 210.755 108.411 210.812 108.266 210.812Z" fill="#865EEA"/>
<path d="M102.25 204.797H103.344V205.891H102.25V204.797Z" fill="#865EEA"/>
<path d="M104.438 203.703H105.531V205.891H104.438V203.703Z" fill="#865EEA"/>
<path d="M106.625 202.609H107.719V205.891H106.625V202.609Z" fill="#865EEA"/>
<defs>
<filter id="filter0_f" x="91.4072" y="44.7515" width="115.521" height="106.641" filterUnits="userSpaceOnUse" color-interpolation-filters="sRGB">
<feFlood flood-opacity="0" result="BackgroundImageFix"/>
<feBlend mode="normal" in="SourceGraphic" in2="BackgroundImageFix" result="shape"/>
<feGaussianBlur stdDeviation="10" result="effect1_foregroundBlur"/>
</filter>
<filter id="filter1_f" x="537.407" y="175.751" width="115.521" height="106.641" filterUnits="userSpaceOnUse" color-interpolation-filters="sRGB">
<feFlood flood-opacity="0" result="BackgroundImageFix"/>
<feBlend mode="normal" in="SourceGraphic" in2="BackgroundImageFix" result="shape"/>
<feGaussianBlur stdDeviation="10" result="effect1_foregroundBlur"/>
</filter>
<linearGradient id="paint0_linear" x1="111.407" y1="96.1925" x2="186.928" y2="96.1925" gradientUnits="userSpaceOnUse">
<stop stop-color="#854ACF"/>
<stop offset="1" stop-color="#CE5CB4"/>
</linearGradient>
<linearGradient id="paint1_linear" x1="111.407" y1="96.1925" x2="186.928" y2="96.1925" gradientUnits="userSpaceOnUse">
<stop stop-color="#854ACF"/>
<stop offset="1" stop-color="#CE5CB4"/>
</linearGradient>
<linearGradient id="paint2_linear" x1="557.407" y1="227.193" x2="632.928" y2="227.193" gradientUnits="userSpaceOnUse">
<stop stop-color="#854ACF"/>
<stop offset="1" stop-color="#CE5CB4"/>
</linearGradient>
<linearGradient id="paint3_linear" x1="557.407" y1="227.193" x2="632.928" y2="227.193" gradientUnits="userSpaceOnUse">
<stop stop-color="#854ACF"/>
<stop offset="1" stop-color="#CE5CB4"/>
</linearGradient>
<clipPath id="clip0">
<rect width="32" height="32" fill="white" transform="translate(637 246)"/>
</clipPath>
<clipPath id="clip1">
<rect width="36.8668" height="36.8498" fill="white" transform="translate(578 210)"/>
</clipPath>
</defs>
</svg>
