<svg width="14" height="14" viewBox="0 0 14 14" fill="none" xmlns="http://www.w3.org/2000/svg">
<path d="M9.93325 0H4.06678C1.82435 0 0 1.82435 0 4.06678V9.93322C0 12.1757 1.82435 14 4.06678 14H9.93322C12.1757 14 14 12.1757 14 9.93325V4.06678C14 1.82435 12.1757 0 9.93325 0ZM12.9062 9.93322C12.9062 11.5726 11.5726 12.9062 9.93325 12.9062H4.06678C2.42744 12.9062 1.09375 11.5726 1.09375 9.93325V4.06678C1.09375 2.42744 2.42744 1.09375 4.06678 1.09375H9.93322C11.5726 1.09375 12.9062 2.42744 12.9062 4.06678V9.93322Z" fill="#7B7791"/>
<path d="M7 3.22656C4.9193 3.22656 3.22656 4.9193 3.22656 7C3.22656 9.0807 4.9193 10.7734 7 10.7734C9.0807 10.7734 10.7734 9.0807 10.7734 7C10.7734 4.9193 9.0807 3.22656 7 3.22656ZM7 9.67969C5.52243 9.67969 4.32031 8.47757 4.32031 7C4.32031 5.52243 5.52243 4.32031 7 4.32031C8.47757 4.32031 9.67969 5.52243 9.67969 7C9.67969 8.47757 8.47757 9.67969 7 9.67969Z" fill="#7B7791"/>
<path d="M10.8281 3.71875C11.1302 3.71875 11.375 3.47391 11.375 3.17188C11.375 2.86984 11.1302 2.625 10.8281 2.625C10.5261 2.625 10.2812 2.86984 10.2812 3.17188C10.2812 3.47391 10.5261 3.71875 10.8281 3.71875Z" fill="#7B7791"/>
</svg>
