<svg width="16" height="16" viewBox="0 0 16 16" fill="none" xmlns="http://www.w3.org/2000/svg">
<g opacity="0.5" clip-path="url(#clip0)">
<path d="M14.3878 1.61218C13.3481 0.57251 11.9712 0 10.5105 0H5.4895C4.02881 0 2.65173 0.57251 1.61218 1.61218C0.57251 2.65173 0 4.02881 0 5.4895V10.5104C0 11.9712 0.57251 13.3483 1.61218 14.3878C2.65173 15.4275 4.02881 16 5.4895 16H10.5105C11.9712 16 13.3483 15.4275 14.3878 14.3878C15.4274 13.3483 16 11.9712 16 10.5104V5.4895C16 4.02881 15.4274 2.65173 14.3878 1.61218ZM8 12.2344C5.66516 12.2344 3.76562 10.3348 3.76562 8C3.76562 5.66516 5.66516 3.76562 8 3.76562C10.3348 3.76562 12.2344 5.66516 12.2344 8C12.2344 10.3348 10.3348 12.2344 8 12.2344ZM12.6909 3.97205C12.6038 4.0592 12.4828 4.10925 12.3595 4.10925C12.2361 4.10925 12.1154 4.0592 12.0282 3.97205C11.9407 3.88477 11.8907 3.76392 11.8907 3.6405C11.8907 3.51709 11.9407 3.39612 12.0282 3.30896C12.1154 3.22168 12.236 3.17175 12.3595 3.17175C12.4828 3.17175 12.6038 3.22168 12.6909 3.30896C12.7782 3.39612 12.8282 3.51709 12.8282 3.6405C12.8282 3.76379 12.7782 3.88477 12.6909 3.97205Z" fill="#7B7791"/>
</g>
<defs>
<clipPath id="clip0">
<rect width="16" height="16" fill="white"/>
</clipPath>
</defs>
</svg>
