<svg width="15" height="15" viewBox="0 0 15 15" fill="none" xmlns="http://www.w3.org/2000/svg">
<g clip-path="url(#clip0)">
<path d="M0.100586 4.86377V15.0001H3.74966V4.86377H0.100586ZM2.93878 14.1892H0.911494V5.67468H2.93875V14.1892H2.93878Z" fill="url(#paint0_linear)"/>
<path d="M1.88646 -0.477539C0.870479 -0.477539 0.132812 0.225264 0.132812 1.19376C0.132812 2.14603 0.872441 2.86389 1.85362 2.86389C2.36717 2.86389 2.81105 2.69602 3.1373 2.37885C3.45127 2.07316 3.62433 1.65229 3.62392 1.18427C3.60095 0.205869 2.88666 -0.477539 1.88646 -0.477539ZM2.57187 1.7976C2.40001 1.96468 2.15175 2.05298 1.85359 2.05298C1.31787 2.05298 0.943721 1.69978 0.943721 1.19376C0.943721 0.679014 1.32265 0.333369 1.88646 0.333369C2.44557 0.333369 2.80073 0.666767 2.81301 1.19417C2.81301 1.43174 2.72746 1.64596 2.57187 1.7976Z" fill="url(#paint1_linear)"/>
<path d="M11.4889 4.86556C10.3407 4.86556 9.59309 5.22143 9.11877 5.59719L9.05036 4.86377H5.74951V15.0001H8.99314V9.67476C8.99314 9.45816 9.08669 9.0072 9.1338 8.90583C9.466 8.18914 9.9266 8.18914 10.6484 8.18914C11.4407 8.18914 12.1354 8.9375 12.1354 9.82323V15.0001H15.2777V9.28397C15.2777 6.24819 13.3186 4.86556 11.4889 4.86556ZM14.4668 14.1892H12.9463V9.82323C12.9463 8.49799 11.8813 7.37823 10.6495 7.37823C9.86432 7.37823 8.96007 7.37823 8.41011 8.56411C8.29488 8.81196 8.18224 9.38214 8.18224 9.67476V14.1892H6.56042V5.67468H8.31706L8.4394 6.89103H9.0852L9.20399 6.6989C9.39483 6.39163 9.98985 5.67676 11.4889 5.67676C12.9282 5.67676 14.4668 6.80533 14.4668 9.28397V14.1892Z" fill="url(#paint2_linear)"/>
</g>
<defs>
<linearGradient id="paint0_linear" x1="0.100586" y1="9.64604" x2="3.74966" y2="9.64604" gradientUnits="userSpaceOnUse">
<stop stop-color="#854ACF"/>
<stop offset="1" stop-color="#CE5CB4"/>
</linearGradient>
<linearGradient id="paint1_linear" x1="0.132813" y1="1.09893" x2="3.62392" y2="1.09893" gradientUnits="userSpaceOnUse">
<stop stop-color="#854ACF"/>
<stop offset="1" stop-color="#CE5CB4"/>
</linearGradient>
<linearGradient id="paint2_linear" x1="5.74951" y1="9.64604" x2="15.2777" y2="9.64604" gradientUnits="userSpaceOnUse">
<stop stop-color="#854ACF"/>
<stop offset="1" stop-color="#CE5CB4"/>
</linearGradient>
<clipPath id="clip0">
<rect width="15" height="15" fill="white"/>
</clipPath>
</defs>
</svg>
