<svg width="59" height="58" viewBox="0 0 59 58" fill="none" xmlns="http://www.w3.org/2000/svg">
<path fill-rule="evenodd" clip-rule="evenodd" d="M0 1.78718V3.57436H6.51519H13.0304V18.539V33.5037H19.6909H26.3514V16.7518V0H13.1757H0V1.78718ZM32.5517 16.7518V33.5037H39.188H45.8243V18.539V3.57436H52.3637H58.9031V1.78718V0H45.7274H32.5517V16.7518ZM0 46.5859V47.5152H1.23522H2.47044V52.7338V57.9523H5.59483H8.71921V52.7338V47.5152H9.95443H11.1897V46.5859V45.6565H5.59483H0V46.5859ZM12.9819 51.8283V57.9523H17.6322H22.2824V56.9753V55.9984H20.805H19.3276V54.378V52.7576H20.805H22.2824V51.8044V50.8513H20.805H19.3276V49.2793V47.7072L20.7929 47.6946L22.2582 47.682L22.2713 46.6931L22.2844 45.7042H17.6332H12.9819V51.8283ZM28.6206 45.7585C26.7217 45.9726 25.311 47.0191 24.926 48.4991C24.8153 48.9245 24.825 49.7398 24.9462 50.2064C25.1254 50.8956 25.292 51.1501 26.6841 52.8607C27.8773 54.3269 27.9944 54.487 28.0435 54.7195C28.1415 55.1842 27.9219 55.6451 27.4957 55.8694C27.3091 55.9677 27.2223 55.9755 26.1697 55.9896L25.0435 56.0047V56.9785V57.9523L27.9862 57.9521C31.2612 57.9518 31.5202 57.9339 32.3619 57.6504C33.0406 57.4218 33.52 57.1375 33.9827 56.6894C34.3073 56.3751 34.4163 56.2286 34.6035 55.8554C34.9003 55.2638 34.9906 54.8401 34.9591 54.1873C34.9318 53.6232 34.7895 53.1168 34.5238 52.6385C34.4364 52.4812 33.8001 51.656 33.1098 50.8046C32.4194 49.9533 31.8271 49.1812 31.7935 49.0889C31.6141 48.5955 31.8585 48.0069 32.3303 47.7961C32.5034 47.7187 32.6624 47.7078 33.631 47.7069C34.5779 47.706 34.7386 47.6954 34.7631 47.6327C34.7788 47.5924 34.7758 47.142 34.7563 46.6319L34.7209 45.7042L31.8562 45.7104C30.2805 45.7139 28.8245 45.7355 28.6206 45.7585ZM37.2504 51.8283V57.9523H41.6827H46.1149V56.9753V55.9984H44.8797H43.6445V50.8513V45.7042H40.4475H37.2504V51.8283ZM49.8933 45.7216C49.8933 45.7394 47.2993 57.6488 47.2524 57.8461L47.2267 57.9543L48.23 57.9414L49.2332 57.9285L49.3685 57.309C49.4429 56.9682 49.5384 56.5339 49.5807 56.3439L49.6577 55.9984H50.7943C51.8318 55.9984 51.9337 56.0056 51.9637 56.0818C51.9818 56.1277 52.107 56.5619 52.242 57.0468L52.4873 57.9285L55.6952 57.9408C57.4596 57.9475 58.9031 57.9422 58.9031 57.929C58.9031 57.8902 56.2866 45.879 56.2583 45.7876C56.234 45.7093 56.0393 45.7042 53.0629 45.7042C51.3196 45.7042 49.8933 45.712 49.8933 45.7216ZM51.1509 52.514C51.3384 53.3367 51.4918 54.0176 51.4918 54.0271C51.4918 54.0366 51.1757 54.0444 50.7894 54.0444C50.2651 54.0444 50.087 54.0294 50.087 53.9857C50.087 53.9131 50.7111 51.0932 50.7491 50.9942C50.7857 50.8987 50.7649 50.82 51.1509 52.514Z" fill="url(#paint0_linear)"/>
<defs>
<linearGradient id="paint0_linear" x1="1.5535e-08" y1="27.3425" x2="58.9031" y2="27.3425" gradientUnits="userSpaceOnUse">
<stop stop-color="#854ACF"/>
<stop offset="1" stop-color="#CE5CB4"/>
</linearGradient>
</defs>
</svg>
