<svg width="17" height="17" viewBox="0 0 17 17" fill="none" xmlns="http://www.w3.org/2000/svg">
<path opacity="0.5" d="M15.625 9.12542C15.5005 10.473 14.9948 11.7572 14.167 12.8279C13.3392 13.8985 12.2236 14.7113 10.9508 15.171C9.67798 15.6308 8.30053 15.7185 6.97965 15.424C5.65877 15.1295 4.44908 14.4648 3.49214 13.5079C2.5352 12.551 1.87058 11.3413 1.57605 10.0204C1.28153 8.69951 1.36928 7.32207 1.82903 6.04924C2.28879 4.7764 3.10154 3.66083 4.17217 2.83305C5.24281 2.00528 6.52705 1.49953 7.87463 1.375C7.08566 2.44238 6.70601 3.75748 6.80472 5.08112C6.90342 6.40476 7.47393 7.649 8.41249 8.58756C9.35104 9.52611 10.5953 10.0966 11.9189 10.1953C13.2426 10.294 14.5577 9.91438 15.625 9.12542V9.12542Z" stroke="white" stroke-width="1.5" stroke-linecap="round" stroke-linejoin="round"/>
</svg>
