<svg width="16" height="16" viewBox="0 0 16 16" fill="none" xmlns="http://www.w3.org/2000/svg">
<path d="M6.62612 5.23728C6.29478 5.03928 5.87012 5.27862 5.87012 5.66662V10.3333C5.87012 10.7233 6.29545 10.9593 6.62612 10.7633L10.5388 8.43328C10.8641 8.23928 10.8634 7.76861 10.5394 7.57395L6.62612 5.23728ZM6.87012 9.45394V6.54728L9.30678 8.00261L6.87012 9.45394Z" fill="#7B7791"/>
<path d="M13.2693 2.18058C10.1673 1.71992 5.834 1.71992 2.73067 2.18058C1.48933 2.36458 0.511333 3.33925 0.298 4.60458C-0.0993333 6.95325 -0.0993333 9.04725 0.298 11.3953C0.511333 12.6613 1.48933 13.6353 2.73067 13.8193C4.28533 14.0499 6.14666 14.1652 8.00733 14.1652C9.86466 14.1652 11.7213 14.0506 13.27 13.8199C14.51 13.6359 15.4873 12.6619 15.702 11.3959C16.0993 9.04725 16.0993 6.95258 15.702 4.60392C15.4887 3.33925 14.5107 2.36458 13.2693 2.18058ZM14.716 11.2292C14.574 12.0666 13.934 12.7106 13.1227 12.8306C10.1107 13.2779 5.89733 13.2779 2.87733 12.8299C2.06533 12.7093 1.42467 12.0659 1.28333 11.2286C0.900666 8.96592 0.900666 7.03458 1.28333 4.77058C1.42533 3.93325 2.06533 3.29058 2.878 3.16925C4.386 2.94592 6.19333 2.83392 7.99933 2.83392C9.80666 2.83392 11.614 2.94592 13.122 3.16925C13.934 3.28992 14.5747 3.93325 14.716 4.77058C15.0987 7.03458 15.0987 8.96592 14.716 11.2292Z" fill="#7B7791"/>
</svg>
