<svg width="70" height="70" viewBox="0 0 70 70" fill="none" xmlns="http://www.w3.org/2000/svg">
<path d="M38.7858 11.9091V12.8182H36.9286C36.4158 12.8182 36 13.2252 36 13.7273C36 14.2293 36.4158 14.6364 36.9286 14.6364H37.8572V27.3636H36.9286C36.4158 27.3636 36 27.7707 36 28.2727C36 28.7748 36.4158 29.1818 36.9286 29.1818H38.7858V30.0909C38.7858 30.593 39.2015 31 39.7144 31C40.2272 31 40.6429 30.593 40.6429 30.0909V29.1818H42.5001V30.0909C42.5001 30.593 42.9159 31 43.4287 31C43.9415 31 44.3573 30.593 44.3573 30.0909V29.1818C46.9138 29.189 48.9922 27.1659 48.9997 24.6631C49.004 23.2175 48.3036 21.8567 47.1143 21C49.1734 19.5166 49.6143 16.6798 48.0989 14.664C47.2237 13.4997 45.8338 12.814 44.3573 12.8182V11.9091C44.3573 11.407 43.9415 11 43.4287 11C42.9159 11 42.5001 11.407 42.5001 11.9091V12.8182H40.6429V11.9091C40.6429 11.407 40.2272 11 39.7144 11C39.2015 11 38.7858 11.407 38.7858 11.9091ZM39.7144 14.6364H44.3573C45.8959 14.6364 47.1431 15.8574 47.1431 17.3636C47.1431 18.8699 45.8959 20.0909 44.3573 20.0909H39.7144V14.6364ZM39.7144 21.9091H44.3573C45.8959 21.9091 47.1431 23.1301 47.1431 24.6364C47.1431 26.1426 45.8959 27.3636 44.3573 27.3636H39.7144V21.9091Z" fill="url(#paint0_linear)"/>
<path d="M40.5041 36.0897C39.4505 35.9812 38.4111 35.7626 37.4031 35.4375C36.8275 35.2851 36.2296 35.5906 36.0157 36.1464C35.7842 36.7478 36.0842 37.4229 36.6856 37.6542C37.8495 38.0296 39.0496 38.2817 40.2661 38.4067C40.3049 38.4112 40.3438 38.4135 40.3828 38.4137L40.3875 38.423C41.0317 38.4553 41.5802 37.959 41.6125 37.3147C41.6447 36.6704 41.1484 36.1219 40.5041 36.0897Z" fill="url(#paint1_linear)"/>
<path d="M55.2531 12.5173C55.2518 12.5173 55.2505 12.517 55.249 12.517C55.248 12.517 55.2471 12.5173 55.2461 12.5173H55.2531Z" fill="url(#paint2_linear)"/>
<path d="M55.9071 14.7781C56.3421 15.7433 56.6742 16.7519 56.8976 17.7869C57.0134 18.3236 57.4878 18.7068 58.0368 18.7074C58.1202 18.7071 58.2034 18.6981 58.2849 18.6806C58.9141 18.5443 59.3142 17.924 59.1785 17.2946C58.92 16.0993 58.5367 14.9344 58.0352 13.8191C57.7704 13.2315 57.0793 12.9697 56.4917 13.2346C55.9039 13.4994 55.6422 14.1905 55.9071 14.7781Z" fill="url(#paint3_linear)"/>
<path d="M52.1826 9.69274C52.9721 10.3996 53.6861 11.1867 54.3129 12.0412C54.5321 12.3398 54.8802 12.5161 55.2503 12.5169C55.4969 12.5162 55.7371 12.4375 55.936 12.2916C56.4558 11.9109 56.5685 11.1808 56.1876 10.6611C55.4666 9.6767 54.6456 8.76961 53.7376 7.95441C53.7221 7.93968 53.7062 7.92553 53.6899 7.91168C53.1982 7.49547 52.462 7.55657 52.0456 8.04847C51.6294 8.54036 51.6907 9.27638 52.1826 9.69274Z" fill="url(#paint4_linear)"/>
<path d="M52.2368 32.27C51.4487 32.9801 50.5885 33.6057 49.6702 34.1367C49.311 34.3451 49.0896 34.7286 49.0889 35.1438C49.0877 35.7881 49.6092 36.3114 50.2535 36.3125L50.2488 36.309C50.4578 36.3128 50.6639 36.2596 50.845 36.155C51.9024 35.5425 52.8929 34.8211 53.8002 34.0025C54.2786 33.5709 54.3164 32.8331 53.8848 32.3546C53.4531 31.8761 52.7152 31.8384 52.2368 32.27Z" fill="url(#paint5_linear)"/>
<path d="M46.7738 35.4282C45.7671 35.7555 44.7289 35.9764 43.6763 36.0874C43.0887 36.1518 42.6422 36.6455 42.6368 37.2365C42.6309 37.8808 43.1485 38.4079 43.7929 38.4137V38.4102C43.8326 38.4102 43.8734 38.4079 43.9189 38.4055C45.1346 38.2778 46.3335 38.0229 47.4959 37.6449C47.5268 37.6361 47.5575 37.6262 47.5877 37.615C48.1916 37.3902 48.4988 36.7185 48.2741 36.1146C48.0494 35.5107 47.3777 35.2035 46.7738 35.4282Z" fill="url(#paint6_linear)"/>
<path d="M57.237 20.9999C57.2368 22.0595 57.127 23.1164 56.9092 24.1534C56.9092 24.1534 56.9092 24.1534 56.9092 24.1536C56.7762 24.784 57.1794 25.4029 57.8098 25.5359C57.8893 25.5521 57.9702 25.5603 58.0513 25.5604H58.0536C58.6039 25.5591 59.0784 25.1735 59.1923 24.6353C59.4439 23.4399 59.5704 22.2216 59.5703 20.9999V20.9323C59.5703 20.9247 59.5702 20.9172 59.57 20.9098C59.5545 20.2811 59.0323 19.784 58.4036 19.7994C57.7531 19.8159 57.2348 20.3492 57.237 20.9999Z" fill="url(#paint7_linear)"/>
<path d="M57.4719 26.5755C56.8833 26.313 56.1933 26.5772 55.9308 27.1658C55.4991 28.1337 54.9672 29.0538 54.3441 29.911C54.1994 30.1101 54.1212 30.3498 54.1211 30.596C54.1205 31.2403 54.6425 31.7631 55.2867 31.7637C55.6608 31.7638 56.0121 31.5846 56.2318 31.2818C56.9506 30.2935 57.5641 29.2326 58.0623 28.1167C58.3248 27.5281 58.0605 26.838 57.4719 26.5755Z" fill="url(#paint8_linear)"/>
<path d="M34.5027 34.1565C33.5847 33.6251 32.7246 32.9995 31.9361 32.2898C31.9273 32.2817 31.9183 32.2736 31.9092 32.2658C31.4232 31.8427 30.6863 31.8939 30.2632 32.38C29.8401 32.866 29.8913 33.6029 30.3774 34.026C31.2867 34.8421 32.2782 35.5615 33.3361 36.1726C33.5132 36.2754 33.7145 36.3294 33.9194 36.329V36.3336C34.3362 36.3336 34.7213 36.1112 34.9297 35.7503C35.2519 35.1922 35.0607 34.4786 34.5027 34.1565Z" fill="url(#paint9_linear)"/>
<path d="M26.0963 25.5967C26.1787 25.5968 26.2608 25.5881 26.3415 25.5709C26.9716 25.4363 27.3732 24.8162 27.2385 24.1862C27.0177 23.1506 26.9055 22.0949 26.9036 21.0362C26.9036 20.3919 26.3813 19.8695 25.737 19.8695C25.0927 19.8695 24.5703 20.3919 24.5703 21.0362C24.5721 22.2577 24.7016 23.4757 24.9565 24.6703C25.071 25.2086 25.5459 25.5938 26.0963 25.5943V25.5967Z" fill="url(#paint10_linear)"/>
<path d="M29.559 31.5634C30.0792 31.1832 30.1928 30.4533 29.8126 29.9331C29.1878 29.0781 28.6545 28.1599 28.2213 27.1938C27.9537 26.6294 27.2891 26.3758 26.7135 26.6186C26.1198 26.869 25.8416 27.5534 26.0921 28.1469C26.5917 29.2624 27.2067 30.3225 27.9273 31.3098C28.1473 31.6109 28.4981 31.7887 28.8711 31.7881C29.1186 31.788 29.3593 31.7094 29.559 31.5634Z" fill="url(#paint11_linear)"/>
<path d="M25.8449 18.7809C25.9236 18.7971 26.0037 18.8053 26.0841 18.8054H26.0864C26.6373 18.804 27.1122 18.4172 27.2251 17.8779C27.4423 16.8419 27.7677 15.8315 28.1957 14.8633C28.1999 14.8539 28.2042 14.8446 28.2083 14.8351C28.4617 14.2427 28.187 13.557 27.5947 13.3036C27.0024 13.0501 26.3167 13.3249 26.0632 13.9172C25.5681 15.0359 25.192 16.2036 24.9409 17.4009C24.8092 18.0316 25.214 18.6495 25.8449 18.7809Z" fill="url(#paint12_linear)"/>
<path d="M46.708 6.55316C47.7161 6.87764 48.6871 7.30785 49.6048 7.83649C49.7821 7.93887 49.9834 7.99239 50.1881 7.99166L50.1846 7.98816C50.603 7.98889 50.9896 7.76562 51.1982 7.40279C51.5193 6.8441 51.3267 6.13097 50.768 5.80999C49.7072 5.20187 48.5857 4.70604 47.422 4.33066C46.8083 4.13349 46.1509 4.47124 45.9537 5.08491C45.7566 5.69858 46.0942 6.35599 46.708 6.55316Z" fill="url(#paint13_linear)"/>
<path d="M40.3125 5.92668C40.3572 5.92697 40.4022 5.92464 40.4466 5.91968C41.5001 5.80929 42.5622 5.80608 43.6165 5.91035C44.2576 5.97481 44.8295 5.50727 44.894 4.86618C44.9584 4.2251 44.4909 3.65314 43.8498 3.58868C42.6346 3.46779 41.4102 3.47172 40.1958 3.60035C39.6082 3.66481 39.1617 4.15845 39.1563 4.74952C39.1505 5.39381 39.6682 5.92085 40.3125 5.92668Z" fill="url(#paint14_linear)"/>
<path d="M28.8311 12.5999C29.2056 12.6005 29.5575 12.4213 29.7772 12.1181C30.3986 11.2594 31.1078 10.4681 31.8936 9.75677C31.895 9.75546 31.8965 9.75414 31.8979 9.75283C32.3744 9.31898 32.4088 8.58106 31.9749 8.10477C31.5411 7.62833 30.8032 7.59392 30.3269 8.02777C29.4214 8.84794 28.6039 9.76012 27.8874 10.7496C27.7439 10.9481 27.6665 11.1868 27.666 11.4318C27.665 12.0761 28.1866 12.5991 28.8311 12.5999Z" fill="url(#paint15_linear)"/>
<path d="M33.8658 8.04184C34.0732 8.04242 34.2769 7.98759 34.4561 7.88317C35.3718 7.35059 36.3407 6.91542 37.3471 6.58467C37.3563 6.58176 37.3657 6.57869 37.3748 6.57563C37.9844 6.36694 38.3095 5.70355 38.1008 5.09397C37.8921 4.48438 37.2287 4.15932 36.6191 4.36801C35.4576 4.74922 34.3392 5.25132 33.2825 5.86601C32.9233 6.0744 32.7019 6.45794 32.7012 6.87313C32.7 7.51742 33.2214 8.04067 33.8658 8.04184Z" fill="url(#paint16_linear)"/>
<path d="M42.0703 42C53.6628 41.9864 63.0567 32.5924 63.0703 21C63.0703 9.40202 53.6683 0 42.0703 0C30.4723 0 21.0703 9.40202 21.0703 21C21.0703 32.598 30.4723 42 42.0703 42ZM42.0703 2.33333C52.3746 2.34558 60.7247 10.6957 60.737 21C60.737 31.3092 52.3796 39.6667 42.0703 39.6667C31.7611 39.6667 23.4036 31.3092 23.4036 21C23.4036 10.6907 31.7609 2.33333 42.0703 2.33333Z" fill="url(#paint17_linear)"/>
<path d="M69.3061 47.7167C68.0065 45.4983 65.1649 44.737 62.9303 46.0087L50.6756 53.0833C50.4376 51.1493 49.0388 49.5588 47.1511 49.0758L36.1705 47.1333C34.5997 46.7753 33.0864 46.2004 31.6741 45.4253C28.7614 43.9097 25.5204 43.134 22.237 43.1667C19.0097 43.1207 15.8206 43.8687 12.9503 45.3448C11.842 45.9282 10.6428 46.3194 9.40365 46.5022V43.1667C9.40365 42.5224 8.88127 42 8.23698 42H1.23698C0.592687 42 0.0703125 42.5224 0.0703125 43.1667V68.8333C0.0703125 69.4776 0.592687 70 1.23698 70H8.23698C8.88127 70 9.40365 69.4776 9.40365 68.8333V65.3333H12.3553C13.4043 65.3348 14.4511 65.43 15.4831 65.618L38.6998 69.8308C39.513 69.9735 40.3505 69.8269 41.067 69.4167L67.597 54.0983C69.0483 53.2712 69.9404 51.7252 69.9303 50.0547C69.9303 49.2342 69.7151 48.428 69.3061 47.7167ZM7.07031 67.6667H2.40365V44.3333H7.07031V67.6667ZM66.4303 52.073L39.8945 67.3948C39.6547 67.5299 39.376 67.5789 39.1046 67.5337L15.8996 63.322C14.7302 63.1094 13.544 63.0016 12.3553 63H9.40365V48.8448C11.0268 48.6494 12.6009 48.1609 14.0493 47.4028C16.5851 46.1172 19.3943 45.4643 22.237 45.5C25.1283 45.4649 27.9838 46.1404 30.553 47.467C32.171 48.3541 33.9057 49.0092 35.7062 49.413L46.6436 51.352C47.8886 51.6848 48.6281 52.9638 48.2954 54.2087C48.2946 54.2112 48.294 54.2137 48.2933 54.2162C48.2414 54.4093 48.1629 54.5942 48.06 54.7657V54.775H48.0541C47.5084 55.664 46.453 56.1014 45.4385 55.8588C45.3947 55.847 45.3504 55.838 45.3055 55.832L30.5705 53.6737C29.936 53.5617 29.3308 53.9852 29.2188 54.6197C29.1068 55.2542 29.5303 55.8594 30.1648 55.9714C30.1871 55.9754 30.2097 55.9787 30.2321 55.9813L44.9053 58.1315C45.2734 58.2221 45.651 58.2679 46.03 58.268H46.0463C47.5844 58.2676 49.0226 57.5057 49.887 56.2333L64.0923 48.0293C65.2068 47.3824 66.6348 47.7614 67.2817 48.876C67.4886 49.2326 67.5974 49.6377 67.597 50.05C67.6024 50.8856 67.1563 51.6591 66.4303 52.073Z" fill="white"/>
<defs>
<linearGradient id="paint0_linear" x1="36" y1="20.4359" x2="49" y2="20.4359" gradientUnits="userSpaceOnUse">
<stop stop-color="#854ACF"/>
<stop offset="1" stop-color="#CE5CB4"/>
</linearGradient>
<linearGradient id="paint1_linear" x1="35.9375" y1="36.8261" x2="41.6139" y2="36.8261" gradientUnits="userSpaceOnUse">
<stop stop-color="#854ACF"/>
<stop offset="1" stop-color="#CE5CB4"/>
</linearGradient>
<linearGradient id="paint2_linear" x1="55.2461" y1="12.5171" x2="55.2531" y2="12.5171" gradientUnits="userSpaceOnUse">
<stop stop-color="#854ACF"/>
<stop offset="1" stop-color="#CE5CB4"/>
</linearGradient>
<linearGradient id="paint3_linear" x1="55.8037" y1="15.762" x2="59.205" y2="15.762" gradientUnits="userSpaceOnUse">
<stop stop-color="#854ACF"/>
<stop offset="1" stop-color="#CE5CB4"/>
</linearGradient>
<linearGradient id="paint4_linear" x1="51.7695" y1="9.93854" x2="56.4133" y2="9.93854" gradientUnits="userSpaceOnUse">
<stop stop-color="#854ACF"/>
<stop offset="1" stop-color="#CE5CB4"/>
</linearGradient>
<linearGradient id="paint5_linear" x1="49.0889" y1="34.0185" x2="54.1853" y2="34.0185" gradientUnits="userSpaceOnUse">
<stop stop-color="#854ACF"/>
<stop offset="1" stop-color="#CE5CB4"/>
</linearGradient>
<linearGradient id="paint6_linear" x1="42.6367" y1="36.7979" x2="48.3477" y2="36.7979" gradientUnits="userSpaceOnUse">
<stop stop-color="#854ACF"/>
<stop offset="1" stop-color="#CE5CB4"/>
</linearGradient>
<linearGradient id="paint7_linear" x1="56.8838" y1="22.5172" x2="59.5703" y2="22.5172" gradientUnits="userSpaceOnUse">
<stop stop-color="#854ACF"/>
<stop offset="1" stop-color="#CE5CB4"/>
</linearGradient>
<linearGradient id="paint8_linear" x1="54.1211" y1="28.9696" x2="58.1638" y2="28.9696" gradientUnits="userSpaceOnUse">
<stop stop-color="#854ACF"/>
<stop offset="1" stop-color="#CE5CB4"/>
</linearGradient>
<linearGradient id="paint9_linear" x1="29.9766" y1="34.0336" x2="35.0862" y2="34.0336" gradientUnits="userSpaceOnUse">
<stop stop-color="#854ACF"/>
<stop offset="1" stop-color="#CE5CB4"/>
</linearGradient>
<linearGradient id="paint10_linear" x1="24.5703" y1="22.5716" x2="27.2645" y2="22.5716" gradientUnits="userSpaceOnUse">
<stop stop-color="#854ACF"/>
<stop offset="1" stop-color="#CE5CB4"/>
</linearGradient>
<linearGradient id="paint11_linear" x1="26" y1="29.009" x2="30.0374" y2="29.009" gradientUnits="userSpaceOnUse">
<stop stop-color="#854ACF"/>
<stop offset="1" stop-color="#CE5CB4"/>
</linearGradient>
<linearGradient id="paint12_linear" x1="24.916" y1="15.8495" x2="28.3026" y2="15.8495" gradientUnits="userSpaceOnUse">
<stop stop-color="#854ACF"/>
<stop offset="1" stop-color="#CE5CB4"/>
</linearGradient>
<linearGradient id="paint13_linear" x1="45.8975" y1="6.02819" x2="51.3536" y2="6.02819" gradientUnits="userSpaceOnUse">
<stop stop-color="#854ACF"/>
<stop offset="1" stop-color="#CE5CB4"/>
</linearGradient>
<linearGradient id="paint14_linear" x1="39.1563" y1="4.64536" x2="44.8999" y2="4.64536" gradientUnits="userSpaceOnUse">
<stop stop-color="#854ACF"/>
<stop offset="1" stop-color="#CE5CB4"/>
</linearGradient>
<linearGradient id="paint15_linear" x1="27.666" y1="10.0242" x2="32.2791" y2="10.0242" gradientUnits="userSpaceOnUse">
<stop stop-color="#854ACF"/>
<stop offset="1" stop-color="#CE5CB4"/>
</linearGradient>
<linearGradient id="paint16_linear" x1="32.7012" y1="6.06792" x2="38.164" y2="6.06792" gradientUnits="userSpaceOnUse">
<stop stop-color="#854ACF"/>
<stop offset="1" stop-color="#CE5CB4"/>
</linearGradient>
<linearGradient id="paint17_linear" x1="21.0703" y1="19.8154" x2="63.0703" y2="19.8154" gradientUnits="userSpaceOnUse">
<stop stop-color="#854ACF"/>
<stop offset="1" stop-color="#CE5CB4"/>
</linearGradient>
</defs>
</svg>
