<svg width="70" height="70" viewBox="0 0 70 70" fill="none" xmlns="http://www.w3.org/2000/svg">
<g clip-path="url(#clip0)">
<path d="M24.7917 61.25H7.29167C3.2725 61.25 0 57.9775 0 53.9583V16.0417C0 12.0225 3.2725 8.75 7.29167 8.75H62.7083C66.7275 8.75 70 12.0225 70 16.0417V30.625C70 31.43 69.3467 32.0833 68.5417 32.0833C67.7367 32.0833 67.0833 31.43 67.0833 30.625V16.0417C67.0833 13.6296 65.1204 11.6667 62.7083 11.6667H7.29167C4.87958 11.6667 2.91667 13.6296 2.91667 16.0417V53.9583C2.91667 56.3704 4.87958 58.3333 7.29167 58.3333H24.7917C25.5967 58.3333 26.25 58.9867 26.25 59.7917C26.25 60.5967 25.5967 61.25 24.7917 61.25Z" fill="white"/>
<path d="M21.875 46.6667H1.45833C0.653333 46.6667 0 46.0134 0 45.2084V24.7917C0 23.9867 0.653333 23.3334 1.45833 23.3334H21.875C25.8942 23.3334 29.1667 26.6059 29.1667 30.625V32.5792C29.1667 33.3842 28.5133 34.0375 27.7083 34.0375C26.9033 34.0375 26.25 33.3842 26.25 32.5792V30.625C26.25 28.213 24.2871 26.25 21.875 26.25H2.91667V43.75H21.875C22.6683 43.5575 23.45 44.0475 23.6396 44.8292C23.8292 45.6109 23.3538 46.4071 22.5721 46.5967C22.2833 46.6667 22.0383 46.6667 21.875 46.6667Z" fill="white"/>
<path d="M14.5833 40.8333C11.3662 40.8333 8.75 38.217 8.75 35C8.75 31.7829 11.3662 29.1666 14.5833 29.1666C17.8004 29.1666 20.4167 31.7829 20.4167 35C20.4167 38.217 17.8004 40.8333 14.5833 40.8333ZM14.5833 32.0833C12.9762 32.0833 11.6667 33.3929 11.6667 35C11.6667 36.607 12.9762 37.9166 14.5833 37.9166C16.1904 37.9166 17.5 36.607 17.5 35C17.5 33.3929 16.1904 32.0833 14.5833 32.0833Z" fill="white"/>
<path d="M51.7715 59.7916H46.6673C45.8623 59.7916 45.209 59.1383 45.209 58.3333C45.209 57.5283 45.8623 56.875 46.6673 56.875H51.7715C52.979 56.875 53.959 55.895 53.959 54.6875C53.959 53.48 52.979 52.5 51.7715 52.5H50.3131C47.4986 52.5 45.209 50.2104 45.209 47.3958C45.209 44.5812 47.4986 42.2916 50.3131 42.2916H55.4173C56.2223 42.2916 56.8756 42.945 56.8756 43.75C56.8756 44.555 56.2223 45.2083 55.4173 45.2083H50.3131C49.1056 45.2083 48.1256 46.1883 48.1256 47.3958C48.1256 48.6033 49.1056 49.5833 50.3131 49.5833H51.7715C54.5861 49.5833 56.8756 51.8729 56.8756 54.6875C56.8756 57.502 54.5861 59.7916 51.7715 59.7916Z" fill="url(#paint0_linear)"/>
<path d="M51.0423 70C40.589 70 32.084 61.495 32.084 51.0417C32.084 40.5884 40.589 32.0834 51.0423 32.0834C61.4956 32.0834 70.0006 40.5884 70.0006 51.0417C70.0006 61.495 61.4956 70 51.0423 70ZM51.0423 35C42.1961 35 35.0007 42.1955 35.0007 51.0417C35.0007 59.888 42.1961 67.0834 51.0423 67.0834C59.8886 67.0834 67.084 59.888 67.084 51.0417C67.084 42.1955 59.8886 35 51.0423 35Z" fill="url(#paint1_linear)"/>
<path d="M51.0423 62.7083C50.2373 62.7083 49.584 62.055 49.584 61.25V59.0625C49.584 58.2575 50.2373 57.6041 51.0423 57.6041C51.8473 57.6041 52.5006 58.2575 52.5006 59.0625V61.25C52.5006 62.055 51.8473 62.7083 51.0423 62.7083Z" fill="url(#paint2_linear)"/>
<path d="M51.0423 44.4792C50.2373 44.4792 49.584 43.8258 49.584 43.0208V40.8333C49.584 40.0283 50.2373 39.375 51.0423 39.375C51.8473 39.375 52.5006 40.0283 52.5006 40.8333V43.0208C52.5006 43.8258 51.8473 44.4792 51.0423 44.4792Z" fill="url(#paint3_linear)"/>
</g>
<defs>
<linearGradient id="paint0_linear" x1="45.209" y1="50.548" x2="56.8756" y2="50.548" gradientUnits="userSpaceOnUse">
<stop stop-color="#854ACF"/>
<stop offset="1" stop-color="#CE5CB4"/>
</linearGradient>
<linearGradient id="paint1_linear" x1="32.084" y1="49.9722" x2="70.0006" y2="49.9722" gradientUnits="userSpaceOnUse">
<stop stop-color="#854ACF"/>
<stop offset="1" stop-color="#CE5CB4"/>
</linearGradient>
<linearGradient id="paint2_linear" x1="49.584" y1="60.0122" x2="52.5006" y2="60.0122" gradientUnits="userSpaceOnUse">
<stop stop-color="#854ACF"/>
<stop offset="1" stop-color="#CE5CB4"/>
</linearGradient>
<linearGradient id="paint3_linear" x1="49.584" y1="41.7831" x2="52.5006" y2="41.7831" gradientUnits="userSpaceOnUse">
<stop stop-color="#854ACF"/>
<stop offset="1" stop-color="#CE5CB4"/>
</linearGradient>
<clipPath id="clip0">
<rect width="70" height="70" fill="white"/>
</clipPath>
</defs>
</svg>
