<svg width="14" height="14" viewBox="0 0 14 14" fill="none" xmlns="http://www.w3.org/2000/svg">
<path d="M0.276105 11.4305C1.57227 12.253 3.08077 12.6876 4.63827 12.6876C6.9191 12.6876 9.00919 11.8114 10.5241 10.2206C11.9737 8.69814 12.7711 6.65239 12.7314 4.57631C13.2809 4.10614 13.9273 3.20839 13.9273 2.33339C13.9273 1.99798 13.5633 1.78506 13.2681 1.95598C12.7519 2.25931 12.2811 2.33864 11.7969 2.20273C10.8082 1.23906 9.33644 1.03606 8.09627 1.70456C7.01244 2.28789 6.40985 3.35539 6.4641 4.52206C4.63302 4.29864 2.94136 3.38048 1.76186 1.95364C1.56819 1.72089 1.20069 1.74831 1.04669 2.01198C0.478522 2.98498 0.484355 4.11256 0.978439 5.02314C0.743355 5.06456 0.598105 5.26231 0.598105 5.47639C0.598105 6.39164 1.00994 7.23281 1.67319 7.80681C1.54952 7.92581 1.50869 8.10256 1.56119 8.26006C1.85286 9.13623 2.51319 9.82106 3.33861 10.1641C2.44086 10.5928 1.44802 10.7357 0.564272 10.6272C0.106939 10.5654 -0.118811 11.1802 0.276105 11.4305ZM4.75785 10.314C5.0851 10.0626 4.91127 9.53873 4.50061 9.52998C3.77727 9.51481 3.11869 9.15839 2.70861 8.59781C2.90636 8.58498 3.1111 8.55464 3.30594 8.50214C3.74985 8.38198 3.72885 7.74148 3.27794 7.65106C2.45952 7.48656 1.81727 6.89039 1.57636 6.12273C1.79627 6.17698 2.02027 6.20731 2.24369 6.21139C2.68644 6.21373 2.85385 5.64614 2.49277 5.40873C1.67902 4.87264 1.33194 3.92589 1.56177 3.03573C2.98277 4.47539 4.91069 5.34281 6.95002 5.44081C7.24227 5.45889 7.4616 5.18414 7.39744 4.90589C7.12035 3.70481 7.79119 2.86306 8.5116 2.47514C9.22444 2.09014 10.3689 1.96998 11.2463 2.89048C11.507 3.16523 12.3867 3.17573 12.8341 3.07131C12.6334 3.44931 12.3249 3.80806 12.0361 4.00989C11.913 4.09623 11.8424 4.23973 11.85 4.38964C11.9439 6.30589 11.2299 8.21106 9.89119 9.61631C8.54252 11.0321 6.6776 11.812 4.63885 11.812C3.82802 11.812 3.03294 11.6801 2.28161 11.4258C3.17994 11.252 4.03335 10.8716 4.75785 10.314Z" fill="#7B7791"/>
</svg>
